<?xml version="1.0" encoding="UTF-8" standalone="no"?>
<!-- Created with Inkscape (http://www.inkscape.org/) -->

<svg
   xmlns:dc="http://purl.org/dc/elements/1.1/"
   xmlns:cc="http://creativecommons.org/ns#"
   xmlns:rdf="http://www.w3.org/1999/02/22-rdf-syntax-ns#"
   xmlns:svg="http://www.w3.org/2000/svg"
   xmlns="http://www.w3.org/2000/svg"
   xmlns:sodipodi="http://sodipodi.sourceforge.net/DTD/sodipodi-0.dtd"
   xmlns:inkscape="http://www.inkscape.org/namespaces/inkscape"
   width="110.70346mm"
   height="137.62605mm"
   viewBox="0 0 110.70346 137.62605"
   version="1.1"
   id="svg27"
   inkscape:version="0.92.3 (2405546, 2018-03-11)"
   sodipodi:docname="clinic.svg">
  <defs
     id="defs21" />
  <sodipodi:namedview
     id="base"
     pagecolor="#ffffff"
     bordercolor="#666666"
     borderopacity="1.0"
     inkscape:pageopacity="0.0"
     inkscape:pageshadow="2"
     inkscape:zoom="0.35"
     inkscape:cx="213.94409"
     inkscape:cy="251.34836"
     inkscape:document-units="mm"
     inkscape:current-layer="layer1"
     showgrid="false"
     inkscape:window-width="1920"
     inkscape:window-height="1052"
     inkscape:window-x="0"
     inkscape:window-y="0"
     inkscape:window-maximized="1"
     fit-margin-top="0"
     fit-margin-left="0"
     fit-margin-right="0"
     fit-margin-bottom="0" />
  <metadata
     id="metadata24">
    <rdf:RDF>
      <cc:Work
         rdf:about="">
        <dc:format>image/svg+xml</dc:format>
        <dc:type
           rdf:resource="http://purl.org/dc/dcmitype/StillImage" />
        <dc:title />
      </cc:Work>
    </rdf:RDF>
  </metadata>
  <g
     inkscape:label="Layer 1"
     inkscape:groupmode="layer"
     id="layer1"
     transform="translate(-49.227294,-77.709864)">
    <path
       d="m 103.86792,104.00535 c -5.822552,0 -11.698872,1.94588 -15.675942,5.78312 -3.44864,3.32738 -4.38926,5.78296 -4.85952,9.63842 -14.52797,0.0874 -14.57859,4.17033 -14.57859,30.84276 h 70.227952 c 0,-26.67243 -0.0569,-30.75126 -14.57865,-30.84276 -0.47019,-3.85546 -1.49588,-6.37646 -4.85943,-9.63842 -3.96455,-3.84482 -9.85346,-5.78312 -15.67582,-5.78312 z m 0,7.71077 c 6.42791,-0.0145 10.03243,3.85531 10.34601,7.71077 H 93.521788 c 0.31358,-3.85546 3.91821,-7.69183 10.346132,-7.71077 z m -5.016402,11.56607 h 10.032612 v 7.71077 h 10.03263 v 7.71061 h -10.03263 v 7.71077 H 98.851518 v -7.71077 h -10.0325 v -7.71061 h 10.0325 z"
       id="doctor"
       style="fill:#000000;stroke-width:4.39767647"
       inkscape:connector-curvature="0" />
    <path
       style="fill:#000000;fill-opacity:1;stroke-width:0.1889881"
       d="m 102.4067,213.87619 c -5.836262,-6.6367 -11.003102,-12.21526 -21.920312,-23.66699 -10.84721,-11.3783 -14.09773,-14.9698 -18.25081,-20.16535 -11.29184,-14.12619 -14.82332,-24.24119 -13.9905,-40.07206 0.80604,-15.32165 3.80326,-23.13701 12.93076,-33.71743 7.63776,-8.853551 14.95464,-14.049721 23.27493,-16.528979 6.44473,-1.920383 12.79958,-2.560073 23.624852,-2.378115 10.48898,0.176306 13.24168,0.769277 20.78869,4.4782 9.32761,4.583984 17.1669,11.586239 23.37847,20.882244 4.39983,6.58466 7.44673,14.60993 8.10795,21.35567 0.43057,4.39275 -0.0324,14.68316 -0.88829,19.7452 -2.11885,12.53119 -8.19478,22.06351 -26.13867,41.0081 -1.62116,1.71157 -5.4989,5.75295 -8.6172,8.98084 -10.19318,10.5514 -14.71205,15.39106 -18.31012,19.60997 -1.13025,1.32528 -2.10778,2.4079 -2.17228,2.40582 -0.0645,-0.002 -0.88237,-0.87378 -1.81747,-1.93712 z m 8.04074,-38.13383 c 8.62526,-0.67272 12.37077,-2.16116 20.02327,-7.95712 12.08787,-9.15531 18.52084,-21.35476 18.52084,-35.12291 0,-13.84681 -6.62095,-26.54029 -18.52084,-35.507628 -2.41038,-1.816369 -5.99534,-4.02169 -8.14247,-5.008906 -4.32692,-1.989452 -10.11269,-2.693255 -20.74072,-2.522983 -8.744782,0.1401 -11.243482,0.631993 -16.413152,3.231084 -14.59937,7.339953 -22.98081,18.386163 -25.11455,33.099353 -0.41257,2.84491 -0.54633,7.7522 -0.2859,10.48884 1.44358,15.16927 10.56679,28.66551 23.97855,35.4722 3.73761,1.8969 7.57526,2.92921 13.17286,3.54345 4.550312,0.49932 9.447792,0.60239 13.522112,0.28462 z"
       id="path32"
       inkscape:connector-curvature="0" />
    <path
       style="fill:#000000;fill-opacity:1;stroke-width:2.85714293"
       d="m 362.76561,779.58449 c -17.07823,-18.63572 -50.1223,-54.1416 -73.43128,-78.90192 -64.64609,-68.67137 -90.10228,-105.93291 -100.74096,-147.45975 -3.67232,-14.33445 -4.40725,-27.32385 -3.3831,-59.7936 1.11773,-35.43643 2.43234,-44.76645 9.02162,-64.0278 9.38031,-27.41992 22.62759,-47.96138 48.57589,-75.32256 40.69289,-42.90862 74.12093,-57.16772 140.38142,-59.88126 48.63235,-1.99163 72.04895,1.55458 99.78023,15.1107 43.97794,21.49811 79.23297,55.6921 101.45071,98.39743 15.61646,30.0168 20.17112,49.45081 20.0516,85.5571 -0.28543,86.21603 -17.55477,116.8732 -134.4666,238.70948 -22.63139,23.58469 -49.03204,51.5694 -58.6681,62.18826 l -17.52011,19.30706 z m 94.50292,-121.72755 c 29.23081,-13.02185 69.49673,-48.93743 85.35924,-76.137 26.927,-46.17188 28.51529,-101.81112 4.33372,-151.81551 -14.39543,-29.76792 -48.07883,-64.35379 -76.67578,-78.7301 -33.30028,-16.74079 -104.77594,-19.25886 -140.37075,-4.94523 -52.01759,20.91768 -92.35516,68.4036 -102.60652,120.78974 -4.81656,24.61344 -2.05424,65.86983 5.94623,88.80949 13.96418,40.03933 47.44579,77.77064 84.48342,95.20661 24.91371,11.72849 37.13895,13.53777 85.40477,12.63952 33.40649,-0.62169 45.34202,-1.90455 54.12567,-5.81752 z"
       id="path25"
       inkscape:connector-curvature="0"
       transform="scale(0.26458333)" />
    <path
       style="fill:#000000;fill-opacity:1;stroke-width:2.85714293"
       d="m 262.29199,525.51969 c 1.41621,-49.71452 4.96972,-61.40571 20.65627,-67.95997 5.50609,-2.30059 14.9917,-4.18289 21.07915,-4.18289 10.46556,0 11.25739,-0.63182 14.54539,-11.6062 11.08097,-36.98497 61.35207,-56.71513 105.74074,-41.5006 19.55162,6.70145 38.41613,24.84503 42.10274,40.49372 2.57729,10.93994 2.9582,11.21724 17.41968,12.68125 18.34162,1.85682 29.55584,9.82173 34.48141,24.49043 2.06026,6.13563 4.50782,28.83426 5.43901,50.4414 l 1.69308,39.28571 h -132.179 -132.17899 z m 150.85087,13.57142 V 524.8054 h 18.57143 18.57142 V 509.09111 493.37683 H 431.71429 413.14286 V 479.09111 464.8054 h -20 -20 v 14.28571 14.28572 h -20 -20 v 15.71428 15.71429 h 20 20 v 14.28571 14.28572 h 20 20 z m 19.89875,-89.28571 c -0.42231,-14.89726 -18.66747,-27.81263 -39.32635,-27.83832 -22.37133,-0.0278 -40.5724,11.78455 -40.5724,26.33119 0,4.62481 3.57382,5.07856 40,5.07856 30.14923,0 39.97506,-0.87953 39.89875,-3.57143 z"
       id="path27"
       inkscape:connector-curvature="0"
       transform="scale(0.26458333)" />
    <path
       style="fill:#000000;fill-opacity:1;stroke-width:2.85714293"
       d="m 262.29199,525.51969 c 1.41621,-49.71452 4.96972,-61.40571 20.65627,-67.95997 5.50609,-2.30059 14.9917,-4.18289 21.07915,-4.18289 10.46556,0 11.25739,-0.63182 14.54539,-11.6062 8.42735,-28.128 37.86734,-46.41663 74.89389,-46.5254 18.05236,-0.053 24.5046,1.28263 37.93239,7.85223 18.17295,8.8912 30.23949,22.07551 34.84697,38.07497 2.97867,10.34342 3.69049,10.83589 17.73894,12.27257 18.16399,1.85756 29.40182,9.86043 34.39011,24.49043 2.09202,6.13563 4.53281,28.83426 5.42398,50.4414 l 1.62032,39.28571 H 393.25543 261.09147 Z m 150.85087,13.57142 V 524.8054 h 18.57143 18.57142 V 509.09111 493.37683 H 431.71429 413.14286 V 479.09111 464.8054 h -20 -20 v 14.28571 14.28572 h -20 -20 v 15.71428 15.71429 h 20 20 v 14.28571 14.28572 h 20 20 z m 19.23637,-90.55454 c 0.62333,-1.87642 -3.20818,-8.14908 -8.51446,-13.93923 -8.10041,-8.83907 -11.97171,-10.75085 -24.13747,-11.91982 -24.55135,-2.35907 -46.58444,9.67849 -46.58444,25.45096 0,5.08296 2.35803,5.36161 39.05153,4.61469 27.11599,-0.55196 39.39791,-1.83764 40.18484,-4.2066 z"
       id="path47"
       inkscape:connector-curvature="0"
       transform="scale(0.26458333)" />
    <path
       style="fill:#000000;fill-opacity:1;stroke-width:2.85714293"
       d="M 344.50766,760.27986 C 252.82342,661.89051 241.60009,649.238 223.06865,623.37683 c -10.13441,-14.14286 -22.62074,-36 -27.74742,-48.57143 -9.3102,-22.83011 -9.32115,-22.91629 -9.25578,-72.85714 0.0618,-47.1975 0.50864,-51.26375 7.97256,-72.54684 10.60583,-30.24214 23.72868,-49.573 54.64451,-80.49513 40.69717,-40.70546 68.09358,-51.82703 134.57743,-54.63169 50.42806,-2.12734 72.37272,1.37599 102.74005,16.4018 54.34429,26.88966 100.03866,81.32028 114.33006,136.18867 4.96391,19.05777 5.57485,68.02299 1.18637,95.08319 -8.46106,52.17243 -29.07086,81.84045 -133.97414,192.85714 -32.66768,34.57143 -62.47886,66.50337 -66.24708,70.95989 l -6.85132,8.10277 z m 101.34492,-99.84183 c 34.36088,-8.94986 83.74116,-51.78074 101.57773,-88.10529 9.74272,-19.84129 17.018,-50.5191 17.09152,-72.0703 0.0677,-19.82376 -9.37223,-55.17783 -20.11429,-75.33202 -18.65585,-35.00196 -58.57803,-70.01707 -92.10028,-80.77971 -26.09013,-8.37648 -93.55678,-8.34189 -117.03166,0.06 -46.44452,16.62297 -86.88689,57.22324 -102.74053,103.14164 -9.37683,27.159 -9.2556,79.19454 0.247,106.02446 18.31035,51.69791 61.47046,93.86157 108.70025,106.19066 24.71913,6.45277 81.1321,6.92331 104.37026,0.87054 z"
       id="path49"
       inkscape:connector-curvature="0"
       transform="scale(0.26458333)" />
    <path
       style="fill:#ffffff;fill-opacity:1;stroke-width:2.85714293"
       d="m 375.43503,538.37683 -0.8636,-15 L 355.28571,522.532 336,521.68717 v -12.7266 -12.7266 h 20 20 v -14.28571 -14.28572 h 17.14286 17.14285 v 14.28572 14.28571 h 18.57143 18.57143 v 12.85714 12.85715 h -18.57143 -18.57143 v 15.71428 15.71429 h -16.99354 -16.99354 z"
       id="path51"
       inkscape:connector-curvature="0"
       transform="scale(0.26458333)" />
    <path
       style="fill:#ffffff;fill-opacity:1;stroke-width:2.85714293"
       d="m 356.09087,446.94826 c 0.12115,-4.76162 5.48457,-11.3248 14.11629,-17.27398 4.69156,-3.23353 12.70464,-4.86888 23.85714,-4.86888 15.35898,0 17.64052,0.84767 26.72047,9.92763 5.4602,5.4602 9.1129,11.24591 8.1171,12.85714 -2.79271,4.5187 -72.92657,3.90039 -72.811,-0.64191 z"
       id="path53"
       inkscape:connector-curvature="0"
       transform="scale(0.26458333)" />
    <path
       style="fill:#ffffff;fill-opacity:1;stroke-width:2.85714293"
       d="m 342.01323,657.55203 c -24.90344,-6.89926 -43.1856,-18.31483 -66.034,-41.23238 -40.74363,-40.86691 -57.10089,-95.64315 -45.41644,-152.0879 10.59894,-51.20094 52.07229,-97.07425 106.86578,-118.20331 12.00827,-4.63054 21.11805,-5.45524 57.14286,-5.17308 50.16419,0.39291 60.63869,3.00211 89.75361,22.35767 85.6015,56.90777 102.56879,168.29495 36.9853,242.80174 -15.49058,17.59823 -41.50713,37.32532 -61.71028,46.79192 -15.30808,7.17291 -19.44971,7.75691 -59.31435,8.36368 -30.97647,0.47149 -47.13051,-0.53157 -58.27248,-3.61834 z m 184.847,-105.00168 c 1.46103,-28.09369 -4.09557,-75.41495 -10.0586,-85.66131 -5.88332,-10.10935 -18.66384,-15.94719 -35.48366,-16.20809 -9.61002,-0.14907 -10.54061,-0.93048 -12.3043,-10.33174 -2.287,-12.19077 -18.5043,-30.99882 -33.18802,-38.4899 -23.87932,-12.18232 -61.34945,-12.25212 -85.05502,-0.15844 -15.93638,8.13014 -31.36725,24.75104 -34.79412,37.47747 -2.73178,10.14508 -3.48567,10.67697 -16.96953,11.9726 -31.54083,3.03067 -37.74224,14.91973 -39.55121,75.82579 L 258.16081,570.57664 392.0804,569.83388 526,569.09111 Z"
       id="path55"
       inkscape:connector-curvature="0"
       transform="scale(0.26458333)" />
  </g>
</svg>
