<?xml version="1.0" encoding="UTF-8" standalone="no"?>
<!-- Created with Inkscape (http://www.inkscape.org/) -->

<svg
   xmlns:dc="http://purl.org/dc/elements/1.1/"
   xmlns:cc="http://creativecommons.org/ns#"
   xmlns:rdf="http://www.w3.org/1999/02/22-rdf-syntax-ns#"
   xmlns:svg="http://www.w3.org/2000/svg"
   xmlns="http://www.w3.org/2000/svg"
   xmlns:sodipodi="http://sodipodi.sourceforge.net/DTD/sodipodi-0.dtd"
   xmlns:inkscape="http://www.inkscape.org/namespaces/inkscape"
   width="111.04178mm"
   height="137.52611mm"
   viewBox="0 0 111.04178 137.52611"
   version="1.1"
   id="svg58"
   inkscape:version="0.92.3 (2405546, 2018-03-11)"
   sodipodi:docname="doctors.svg">
  <defs
     id="defs52" />
  <sodipodi:namedview
     id="base"
     pagecolor="#ffffff"
     bordercolor="#666666"
     borderopacity="1.0"
     inkscape:pageopacity="0.0"
     inkscape:pageshadow="2"
     inkscape:zoom="0.35"
     inkscape:cx="371.23002"
     inkscape:cy="493.27998"
     inkscape:document-units="mm"
     inkscape:current-layer="layer1"
     showgrid="false"
     inkscape:window-width="1920"
     inkscape:window-height="1052"
     inkscape:window-x="0"
     inkscape:window-y="0"
     inkscape:window-maximized="1"
     fit-margin-top="0"
     fit-margin-left="0"
     fit-margin-right="0"
     fit-margin-bottom="0" />
  <metadata
     id="metadata55">
    <rdf:RDF>
      <cc:Work
         rdf:about="">
        <dc:format>image/svg+xml</dc:format>
        <dc:type
           rdf:resource="http://purl.org/dc/dcmitype/StillImage" />
        <dc:title />
      </cc:Work>
    </rdf:RDF>
  </metadata>
  <g
     inkscape:label="Layer 1"
     inkscape:groupmode="layer"
     id="layer1"
     transform="translate(-51.915782,-70.900298)">
    <path
       style="fill:#000000;stroke-width:0.18821332"
       d="m 110.12539,156.25817 c -0.31498,-0.0394 -0.53412,-0.1241 -0.48696,-0.1883 0.0471,-0.0641 -0.25398,-0.1292 -0.66917,-0.14445 -1.31797,-0.0484 -4.33106,-1.37732 -6.29314,-2.77555 -6.189614,-4.41079 -9.581764,-10.89509 -11.555804,-22.08962 -0.22312,-1.26534 -0.42662,-2.31127 -0.45221,-2.3243 -0.0256,-0.013 -0.57931,-0.11878 -1.23051,-0.23503 -2.92823,-0.52269 -5.92831,-2.49753 -7.43743,-4.89576 -0.88291,-1.4031 -1.77498,-3.65535 -1.9581,-4.94371 l -0.12919,-0.90856 1.08946,-0.10669 c 1.28496,-0.12585 1.44376,-0.0692 1.44376,0.51473 0,0.54254 0.5244,1.27477 2.18906,3.05655 2.96441,3.17297 6.08998,4.23045 9.11689,3.0845 2.36498,-0.89534 5.77536,-4.48641 6.0292,-6.34861 l 0.10456,-0.76646 h 1.241684 1.24166 l -0.14227,1.0697 c -0.47707,3.58714 -2.353374,6.78517 -5.004254,8.52948 -1.35994,0.89485 -3.3067,1.68536 -4.16904,1.69287 -0.25612,0.002 -0.46496,0.0618 -0.46404,0.13243 0.001,0.12196 0.54761,3.65948 0.73312,4.74948 0.16477,0.96813 1.33353,4.96353 1.97769,6.76059 2.59835,7.24902 7.706674,12.61203 13.600484,14.27865 1.52973,0.43257 1.92128,0.47692 3.51855,0.39851 3.30449,-0.16221 5.51626,-1.08207 8.54117,-3.55218 4.94539,-4.03837 7.52361,-9.03676 9.71109,-18.8269 0.18433,-0.82499 0.62034,-3.61626 0.62034,-3.97134 0,-0.0711 -0.34926,-0.27845 -0.77615,-0.46066 -1.03385,-0.44127 -2.22644,-1.48501 -2.66061,-2.32854 -0.44135,-0.85746 -0.44041,-2.5206 0.002,-3.37391 1.49504,-2.88428 5.98492,-3.62188 8.78209,-1.44272 1.86179,1.45042 2.11712,3.79335 0.61746,5.66559 -0.68011,0.84908 -2.20815,1.69679 -3.38861,1.87992 -0.65812,0.10209 -0.68413,0.13883 -0.88931,1.25543 -0.23984,1.30532 -0.77686,4.07241 -1.08688,5.60027 -0.57986,2.85787 -2.16851,7.17728 -3.65104,9.92691 -1.46421,2.71566 -3.2779,4.86156 -5.93093,7.0173 -2.31958,1.88478 -4.22213,3.00884 -5.17208,3.05575 -0.27846,0.0138 -0.4908,0.0924 -0.47189,0.17477 0.0357,0.15483 -0.89655,0.42926 -2.60748,0.76769 -0.95074,0.18804 -2.74282,0.22093 -3.93304,0.0722 z M 94.130176,126.27933 c 1.40015,-0.51217 2.44821,-1.2551 3.34281,-2.36962 0.76641,-0.95483 2.04381,-3.65362 1.89918,-4.01245 -0.0404,-0.10003 -0.43676,0.30502 -0.88096,0.90012 -1.09586,1.46816 -3.08627,3.0756 -4.53328,3.66103 -1.65486,0.66953 -3.46744,0.67253 -5.16475,0.008 -1.43,-0.5594 -3.48653,-2.10055 -4.84571,-3.63127 -0.53707,-0.60489 -1.00451,-1.03027 -1.03875,-0.94532 -0.10412,0.25821 0.97906,2.57664 1.64276,3.51627 1.11425,1.57749 2.58523,2.60542 4.42522,3.09234 1.37579,0.36409 3.84543,0.25884 5.15348,-0.21963 z m 40.274274,0.10708 c 0.6967,-0.29053 1.04354,-0.58525 1.41231,-1.2001 0.67833,-1.13094 0.49906,-2.10859 -0.55406,-3.02156 -1.44871,-1.25589 -3.38619,-1.26094 -4.82373,-0.0126 -1.56021,1.35489 -1.11683,3.43152 0.90979,4.26107 1.12211,0.45931 1.90638,0.45242 3.05569,-0.0268 z m -2.67629,-0.48149 c -0.97023,-0.35922 -1.47107,-1.05273 -1.47107,-2.03704 0,-0.54887 0.14462,-0.82612 0.6855,-1.31418 0.57659,-0.52028 0.85582,-0.63209 1.75747,-0.70373 1.03049,-0.0819 1.10406,-0.0586 1.90166,0.60093 0.70283,0.58119 0.82971,0.79518 0.82971,1.39936 0,0.75003 -0.37085,1.50963 -0.92152,1.88755 -0.61381,0.42127 -1.88844,0.49784 -2.78175,0.16711 z m 1.61176,-1.59345 c 0.34138,-0.34015 0.0558,-0.79188 -0.50056,-0.79188 -0.55119,0 -0.74552,0.29614 -0.47728,0.7274 0.22332,0.35907 0.65371,0.38745 0.97784,0.0645 z m -53.171404,-7.01248 c -3.9e-4,-0.0146 -0.41416,-3.55141 -0.91922,-7.85963 -0.84335,-7.19419 -0.89433,-7.89978 -0.62484,-8.65017 0.46463,-1.293802 1.72545,-2.086855 3.31773,-2.086855 0.39102,0 0.71092,0.02701 0.71092,0.06003 0,0.03301 -0.10226,0.302585 -0.2272,0.599038 -0.16701,0.396156 -0.35476,0.539 -0.70849,0.539 -0.2658,0 -0.77879,0.246027 -1.14578,0.549507 l -0.6645,0.5495 0.12806,1.37597 c 0.0703,0.75679 0.54204,4.3787 1.04803,8.04869 0.506,3.67 0.90323,6.6824 0.88276,6.69423 -0.0608,0.0351 -1.79643,0.20957 -1.79745,0.18068 z m 9.65216,-0.66833 c -0.0686,-0.2118 -0.12609,-0.85683 -0.12764,-1.43341 -0.001,-0.57657 -0.0605,-1.28664 -0.13089,-1.57791 l -0.12807,-0.5296 -2.40734,-0.048 -2.40734,-0.048 -0.0643,-0.83686 c -0.0354,-0.46026 0.0113,-0.89976 0.10478,-0.97665 0.0929,-0.0769 0.96013,-0.18646 1.92703,-0.24352 3.0226,-0.17834 2.76929,0.0272 2.63133,-2.13519 -0.13835,-2.16776 -0.0693,-2.27274 1.43901,-2.19317 l 0.99923,0.0527 0.17117,1.79711 c 0.0942,0.98841 0.25441,1.86801 0.35613,1.95468 0.1017,0.0867 1.203,0.13955 2.44732,0.11753 l 2.26237,-0.04 0.14063,0.68823 c 0.22583,1.10544 0.045,1.32519 -1.19139,1.44801 -0.5949,0.0591 -1.55199,0.10811 -2.12686,0.10892 -0.57486,8.3e-4 -1.15507,0.0923 -1.28932,0.20337 -0.17398,0.14386 -0.20624,0.71405 -0.11228,1.98427 0.15096,2.04012 0.12003,2.08589 -1.4098,2.09007 -0.8209,0.002 -0.97698,-0.0528 -1.08379,-0.38247 z m 10.423014,-0.34231 c -0.001,-0.30593 0.2408,-3.88648 0.53782,-7.95676 0.53195,-7.29004 0.53416,-7.40884 0.14809,-7.95863 -0.26795,-0.381583 -0.65825,-0.628617 -1.233904,-0.780981 -0.53983,-0.142876 -0.92646,-0.376108 -1.07729,-0.649879 -0.32822,-0.595675 -0.34619,-0.582071 0.76898,-0.582071 1.112044,0 2.062854,0.42462 2.805754,1.253002 0.60298,0.672389 0.64443,2.300379 0.24337,9.556809 -0.18031,3.26257 -0.32785,6.32408 -0.32785,6.80335 v 0.87141 h -0.93138 c -0.91237,0 -0.93144,-0.0114 -0.93359,-0.55625 z M 84.847266,101.38781 c -1.80388,-0.47758 -2.29111,-0.93846 -1.97743,-1.870486 0.22974,-0.682578 0.69042,-0.986146 1.49654,-0.986146 0.71211,0 2.84256,0.633356 3.31189,0.984583 0.80474,0.602239 0.0113,2.286049 -1.06382,2.258709 -0.18662,-0.005 -0.98185,-0.17874 -1.76718,-0.38666 z m 8.92274,-0.12026 c -0.68558,-0.44596 -0.90773,-1.25113 -0.49049,-1.777724 0.308,-0.388704 2.85379,-1.300956 3.63055,-1.300956 0.48025,0 1.19876,0.648101 1.37705,1.24211 0.2299,0.76596 -0.30143,1.21519 -2.04135,1.72598 -1.85653,0.54502 -1.811,0.54299 -2.47576,0.11059 z"
       id="path97"
       inkscape:connector-curvature="0" />
    <path
       style="fill:#000000;fill-opacity:1;stroke-width:0.1889881"
       d="m 105.43052,207.07262 c -5.836264,-6.6367 -11.003104,-12.21526 -21.920314,-23.66699 -10.84721,-11.3783 -14.09773,-14.9698 -18.25081,-20.16535 -11.29184,-14.12619 -14.82332,-24.24119 -13.9905,-40.07206 0.80604,-15.32165 3.80326,-23.13701 12.93076,-33.717431 7.63776,-8.853552 14.95464,-14.049722 23.27493,-16.52898 6.44473,-1.920383 12.799584,-2.560073 23.624854,-2.378115 10.48898,0.176306 13.24168,0.769277 20.78869,4.4782 9.32761,4.583984 17.1669,11.58624 23.37847,20.882245 4.39983,6.584661 7.44673,14.609931 8.10795,21.355671 0.43057,4.39275 -0.0324,14.68316 -0.88829,19.7452 -2.11885,12.53119 -8.19478,22.06351 -26.13867,41.0081 -1.62116,1.71157 -5.4989,5.75295 -8.6172,8.98084 -10.19318,10.5514 -14.71205,15.39106 -18.31012,19.60997 -1.13025,1.32528 -2.10778,2.4079 -2.17228,2.40582 -0.0645,-0.002 -0.88237,-0.87378 -1.81747,-1.93712 z m 8.04074,-38.13383 c 8.62526,-0.67272 12.37077,-2.16116 20.02327,-7.95712 12.08787,-9.15531 18.52084,-21.35476 18.52084,-35.12291 0,-13.84681 -6.62095,-26.540292 -18.52084,-35.507629 -2.41038,-1.816369 -5.99534,-4.02169 -8.14247,-5.008906 -4.32692,-1.989453 -10.11269,-2.693256 -20.74072,-2.522984 -8.744784,0.1401 -11.243484,0.631993 -16.413154,3.231085 -14.59937,7.339953 -22.98081,18.386164 -25.11455,33.099354 -0.41257,2.84491 -0.54633,7.7522 -0.2859,10.48884 1.44358,15.16927 10.56679,28.66551 23.97855,35.4722 3.73761,1.8969 7.57526,2.92921 13.17286,3.54345 4.550314,0.49932 9.447794,0.60239 13.522114,0.28462 z"
       id="path32"
       inkscape:connector-curvature="0" />
    <path
       style="fill:#000000;fill-opacity:1;stroke-width:2.85714293"
       d="M 374.19418,753.8702 C 357.11595,735.23449 324.07188,699.7286 300.7629,674.96829 236.11681,606.29691 210.66062,569.03537 200.02194,527.50853 c -3.67232,-14.33444 -4.40725,-27.32384 -3.3831,-59.7936 1.11773,-35.43642 2.43234,-44.76644 9.02162,-64.02779 9.38031,-27.41993 22.62759,-47.96138 48.57589,-75.32257 40.69289,-42.90861 74.12093,-57.16772 140.38142,-59.88126 48.63235,-1.99162 72.04895,1.55459 99.78023,15.1107 43.97794,21.49811 79.23297,55.6921 101.45071,98.39743 15.61646,30.01681 20.17112,49.45081 20.0516,85.5571 -0.28542,86.21603 -17.55477,116.8732 -134.4666,238.70949 -22.63139,23.58468 -49.03204,51.5694 -58.6681,62.18826 l -17.5201,19.30705 z m 94.50293,-121.72754 c 29.2308,-13.02186 69.49672,-48.93743 85.35923,-76.137 26.927,-46.17189 28.51529,-101.81113 4.33372,-151.81551 -14.39543,-29.76792 -48.07883,-64.35379 -76.67577,-78.7301 -33.30029,-16.74079 -104.77595,-19.25886 -140.37076,-4.94523 -52.01759,20.91767 -92.35516,68.40359 -102.60652,120.78974 -4.81656,24.61344 -2.05424,65.86982 5.94623,88.80949 13.96418,40.03932 47.44579,77.77064 84.48342,95.20661 24.91371,11.72848 37.13895,13.53777 85.40477,12.63951 33.4065,-0.62168 45.34202,-1.90454 54.12568,-5.81751 z"
       id="path15"
       inkscape:connector-curvature="0"
       transform="scale(0.26458333)" />
    <path
       style="fill:#000000;fill-opacity:1;stroke-width:0.71428573"
       d="m 417.18841,590.17812 c -8.76155,-1.75646 -10.84232,-2.33288 -15.65798,-4.33764 -16.92192,-7.04462 -32.12266,-22.1052 -41.77689,-41.39167 -6.63815,-13.26119 -10.37769,-25.83366 -15.92897,-53.55375 l -0.92337,-4.61082 -4.29713,-0.86973 c -9.39984,-1.9025 -19.13586,-7.378 -24.96264,-14.03888 -4.70782,-5.38175 -9.64741,-16.02687 -10.80973,-23.29565 l -0.44497,-2.78266 3.65511,-0.25287 c 4.46111,-0.30862 5.07515,-0.12802 5.07515,1.4927 0,0.69816 0.79388,2.43923 1.76418,3.86905 0.97031,1.42982 1.45245,2.59968 1.07143,2.59968 -1.28789,0 -0.7037,2.1528 2.09435,7.71784 5.36184,10.66418 12.67998,16.39537 23.15068,18.13042 9.11175,1.50986 19.60596,-1.18588 25.82841,-6.63477 5.18375,-4.53933 12.40373,-17.9607 10.34602,-19.23243 -0.57368,-0.35455 -0.37409,-1.35905 0.68098,-3.42714 0.82088,-1.60907 1.49252,-3.74196 1.49252,-4.73975 0,-1.75191 0.1554,-1.81417 4.5278,-1.81417 h 4.5278 l -0.66992,4.42625 c -2.33412,15.42159 -10.91486,27.87084 -23.51299,34.11346 -3.31715,1.64371 -7.38551,3.17022 -9.04079,3.39224 -1.65527,0.22202 -3.16895,0.66152 -3.36371,0.97666 -0.65888,1.06608 2.56263,19.54068 4.78634,27.44853 7.15725,25.45228 15.83789,41.60591 29.06197,54.08085 8.36296,7.88919 16.18505,12.63277 26.24789,15.91761 9.99211,3.26175 24.90934,2.06907 34.3314,-2.7449 14.89688,-7.61121 29.01585,-22.83894 36.98214,-39.88633 5.54718,-11.87065 12.02822,-33.84979 13.96729,-47.36723 0.45083,-3.14286 0.93133,-6.28457 1.06775,-6.98158 0.17408,-0.88937 -0.63864,-1.71383 -2.72532,-2.7647 -4.43467,-2.23333 -8.7042,-5.95042 -10.02019,-8.72365 -1.45416,-3.06443 -1.51901,-9.84977 -0.11998,-12.55518 1.74766,-3.37962 7.16208,-7.59409 11.51546,-8.96339 7.83526,-2.46449 17.81342,-0.0734 22.82011,5.46837 3.10305,3.43472 3.90266,5.42177 3.90266,9.69825 0,7.10614 -5.43993,13.27593 -13.82863,15.68397 -2.81021,0.80669 -4.39344,1.68405 -4.81768,2.66973 -0.34756,0.8075 -1.90183,7.89675 -3.45395,15.75389 -5.2425,26.53855 -13.65445,46.6441 -25.17514,60.17154 -7.73722,9.08494 -23.59346,21.29443 -30.05317,23.14128 -1.66571,0.47623 -3.37228,1.12218 -3.79236,1.43545 -2.59205,1.93293 -18.41865,3.80419 -23.52193,2.78112 z m 89.87741,-111.88383 c 3.73582,-1.27292 7.22521,-4.90862 7.88703,-8.21773 1.51797,-7.58986 -9.43061,-14.50959 -17.89651,-11.31096 -3.91838,1.48047 -8.08221,6.62702 -8.08221,9.98971 0,2.64995 2.19863,6.31138 4.72893,7.87519 4.77586,2.95165 8.29658,3.39001 13.36276,1.66379 z"
       id="path17"
       inkscape:connector-curvature="0"
       transform="scale(0.26458333)" />
    <path
       style="fill:#000000;fill-opacity:1;stroke-width:0.17857143"
       d="m 340.82864,441.98658 c -1.31637,-0.42059 -1.50198,-1.11689 -1.73341,-6.50258 -0.0924,-2.14952 -0.25243,-4.4397 -0.3557,-5.08929 -0.22816,-1.43529 -0.53543,-2.74415 -0.68383,-2.91288 -0.0603,-0.0686 -4.166,-0.21419 -9.12375,-0.32362 -4.95776,-0.10942 -9.0333,-0.21816 -9.05677,-0.24163 -0.0235,-0.0235 -0.0971,-1.24768 -0.16351,-2.72046 -0.0858,-1.9015 -0.0586,-2.86645 0.0939,-3.32856 0.19678,-0.59627 0.29241,-0.66611 1.14189,-0.83401 1.38493,-0.27373 3.9224,-0.51341 7.71283,-0.72851 6.68379,-0.3793 7.9851,-0.65398 8.58389,-1.81192 0.27435,-0.53054 0.28937,-0.93007 0.1466,-3.89958 -0.26721,-5.55786 -0.21431,-8.74309 0.15646,-9.42152 0.55882,-1.02252 1.14512,-1.19418 3.97019,-1.16247 1.375,0.0154 3.02379,0.078 3.66397,0.13897 l 1.16397,0.11091 0.49272,4.94139 c 0.50091,5.02348 0.82938,7.28559 1.23772,8.52395 0.18523,0.56173 0.3431,0.72061 0.85234,0.85779 0.351,0.0946 4.27278,0.16557 8.94582,0.16197 l 8.32082,-0.006 0.38509,2.07704 c 0.45328,2.44482 0.47624,3.20699 0.12216,4.05444 -0.54602,1.30679 -2.6197,1.72591 -10.09532,2.04043 -4.50369,0.18948 -6.23431,0.37353 -7.0631,0.75115 -0.91713,0.41787 -1.08026,2.20132 -0.7161,7.8288 0.47813,7.38852 0.3942,7.52915 -4.54223,7.61086 -1.62053,0.0268 -3.17604,-0.0246 -3.45669,-0.11427 z"
       id="path19"
       inkscape:connector-curvature="0"
       transform="scale(0.26458333)" />
    <path
       style="fill:#000000;fill-opacity:1;stroke-width:0.50507629"
       d="m 379.34612,440.95159 c -0.19105,-0.30912 -0.20422,-2.63879 -0.0293,-5.17703 0.17495,-2.53824 1.01933,-14.61549 1.8764,-26.83834 0.85706,-12.22285 1.47504,-23.74646 1.37329,-25.60803 -0.22712,-4.15516 -1.27879,-5.48609 -5.57185,-7.05142 -2.78726,-1.01629 -5.37419,-3.35301 -4.58534,-4.14186 0.53909,-0.53909 3.82488,-0.36045 6.59714,0.35866 3.56311,0.92426 6.64409,3.15779 7.76773,5.63113 1.28492,2.82836 1.24882,12.09696 -0.15788,40.53424 l -1.13055,22.8547 h -2.89616 c -1.59289,0 -3.05247,-0.25292 -3.24352,-0.56205 z"
       id="path23"
       inkscape:connector-curvature="0"
       transform="scale(0.26458333)" />
    <path
       style="fill:#000000;fill-opacity:1;stroke-width:0.50507629"
       d="m 303.17363,442.46584 c -0.31792,-1.03726 -5.27476,-44.59461 -5.94237,-52.21744 -0.71172,-8.12662 -0.30771,-9.99777 2.83789,-13.14337 2.42049,-2.42049 5.91714,-3.77669 9.73736,-3.77669 2.06314,0 2.19143,0.078 1.86889,1.13642 -0.49885,1.63697 -1.74841,2.90419 -2.8637,2.90419 -1.22268,0 -2.65491,0.75127 -5.12604,2.68882 l -1.95453,1.5325 0.31919,3.31891 c 0.17555,1.8254 1.93193,15.43516 3.90307,30.2439 1.97114,14.80874 3.49089,27.01798 3.37723,27.13163 -0.11366,0.11367 -1.49723,0.35834 -3.0746,0.54373 -2.22366,0.26135 -2.91612,0.17989 -3.08239,-0.3626 z"
       id="path25"
       inkscape:connector-curvature="0"
       transform="scale(0.26458333)" />
    <path
       style="fill:#000000;fill-opacity:1;stroke-width:0.50507629"
       d="m 321.64693,383.1755 c -7.30531,-1.88772 -9.46032,-3.69664 -8.23701,-6.91418 0.92106,-2.42258 2.51729,-3.43805 5.40429,-3.43805 2.78242,0 8.28707,1.4894 11.44845,3.09762 1.7217,0.87585 1.89403,1.151 1.89403,3.02406 0,1.66994 -0.32553,2.38609 -1.71726,3.77781 -2.03402,2.03403 -2.56687,2.06146 -8.7925,0.45274 z"
       id="path27"
       inkscape:connector-curvature="0"
       transform="scale(0.26458333)" />
    <path
       style="fill:#000000;fill-opacity:1;stroke-width:0.50507629"
       d="m 353.95732,381.99156 c -4.30318,-4.01977 -2.00825,-6.78631 8.06881,-9.72693 3.36471,-0.98186 4.06063,-1.04188 5.44267,-0.46942 1.73216,0.71748 3.33284,2.65028 3.82767,4.62184 0.52335,2.08518 -1.69007,3.76573 -7.24791,5.50301 -6.19644,1.93689 -8.08005,1.95024 -10.09124,0.0715 z"
       id="path29"
       inkscape:connector-curvature="0"
       transform="scale(0.26458333)" />
    <path
       style="fill:#000000;fill-opacity:1;stroke-width:0.50507629"
       d="m 498.1136,475.61375 c -1.08953,-0.38819 -2.66523,-1.39007 -3.50155,-2.2264 -1.2703,-1.2703 -1.55632,-2.01443 -1.73761,-4.5208 -0.21474,-2.9688 -0.19474,-3.02182 1.91098,-5.06535 2.31336,-2.24504 4.55573,-3.09738 8.08705,-3.07395 2.65512,0.0176 3.78939,0.5697 6.55527,3.19064 1.77945,1.6862 2.03103,2.20335 2.03103,4.17497 0,3.30917 -1.61651,6.11643 -4.19651,7.28776 -2.49465,1.13258 -6.3486,1.23079 -9.14866,0.23313 z m 5.98354,-5.77382 c 0.70876,-0.78317 0.76565,-1.17461 0.29779,-2.04883 -0.45918,-0.85798 -0.96189,-1.04879 -2.43937,-0.9259 -1.50234,0.12496 -1.89281,0.37917 -2.02605,1.31901 -0.34654,2.44454 2.44875,3.55505 4.16763,1.65572 z"
       id="path31"
       inkscape:connector-curvature="0"
       transform="scale(0.26458333)" />
    <path
       style="fill:#000000;fill-opacity:1;stroke-width:0.08928572"
       d="m 341.56712,478.81072 c -3.84088,-0.21242 -7.04145,-1.02396 -10.56299,-2.67838 -4.28778,-2.01438 -8.29226,-5.40501 -11.22292,-9.50252 -1.90008,-2.65662 -5.05784,-8.88391 -6.08081,-11.99173 -0.31542,-0.95826 -0.36738,-1.30611 -0.20967,-1.40359 0.17496,-0.10812 1.03516,0.65305 2.6369,2.33333 4.25011,4.45852 5.67545,5.81482 8.43056,8.02217 6.79324,5.44266 11.89132,7.87999 17.94643,8.57996 1.60571,0.18563 5.15579,0.13686 6.5625,-0.0901 3.07073,-0.49553 5.21822,-1.17558 7.76785,-2.45986 3.60804,-1.81741 7.42326,-4.62432 11.08156,-8.15287 1.82263,-1.75798 2.81541,-2.88821 5.03451,-5.73149 0.93223,-1.19443 2.23231,-2.54327 2.45135,-2.54327 0.14458,0 0.15744,0.0617 0.11726,0.56218 -0.15749,1.96199 -3.55647,9.23071 -6.10423,13.05389 -1.663,2.49551 -3.91509,4.81679 -6.46438,6.663 -2.62888,1.90385 -6.331,3.65601 -9.19642,4.35254 -3.52941,0.85793 -7.98886,1.219 -12.1875,0.98679 z"
       id="path35"
       inkscape:connector-curvature="0"
       transform="scale(0.26458333)" />
    <path
       style="fill:#000000;fill-opacity:1;stroke-width:0.26458332"
       id="path37"
       d="m 83.224282,119.85434 c 0.02826,0.0922 0.06276,0.1824 0.08733,0.27572 0.02178,0.0702 0.05915,0.13408 0.08742,0.20176 0.01569,0.0594 0.04918,0.10895 0.08079,0.16055 0.04978,0.089 0.0934,0.18191 0.132064,0.27629 0.03204,0.0774 0.04818,0.15947 0.06408,0.24125 0.0093,0.0328 0.0059,0.0682 0.01548,0.10084 0.01135,0.0387 0.03553,0.0753 0.05553,0.10972 0.04671,0.0725 0.09053,0.14674 0.136641,0.21957 0.03498,0.064 0.07734,0.12243 0.117917,0.1827 0.06632,0.0998 0.140888,0.19358 0.209119,0.29196 0.07297,0.10287 0.14393,0.20717 0.206605,0.31668 0.02948,0.0714 0.06281,0.14038 0.102277,0.20677 0.06265,0.0975 0.127582,0.19288 0.181068,0.29594 0.03636,0.0824 0.08264,0.15836 0.135069,0.23134 0.07494,0.0943 0.15312,0.18497 0.220226,0.28525 0.0624,0.0811 0.106707,0.17453 0.16768,0.25654 0.03573,0.0481 0.07386,0.0881 0.113909,0.13252 0.09805,0.10791 0.22715,0.17722 0.345334,0.25975 0.147336,0.10087 0.272073,0.22828 0.39543,0.35614 0.129098,0.14103 0.258392,0.28161 0.391684,0.41869 0.08786,0.0863 0.169508,0.17928 0.238289,0.28153 0.04297,0.0575 0.09515,0.10474 0.153707,0.14573 0.07916,0.0544 0.14305,0.12552 0.213119,0.19022 0.05336,0.0474 0.11774,0.0794 0.177321,0.11777 0.04267,0.0275 0.08385,0.0572 0.125918,0.0856 0.07957,0.0485 0.156133,0.106 0.244237,0.13885 0.04044,0.0151 0.06734,0.0188 0.109403,0.0272 0.01894,0.002 0.03808,0.003 0.0568,0.007 0.02175,0.004 0.118684,0.032 0.138194,0.0374 0.08331,0.0232 0.166288,0.0459 0.248735,0.0721 0.143298,0.0442 0.279747,0.1074 0.427106,0.13711 0.205624,0.0171 0.407289,0.0614 0.610256,0.0969 0.173014,0.0256 0.33995,0.0731 0.499142,0.14475 0.10709,0.0512 0.199869,0.12696 0.301358,0.18798 0.108439,0.0519 0.201681,0.12824 0.305356,0.18801 0.08981,0.0354 0.188462,0.0446 0.284022,0.0536 0.09093,0.0141 0.18366,0.0178 0.274209,0.0345 0.01365,0.003 0.106479,0.0262 0.122901,0.0304 0.104148,0.0318 0.212765,0.0344 0.320609,0.0392 0.190767,0.009 0.382003,0.0133 0.572622,0.0255 0.127365,0.01 0.2549,0.0167 0.382593,0.0204 0.02326,-0.002 0.04662,-0.003 0.06979,-0.006 0.06481,-0.008 0.129043,-0.0205 0.193638,-0.0303 0.129582,-0.0196 0.257834,-0.0381 0.386093,-0.0652 0.110371,-0.0225 0.220549,-0.0553 0.319368,-0.11061 0.01461,-0.008 0.05638,-0.036 0.0423,-0.027 -0.233431,0.14949 -0.466889,0.29894 -0.700334,0.44841 -0.0057,0.008 -0.0074,0.0229 -0.01722,0.0246 -0.02881,0.005 -0.05833,-0.005 -0.08756,-0.006 -0.04497,-0.002 -0.08998,-0.003 -0.134982,-0.003 -0.183931,-0.002 -0.366234,0.008 -0.549765,0.019 -0.242961,0.0151 -0.485394,0.0374 -0.728205,0.0546 -0.08901,0.007 -0.150018,0.0147 -0.207798,-0.0617 -0.02077,-0.0456 -0.03449,-0.0924 -0.01648,-0.14272 0.02014,-0.0564 0.06369,-0.0944 0.115047,-0.1228 0.277108,-0.15346 0.558924,-0.29827 0.838387,-0.44741 0.412674,-0.11038 0.839298,-0.15494 1.263447,-0.19552 0.313528,-0.0302 0.628078,-0.046 0.942919,-0.0521 0.252939,-0.003 0.505891,3e-5 0.758833,-3e-5 0.227312,-10e-4 0.45462,-0.002 0.681932,-0.003 0.148421,0.005 0.296706,0.0125 0.445167,0.0159 0.06528,-0.006 0.142078,0.0144 0.205914,-0.003 0.01484,-0.004 0.02835,-0.0119 0.04252,-0.0179 0.01733,-0.008 0.03472,-0.0158 0.052,-0.0239 0.01915,-0.009 0.03868,-0.0172 0.05726,-0.0273 0.02027,-0.011 0.07919,-0.0473 0.05915,-0.0359 -1.141608,0.65039 -0.764555,0.45222 -0.523203,0.29 0.179528,-0.13442 0.287653,-0.338 0.407792,-0.52263 0.0627,-0.0922 0.125537,-0.18468 0.203568,-0.26487 0.06532,-0.0671 0.14039,-0.12437 0.21355,-0.18246 0.180245,-0.13501 0.311259,-0.31701 0.431009,-0.50482 0.118462,-0.1965 0.212958,-0.4059 0.318948,-0.60905 0.09748,-0.17718 0.217773,-0.34029 0.332949,-0.5061 0.150503,-0.20624 0.290303,-0.42096 0.450389,-0.62009 0.03767,-0.0469 0.07739,-0.092 0.116089,-0.13801 0.149447,-0.17603 0.313743,-0.33952 0.455954,-0.5217 0.0817,-0.10466 0.09511,-0.1298 0.165806,-0.23777 0.112993,-0.17768 0.203697,-0.36839 0.290658,-0.55982 0.05193,-0.11702 0.09903,-0.23602 0.152543,-0.35235 0.05516,-0.12801 0.102772,-0.25935 0.145187,-0.39212 0.03171,-0.12285 0.06809,-0.24454 0.09022,-0.36958 0.01228,-0.0572 0.01016,-0.11453 0.0019,-0.17187 -0.0026,-0.0262 -0.01151,-0.0543 -0.0077,-0.0808 -5.3e-4,-0.001 -7.94e-4,-0.006 -0.0016,-0.004 -0.0011,0.002 0.0011,0.004 5.29e-4,0.006 -0.0029,0.0101 -0.01696,0.0116 -0.02529,0.0124 -0.01902,0.007 -0.05098,-0.004 -0.06846,0.002 -0.0067,0.002 -0.01167,0.008 -0.01749,0.0126 -0.230399,0.1633 -0.571584,0.33131 0.605189,-0.34148 0.0136,-0.008 -0.0267,0.0165 -0.0397,0.0253 -0.03836,0.0258 -0.03522,0.0248 -0.069,0.0537 -0.10836,0.11334 -0.197254,0.24362 -0.291975,0.36821 -0.08054,0.10874 -0.173485,0.20799 -0.250801,0.3191 -0.04028,0.0563 -0.05636,0.11866 -0.06174,0.18647 -0.0032,0.0683 -0.0021,0.13668 -0.0019,0.205 0.0011,0.0777 -0.0062,0.1552 -0.01484,0.2323 -0.01842,0.0949 -0.07102,0.17815 -0.107701,0.26678 -0.04586,0.11577 -0.09999,0.22819 -0.152667,0.341 -0.05263,0.0969 -0.106789,0.19293 -0.151083,0.29409 -0.04733,0.10666 -0.107571,0.2074 -0.16597,0.30834 -0.06509,0.10835 -0.147344,0.20597 -0.228878,0.30234 -0.06748,0.0802 -0.141078,0.15452 -0.203226,0.23909 -0.0067,0.0105 -0.01392,0.0206 -0.01998,0.0315 -0.0186,0.0333 -0.02829,0.0702 -0.04676,0.10374 -0.01476,0.0268 -0.05759,0.095 -0.07249,0.11894 -0.07644,0.12285 -0.146899,0.24948 -0.210312,0.37952 -0.04436,0.0894 -0.07491,0.18439 -0.11263,0.27641 -0.04001,0.0914 -0.102074,0.16972 -0.159274,0.25056 -0.05479,0.0807 -0.111276,0.16018 -0.158155,0.24577 -0.054,0.0902 -0.12973,0.16485 -0.201062,0.24129 -0.08887,0.0963 -0.196167,0.17289 -0.300464,0.25133 -0.311636,0.22294 -0.630176,0.44499 -1.001672,0.54569 -0.04672,0.0267 -0.09588,0.0491 -0.143034,0.0749 -0.01733,0.01 -0.06813,0.0401 -0.05097,0.0303 0.659804,-0.37764 0.864557,-0.5147 0.597744,-0.33829 -0.114806,0.0743 -0.226354,0.1533 -0.341996,0.22626 -0.335451,0.21429 -0.664694,0.44362 -1.030033,0.60558 -0.05388,0.0301 -0.117195,0.0297 -0.174188,0.049 -0.0258,0.009 -0.05737,0.0271 -0.08084,0.0397 -0.05997,0.0256 -0.117797,0.0597 -0.180152,0.0796 -0.03091,0.01 -0.0781,0.0178 -0.109715,0.0238 -0.06802,0.0148 -0.139541,0.0177 -0.206644,0.0369 -0.0326,0.009 -0.06366,0.0234 -0.09556,0.0349 -0.01704,0.006 -0.03425,0.0105 -0.0511,0.0166 -0.01672,0.006 -0.03267,0.0141 -0.04955,0.0196 -0.07769,0.0255 -0.15874,0.0339 -0.239554,0.0423 -0.10877,0.004 -0.216723,0.0144 -0.324832,0.0265 -0.02392,0.008 -0.0505,2.6e-4 -0.07459,0.007 -0.027,0.007 -0.05085,0.0234 -0.07689,0.0337 -0.03976,0.0156 -0.05034,0.0186 -0.0904,0.0322 -0.0699,0.0246 -0.143507,0.0301 -0.216905,0.0329 -0.01066,0.002 -0.02223,5.3e-4 -0.03195,0.005 -0.0099,0.005 -0.03433,0.0274 -0.02469,0.022 0.231399,-0.1288 0.460253,-0.26213 0.69065,-0.39272 0.01008,-0.006 -0.02013,0.0115 -0.02966,0.0181 -0.02143,0.0149 -0.03771,0.0307 -0.05713,0.0482 -0.05952,0.0624 -0.126297,0.11651 -0.190847,0.17329 -0.0044,0.002 -0.0087,0.005 -0.01336,0.005 -0.0021,-1.7e-4 -0.0042,-0.005 -0.0024,-0.006 0.01103,-0.007 0.02596,0.002 0.03878,0.004 0.02965,0.005 0.03187,0.004 0.06207,0.007 0.06907,0.003 0.138258,0.002 0.20737,0.001 0.04529,-8e-5 0.09058,-7.9e-4 0.135863,-0.001 0.0098,-1e-4 0.01979,0.001 0.02946,-2.7e-4 0.01077,-0.002 0.0208,-0.007 0.03119,-0.0102 0.09217,-0.0327 0.179644,-0.0768 0.266221,-0.12202 0.140536,-0.0603 0.286038,-0.10796 0.427887,-0.16524 0.02635,-0.0119 0.05297,-0.0233 0.0791,-0.0357 0.02625,-0.0125 0.05207,-0.0258 0.07799,-0.039 0.02655,-0.0135 0.105177,-0.0558 0.07943,-0.0409 -1.13207,0.65735 -0.719442,0.43311 -0.490305,0.26622 0.298283,-0.25493 0.638217,-0.40715 0.98751,-0.60679 0.08238,-0.029 0.165272,-0.0553 0.24121,-0.0995 0.250751,-0.12892 0.573317,-0.32366 -0.597848,0.34693 -0.0164,0.009 0.03238,-0.0195 0.04844,-0.0294 0.043,-0.0266 0.05347,-0.0338 0.09652,-0.062 0.08834,-0.0649 0.185359,-0.11659 0.274119,-0.18069 0.09022,-0.0691 0.169751,-0.15075 0.253021,-0.22789 0.130609,-0.11124 0.248632,-0.23611 0.36821,-0.35887 0.08387,-0.0899 0.183499,-0.16249 0.280445,-0.23732 0.06972,-0.0567 0.142788,-0.10896 0.217255,-0.15919 0.620485,0.67614 0.501054,-0.34659 0.784434,-0.44881 0.01349,-0.005 0.02809,-0.006 0.04189,-0.01 0.04516,-0.0128 0.0861,-0.0232 0.132493,-0.0319 0.01439,-0.002 0.02911,-0.003 0.04315,-0.007 0.0236,-0.006 0.04721,-0.021 0.06809,-0.0331 0.0109,-0.006 0.04351,-0.0256 0.03256,-0.0193 -0.65005,0.37188 -0.913871,0.52683 -0.654095,0.3744 0.143962,-0.0805 0.282464,-0.16923 0.4138,-0.26893 0,0 0.762294,-0.30457 0.762294,-0.30457 v 0 c -0.05004,0.0396 -0.09567,0.0766 -0.147754,0.11382 -0.06794,0.0485 -0.139129,0.0905 -0.209799,0.13457 -0.01233,0.008 -0.02397,0.0164 -0.03595,0.0246 -0.306692,0.17494 -0.585002,0.42909 -0.936874,0.49073 -0.04263,0.0114 -0.08624,0.0234 -0.126711,0.0414 -0.251495,0.11167 -0.612918,0.51145 0.612179,-0.35821 -0.07936,0.0438 -0.152553,0.098 -0.224721,0.15228 -0.09702,0.0754 -0.198088,0.14595 -0.289608,0.22807 -0.0559,0.0586 -0.114919,0.11364 -0.171833,0.17123 -0.01156,0.0117 -0.121179,0.12642 -0.132967,0.13783 -0.01995,0.0193 -0.04131,0.0371 -0.06197,0.0556 -0.116178,0.10116 0.0039,-0.006 -0.09761,0.0921 -0.05786,0.056 -0.02164,0.0141 -0.07479,0.0707 -0.01148,0.0122 -0.02114,0.0262 -0.03332,0.0377 -0.01154,0.011 -0.02503,0.0197 -0.03753,0.0295 -0.02257,0.0191 -0.0565,0.0486 -0.0806,0.0652 -0.06304,0.0434 -0.135191,0.0731 -0.194387,0.12249 -0.310705,0.21259 -0.637087,0.40347 -0.974648,0.57025 -0.07911,0.0331 -0.161766,0.0578 -0.237538,0.0983 0.223621,-0.12937 0.447419,-0.25845 0.670867,-0.38812 0.01413,-0.008 -0.02856,0.0159 -0.04289,0.0237 -0.05233,0.0286 -0.09799,0.0611 -0.144746,0.0983 -0.01876,0.0149 -0.03718,0.0303 -0.05578,0.0454 -0.342633,0.28395 -0.749811,0.48516 -1.15656,0.6625 -0.144521,0.0563 -0.292349,0.10564 -0.430498,0.17683 -0.09187,0.0449 -0.185926,0.0908 -0.287991,0.10621 -0.06818,0.002 -0.136396,8e-4 -0.204608,0.002 -0.07203,-2.6e-4 -0.144579,5.3e-4 -0.21576,-0.0123 -0.07031,-0.0166 -0.14895,-0.0433 -0.170259,-0.12268 -0.0042,-0.0155 -5.29e-4,-0.032 -5.29e-4,-0.048 0.0205,-0.0238 0.03687,-0.045 0.0618,-0.0647 0.01143,-0.009 0.02508,-0.0149 0.03669,-0.0237 0.03364,-0.0255 0.05728,-0.0608 0.09119,-0.086 0.236551,-0.25392 0.550257,-0.50236 0.902745,-0.51933 0.06833,-0.007 0.134895,-0.0223 0.199168,-0.0472 0.0452,-0.0162 0.09126,-0.0364 0.138377,-0.0463 0.03804,-0.008 0.07777,-0.006 0.116102,-0.0113 0.105971,-0.009 0.212405,-0.0116 0.31801,-0.0247 0.115192,-0.0185 0.224865,-0.0533 0.334272,-0.0935 0.09996,-0.0297 0.203214,-0.0423 0.304758,-0.0654 0.09799,-0.0291 0.189272,-0.0744 0.282006,-0.11697 0.08368,-0.0314 0.173368,-0.0455 0.25205,-0.0902 0.266885,-0.14691 0.107082,-0.0594 -0.615497,0.35875 -0.0182,0.0105 0.03632,-0.0213 0.05409,-0.0326 0.05747,-0.0365 0.110598,-0.0792 0.169844,-0.11293 0.116173,-0.0718 0.228565,-0.14841 0.342799,-0.22312 0.294558,-0.206 0.06461,-0.0474 0.818933,-0.48547 0.04915,-0.0285 0.103354,-0.0556 0.156387,-0.0762 0.01688,-0.007 0.03433,-0.0115 0.0515,-0.0172 0.03513,-0.0117 0.05611,-0.0177 0.08981,-0.0325 0.01535,-0.007 0.05973,-0.0302 0.0453,-0.0217 -1.181105,0.69456 -0.808488,0.4779 -0.561475,0.32296 0.103272,-0.075 0.206481,-0.15089 0.301728,-0.23565 0.06923,-0.0734 0.138647,-0.1466 0.204396,-0.22311 0.0264,-0.0408 0.04406,-0.0862 0.07126,-0.12642 0.02846,-0.042 0.06415,-0.0797 0.08561,-0.12666 0.0565,-0.0773 0.114477,-0.15401 0.164677,-0.23552 0.02098,-0.04 0.03244,-0.0784 0.04823,-0.12041 0.02077,-0.0553 0.05121,-0.10635 0.07247,-0.16141 0.0635,-0.13168 0.127977,-0.26323 0.205711,-0.3872 0.05094,-0.0807 0.100833,-0.16137 0.129551,-0.25275 0.05684,-0.0923 0.13013,-0.17118 0.204089,-0.24978 0.02617,-0.0307 0.0539,-0.06 0.07985,-0.0908 0.02832,-0.0336 0.05232,-0.0708 0.08068,-0.10437 0.01307,-0.0155 0.0291,-0.0284 0.04175,-0.0443 0.01288,-0.0162 0.02307,-0.0343 0.0346,-0.0515 0.0348,-0.0562 0.07075,-0.11303 0.100296,-0.17228 0.0081,-0.0163 0.01357,-0.0338 0.0217,-0.05 0.01254,-0.0251 0.03041,-0.0473 0.04263,-0.0725 0.04243,-0.10458 0.09399,-0.20624 0.153683,-0.30195 0.05874,-0.10581 0.105392,-0.21865 0.149977,-0.33106 0.01781,-0.0471 0.03742,-0.0927 0.05942,-0.13802 0.01312,-0.027 0.03007,-0.0522 0.04218,-0.0797 0.0045,-0.0102 0.0064,-0.0214 0.0097,-0.0321 0.0181,-0.0708 0.02162,-0.14653 0.02331,-0.21927 -0.0011,-0.0697 -0.0027,-0.13941 -0.0021,-0.20913 0.0029,-0.0793 0.0069,-0.15803 0.0488,-0.22818 0.07301,-0.12085 0.173874,-0.22064 0.260766,-0.33141 0.09605,-0.12003 0.183798,-0.24574 0.273084,-0.37057 0.03036,-0.036 0.06173,-0.0733 0.102992,-0.0976 0.106447,-0.0628 0.550134,-0.38689 0.841898,-0.47094 0.0355,0.001 0.0714,-8e-4 0.10644,0.006 0.0378,0.0102 0.0658,0.0363 0.0801,0.0731 0.0101,0.0295 0.007,0.0598 0.0111,0.0905 0.008,0.0667 0.0116,0.1341 -0.002,0.20045 -0.0221,0.12908 -0.0566,0.25454 -0.0915,0.3807 -0.0369,0.13617 -0.0879,0.26751 -0.13644,0.39987 -0.0507,0.11953 -0.108765,0.23574 -0.156945,0.35643 -0.09494,0.19625 -0.191929,0.39237 -0.305327,0.57868 -0.06779,0.10475 -0.09276,0.1475 -0.169815,0.24876 -0.141113,0.18543 -0.307541,0.34929 -0.4597,0.52531 -0.09757,0.11254 -0.13453,0.15077 -0.2228,0.26987 -0.113747,0.15347 -0.215612,0.31578 -0.325856,0.47173 -0.112633,0.1634 -0.229002,0.32474 -0.329708,0.4959 -0.119004,0.20158 -0.215484,0.41606 -0.332549,0.61889 -0.112488,0.19127 -0.231257,0.38254 -0.40445,0.52559 -0.07453,0.0562 -0.15231,0.11169 -0.222634,0.17312 -0.0845,0.0738 -0.151979,0.16259 -0.215778,0.25432 -0.09653,0.14253 -0.04618,0.0651 -0.137978,0.21337 -0.05705,0.0922 -0.113352,0.18947 -0.184054,0.27232 -0.01762,0.0207 -0.03831,0.0385 -0.05747,0.0577 -0.04929,0.0368 -0.06729,0.0523 -0.120658,0.0836 -0.281541,0.16551 -0.613916,0.41474 -0.955215,0.52341 -0.08735,0.0107 -0.175027,0.007 -0.262728,0.001 -0.143008,-0.009 -0.286018,-0.0205 -0.429364,-0.0229 -0.224462,-10e-4 -0.448926,-0.002 -0.673385,-0.004 -0.253323,-7.9e-4 -0.506664,8e-4 -0.759982,0.003 -0.305657,0.004 -0.611391,0.0129 -0.916014,0.04 -0.427183,0.0401 -0.85858,0.0842 -1.266862,0.22415 0.185169,-0.11399 0.372087,-0.2252 0.555512,-0.34199 0.02384,-0.0152 -0.05123,0.0239 -0.07634,0.0369 -0.03604,0.0186 -0.07572,0.0311 -0.06736,0.0777 7.94e-4,0.005 0.0032,0.009 0.0048,0.0129 0.0377,0.0233 0.111752,-0.002 0.15259,0.006 0.23082,-0.005 0.461481,-0.0155 0.691968,-0.029 0.18892,-0.0107 0.377549,-0.0217 0.566779,-0.0252 0.02122,-2.6e-4 0.22147,-0.006 0.259623,0.005 0.02726,0.008 0.04799,0.0302 0.07199,0.0454 -0.505179,0.35092 -0.571844,0.49774 -1.047866,0.58224 -0.358127,0.0621 0.133765,-0.0225 -0.254397,0.0418 -0.140068,0.0232 -0.279897,0.0572 -0.422587,0.0577 -0.126151,-0.004 -0.251542,-0.0158 -0.37714,-0.0279 -0.191019,-0.0125 -0.382468,-0.0191 -0.573873,-0.0216 -0.114364,-0.003 -0.227277,-0.0112 -0.33618,-0.0494 -0.127794,-0.0316 -0.258754,-0.044 -0.389644,-0.056 -0.106526,-0.0124 -0.215678,-0.0248 -0.308771,-0.0826 -0.09801,-0.0666 -0.194326,-0.13558 -0.300128,-0.18987 -0.09861,-0.0604 -0.191296,-0.13127 -0.297471,-0.17832 -0.148984,-0.0669 -0.304445,-0.11572 -0.465857,-0.14288 -0.119531,-0.0212 -0.152453,-0.0285 -0.274153,-0.0439 -0.09601,-0.0121 -0.193265,-0.0162 -0.289044,-0.0301 -0.02342,-0.003 -0.04654,-0.009 -0.06981,-0.0129 -0.144265,-0.0391 -0.278877,-0.10552 -0.422831,-0.14615 -0.148376,-0.0427 -0.29823,-0.0801 -0.450202,-0.10756 -0.05111,-0.0154 -0.06999,-0.0191 -0.118861,-0.0423 -0.08639,-0.0412 -0.162301,-0.10175 -0.244332,-0.1503 -0.107567,-0.0683 -0.222491,-0.12673 -0.320263,-0.209 -0.06772,-0.0628 -0.128428,-0.13357 -0.209224,-0.181 -0.06498,-0.0488 -0.124177,-0.10493 -0.170019,-0.17259 -0.0601,-0.10071 -0.134305,-0.19222 -0.217501,-0.27483 -0.130844,-0.13841 -0.253283,-0.28444 -0.386238,-0.42087 -0.122669,-0.12274 -0.248584,-0.2425 -0.394994,-0.33717 -0.125399,-0.0826 -0.252383,-0.16461 -0.350957,-0.28001 -0.06006,-0.0678 -0.123266,-0.13561 -0.173807,-0.21106 -0.02617,-0.0391 -0.04135,-0.0849 -0.07289,-0.1207 -0.01461,-0.0213 -0.03036,-0.0419 -0.04553,-0.0628 -0.0703,-0.0977 -0.1495,-0.18713 -0.226963,-0.27904 -0.05622,-0.0762 -0.101994,-0.15729 -0.137345,-0.2453 -0.05094,-0.10219 -0.117065,-0.19426 -0.182319,-0.28766 -0.04218,-0.0669 -0.07986,-0.13551 -0.104391,-0.21119 -0.05465,-0.11021 -0.119936,-0.21409 -0.193215,-0.31293 -0.06976,-0.0985 -0.147762,-0.19042 -0.221445,-0.28595 -0.0421,-0.0609 -0.07916,-0.12423 -0.118978,-0.18659 -0.04451,-0.0742 -0.08551,-0.15045 -0.133334,-0.22269 -0.04732,-0.0769 -0.08802,-0.14234 -0.08961,-0.23526 -0.01191,-0.0771 -0.02741,-0.1542 -0.05143,-0.22847 -0.03498,-0.0901 -0.07771,-0.17715 -0.126736,-0.26046 -0.03779,-0.0547 -0.07842,-0.10677 -0.09168,-0.17369 -0.02673,-0.0726 -0.06711,-0.13945 -0.08939,-0.21382 -0.01995,-0.0906 -0.04866,-0.17963 -0.08865,-0.26344 0,0 0.736299,-0.40908 0.736299,-0.40908 z"
       inkscape:connector-curvature="0" />
    <path
       style="fill:#000000;fill-opacity:1;stroke-width:0.26458332"
       id="path39"
       d="m 99.847785,119.5145 c -0.05643,0.0689 -0.112948,0.13698 -0.151352,0.21774 -0.02394,0.0759 -0.04964,0.14944 -0.08588,0.22061 -0.04112,0.0732 -0.08719,0.14361 -0.116835,0.22252 -0.03009,0.0905 -0.07292,0.17588 -0.103735,0.26609 -0.03451,0.10776 -0.09953,0.20213 -0.156144,0.29911 -0.08898,0.13593 -0.181853,0.26954 -0.274402,0.40315 -0.0791,0.1197 -0.165907,0.23446 -0.236955,0.35928 -0.07765,0.14973 -0.173757,0.28878 -0.267753,0.42847 -0.186645,0.27162 -0.282885,0.58665 -0.383186,0.89678 -0.107897,0.33593 -0.212423,0.67298 -0.328297,1.00628 -0.07057,0.21668 -0.158568,0.42695 -0.23871,0.64009 -0.06232,0.15026 -0.116549,0.30321 -0.160139,0.4599 -0.0205,0.0793 -0.0332,0.16031 -0.04016,0.24186 0,0 -0.74903,0.37386 -0.74903,0.37386 v 0 c 0.0071,-0.088 0.02085,-0.175 0.04402,-0.26039 0.04177,-0.16045 0.09665,-0.3171 0.160972,-0.46992 0.08599,-0.21686 0.183724,-0.42886 0.262131,-0.64871 0.121695,-0.33175 0.230476,-0.66806 0.333518,-1.00602 0.100054,-0.31063 0.184957,-0.63078 0.360926,-0.90947 0.08373,-0.13616 0.172394,-0.26921 0.244998,-0.41184 0.06952,-0.13248 0.165352,-0.24722 0.245894,-0.37281 0.08967,-0.12961 0.176897,-0.26075 0.264943,-0.39144 0.05357,-0.0944 0.119152,-0.18193 0.161972,-0.2823 0.02713,-0.0903 0.0666,-0.17504 0.09974,-0.26317 0.02225,-0.0879 0.06611,-0.16613 0.117263,-0.24068 0.0097,-0.0171 0.03705,-0.0636 0.04594,-0.0837 0.01778,-0.0401 0.0244,-0.0854 0.03874,-0.1267 0.03126,-0.0882 0.07791,-0.16493 0.139253,-0.23578 0,0 0.772263,-0.3328 0.772263,-0.3328 z"
       inkscape:connector-curvature="0" />
    <path
       style="fill:#000000;fill-opacity:1;stroke-width:0.26458332"
       id="path41"
       d="m 82.917672,119.51986 c 0.03807,0.0682 0.07752,0.13619 0.125415,0.19799 0.04415,0.0596 0.09901,0.10601 0.158837,0.14863 0.05781,0.0471 0.120777,0.0859 0.166182,0.1459 0.02746,0.051 0.0471,0.10579 0.07087,0.15865 0.02421,0.0554 0.03505,0.11503 0.0524,0.17266 0.02217,0.0597 0.02492,0.12347 0.03662,0.18533 0.03412,0.0892 0.04807,0.18396 0.06199,0.27793 0.0141,0.1031 0.02402,0.20676 0.03071,0.31059 0.0047,0.0871 0.0461,0.16475 0.07707,0.24448 0.03019,0.0666 0.04228,0.1393 0.06589,0.20805 0.0096,0.0279 0.02191,0.0546 0.03264,0.0821 0.01815,0.051 0.04968,0.0986 0.06056,0.15216 0.0062,0.0307 0.0097,0.0619 0.01455,0.0929 0,0 -0.721497,0.39004 -0.721497,0.39004 v 0 c -0.02704,-0.0765 -0.04819,-0.15488 -0.08265,-0.2286 -0.01185,-0.03 -0.02564,-0.0593 -0.03588,-0.0899 -0.02217,-0.0664 -0.02917,-0.13777 -0.06084,-0.20115 -0.03512,-0.0879 -0.0827,-0.17163 -0.09488,-0.26707 -7.94e-4,-0.102 -0.0045,-0.20416 -0.01939,-0.30522 -0.015,-0.0902 -0.0281,-0.18242 -0.06719,-0.26604 -0.01796,-0.0596 -0.01315,-0.12321 -0.03383,-0.18266 -0.01675,-0.0544 -0.03226,-0.10875 -0.04866,-0.16307 -0.02056,-0.0472 -0.0428,-0.0937 -0.06176,-0.14135 -0.04015,-0.0526 -0.09992,-0.086 -0.150966,-0.12682 -0.06447,-0.0486 -0.120303,-0.10556 -0.169196,-0.17003 -0.05089,-0.0667 -0.09114,-0.13972 -0.138634,-0.20889 0,0 0.731637,-0.41658 0.731637,-0.41658 z"
       inkscape:connector-curvature="0" />
    <path
       style="fill:#ffffff;fill-opacity:1;stroke-width:1.01015258"
       d="m 371.98282,636.3217 c -34.53553,-4.90938 -60.73244,-18.34868 -86.36804,-44.30774 -25.51547,-25.83738 -42.3083,-60.12574 -47.04102,-96.05043 -1.76106,-13.36769 -0.66434,-42.74184 2.07447,-55.56173 9.54382,-44.67306 34.76166,-79.6308 75.72155,-104.96755 31.36255,-19.40008 44.80371,-22.4382 95.31722,-21.54466 44.80732,0.79261 56.54666,3.84914 83.47495,21.73412 58.64351,38.94929 87.86238,103.41419 76.33577,168.41771 -7.56615,42.66873 -34.34757,81.32845 -76.78137,110.83603 -16.93337,11.77512 -28.07123,16.93417 -43.29099,20.05238 -12.92657,2.64838 -64.27488,3.54803 -79.44254,1.39187 z m 69.3815,-48.2921 c 12.5397,-4.32899 28.92844,-17.40481 38.33301,-30.58413 9.04096,-12.66976 16.71683,-32.97193 21.14573,-55.92908 1.44694,-7.50019 3.05704,-14.1503 3.578,-14.77802 0.52097,-0.62771 2.18707,-1.39044 3.70247,-1.69495 3.93118,-0.78996 9.39827,-4.72987 12.07513,-8.70208 3.10717,-4.61072 3.11763,-11.6945 0.024,-16.28483 -8.84163,-13.1194 -34.86144,-9.88567 -38.17083,4.74386 -1.65107,7.2988 1.00323,13.00997 8.21977,17.68613 l 5.18602,3.36042 -0.58937,5.63882 c -0.88448,8.46218 -7.1095,31.75896 -11.19043,41.87949 -8.92637,22.13705 -23.51171,38.67819 -41.54658,47.11772 -7.98063,3.7346 -21.34662,5.02655 -29.46362,2.84796 -19.91292,-5.3446 -39.54215,-24.25943 -49.37786,-47.58083 -5.73917,-13.60809 -12.48412,-39.44254 -12.51613,-47.93917 -0.002,-0.59302 2.42865,-1.84505 5.40197,-2.78231 15.21741,-4.79686 26.28097,-17.35533 29.81773,-33.84671 1.77268,-8.26572 1.77779,-8.2547 -3.82877,-8.2547 -4.69166,0 -5.00752,0.16851 -5.63027,3.00389 -1.00168,4.56061 -8.37499,13.83423 -14.89811,18.73774 -10.05306,7.55702 -19.97091,8.20617 -30.61869,2.00407 -5.33969,-3.11026 -18.37649,-16.86022 -18.80522,-19.83396 -0.20968,-1.45433 -1.27157,-2.57307 -2.85896,-3.01203 -1.67754,-0.46388 -1.91652,-0.73214 -0.71184,-0.79902 1.47659,-0.082 1.70878,-0.71065 1.24969,-3.38369 -0.31012,-1.80565 -2.14442,-15.48718 -4.07623,-30.40342 l -3.51238,-27.12042 2.26269,-1.88786 c 1.24448,-1.03832 2.96727,-1.90298 3.82843,-1.92146 0.86115,-0.0185 2.05358,-0.52146 2.64984,-1.11772 0.77205,-0.77205 1.26267,-0.37269 1.70442,1.38736 0.64469,2.56865 2.93364,3.81755 10.57853,5.77185 5.69229,1.45515 9.26036,-0.52524 9.26036,-5.13978 0,-2.5765 -0.59719,-3.31107 -3.78807,-4.65945 -6.11046,-2.5821 -12.08349,-2.91314 -14.41943,-0.79915 -1.80284,1.63154 -1.99555,1.6445 -1.99555,0.13416 0,-3.46067 -9.85729,-0.92881 -13.57213,3.48603 -1.85981,2.21026 -2.59031,4.24797 -2.59031,7.22562 0,3.89459 2.62085,28.35445 5.40939,50.48478 0.68161,5.40935 0.87542,9.95649 0.43067,10.10473 -1.40695,0.46899 2.15499,11.92552 5.95761,19.16193 5.55496,10.5711 15.31002,18.037 27.59828,21.12195 l 6.56599,1.64837 2.75245,13.51062 c 4.95191,24.30679 11.91323,43.08165 20.85705,56.25201 10.75019,15.83036 29.58177,29.70823 43.9567,32.39376 2.61417,0.48838 5.07296,1.22263 5.46398,1.63166 1.47756,1.5456 18.88396,-0.37148 26.15082,-2.88016 z M 348.7628,441.39571 c 0.85955,-1.03569 1.07203,-3.24304 0.65638,-6.81853 -0.33804,-2.90788 -0.28613,-5.78679 0.11536,-6.39757 0.40151,-0.61078 4.10307,-1.38633 8.22573,-1.72343 8.6949,-0.71095 10.49274,-1.91965 9.32655,-6.27025 -0.79207,-2.95489 -0.92715,-3.0105 -6.49678,-2.67474 -3.12836,0.18859 -7.07272,0.0387 -8.76527,-0.33301 -3.25524,-0.71497 -3.47131,-1.17997 -4.6053,-9.91137 l -0.63,-4.85072 -4.72846,0.30503 -4.72845,0.30504 -0.30382,7.04314 c -0.17508,4.0589 -0.8171,7.36942 -1.51522,7.81321 -0.66628,0.42354 -3.08652,0.77704 -5.3783,0.78555 -2.29178,0.008 -5.58741,0.29957 -7.32361,0.64681 -2.88382,0.57677 -3.15672,0.96975 -3.15672,4.54569 v 3.91434 h 8.98329 c 10.14798,0 10.20961,0.0481 10.20961,7.96181 0,2.62135 0.54548,5.31159 1.21218,5.97829 1.71077,1.71078 7.38697,1.5072 8.90283,-0.31929 z m 37.72289,-6.29721 c 0.35909,-3.75019 0.95137,-17.81173 1.31621,-31.24788 0.60213,-22.17612 0.50156,-24.67622 -1.09046,-27.10595 -2.02517,-3.09081 -7.21325,-5.53831 -11.73979,-5.53831 -4.3961,0 -3.62362,2.92656 1.47021,5.56989 2.15984,1.1208 4.37714,2.75146 4.92733,3.62369 0.67306,1.06703 0.33067,11.14164 -1.04655,30.79387 -1.12579,16.0644 -1.84498,29.54892 -1.5982,29.96561 0.24677,0.41669 1.94711,0.75761 3.77852,0.75761 h 3.32985 z m -18.83893,-53.77928 c 5.18675,-2.29434 5.882,-5.71974 1.8109,-8.92207 -2.09881,-1.65092 -3.1999,-1.83469 -6.52137,-1.08841 -7.19325,1.61622 -11.15652,4.04029 -11.15652,6.8237 0,1.38121 0.78933,3.38348 1.75407,4.44951 2.07479,2.29263 7.08984,1.84392 14.11292,-1.26273 z"
       id="path43"
       inkscape:connector-curvature="0"
       transform="scale(0.26458333)" />
  </g>
</svg>
