<?xml version="1.0" encoding="UTF-8" standalone="no"?>
<!-- Created with Inkscape (http://www.inkscape.org/) -->

<svg
   xmlns:dc="http://purl.org/dc/elements/1.1/"
   xmlns:cc="http://creativecommons.org/ns#"
   xmlns:rdf="http://www.w3.org/1999/02/22-rdf-syntax-ns#"
   xmlns:svg="http://www.w3.org/2000/svg"
   xmlns="http://www.w3.org/2000/svg"
   xmlns:sodipodi="http://sodipodi.sourceforge.net/DTD/sodipodi-0.dtd"
   xmlns:inkscape="http://www.inkscape.org/namespaces/inkscape"
   width="112.60918mm"
   height="138.90446mm"
   viewBox="0 0 112.60918 138.90446"
   version="1.1"
   id="svg29"
   inkscape:version="0.92.3 (2405546, 2018-03-11)"
   sodipodi:docname="family_clinic.svg">
  <defs
     id="defs23" />
  <sodipodi:namedview
     id="base"
     pagecolor="#ffffff"
     bordercolor="#666666"
     borderopacity="1.0"
     inkscape:pageopacity="0.0"
     inkscape:pageshadow="2"
     inkscape:zoom="0.9899495"
     inkscape:cx="440.26998"
     inkscape:cy="214.5578"
     inkscape:document-units="mm"
     inkscape:current-layer="layer1"
     showgrid="false"
     inkscape:window-width="1859"
     inkscape:window-height="1025"
     inkscape:window-x="1981"
     inkscape:window-y="27"
     inkscape:window-maximized="1"
     fit-margin-top="0"
     fit-margin-left="0"
     fit-margin-right="0"
     fit-margin-bottom="0" />
  <metadata
     id="metadata26">
    <rdf:RDF>
      <cc:Work
         rdf:about="">
        <dc:format>image/svg+xml</dc:format>
        <dc:type
           rdf:resource="http://purl.org/dc/dcmitype/StillImage" />
        <dc:title />
      </cc:Work>
    </rdf:RDF>
  </metadata>
  <g
     inkscape:label="Layer 1"
     inkscape:groupmode="layer"
     id="layer1"
     transform="translate(-49.883237,-78.138663)">
    <path
       id="path12"
       style="fill:#000000;stroke-width:0.17791137"
       d="m 106.81919,94.366273 c -0.45849,-0.004 -0.95243,0.09 -1.32183,0.27511 -0.31118,0.15593 -1.99465,1.20717 -3.74118,2.33611 -1.74654,1.12893 -4.517649,2.90632 -6.157829,3.949707 -5.62561,3.57867 -15.272588,9.74412 -16.938432,10.82539 l -1.666478,1.08152 -0.0054,2.42 -0.0054,2.42001 0.497174,-0.3365 c 0.464505,-0.31457 3.616206,-2.33063 11.883406,-7.60164 5.69826,-3.63309 14.743319,-9.41651 16.004359,-10.233057 0.65127,-0.42171 1.23779,-0.76673 1.3033,-0.76673 0.0656,0 2.13522,1.287227 4.59939,2.860627 2.46418,1.57338 6.18832,3.95119 8.27583,5.28402 2.0875,1.33283 5.70673,3.63847 8.04275,5.12342 2.33601,1.48496 4.65396,2.9715 5.15098,3.30351 l 0.90366,0.60369 0.0509,-2.22993 c 0.028,-1.22644 0.0123,-2.32687 -0.0346,-2.44532 -0.0469,-0.11846 -1.41174,-1.06272 -3.03297,-2.09843 -1.62124,-1.0357 -5.67232,-3.62899 -9.00238,-5.763 -9.39727,-6.022077 -13.46156,-8.605817 -13.87483,-8.820127 -0.23857,-0.12371 -0.57376,-0.1855 -0.93037,-0.18838 z m -5.07569,13.126367 v 3.7498 3.74961 l -3.840669,0.0102 -3.84067,0.01 -0.0479,4.82168 -0.0481,4.82149 h 3.88883 3.888659 v 3.76548 3.76529 h 4.97017 4.97038 v -3.76529 -3.76548 h 3.79541 3.79541 v -4.72853 c 0,-2.6007 0.0204,-4.77113 0.0452,-4.8232 0.0248,-0.052 -1.66286,-0.11113 -3.75036,-0.13131 l -3.79541,-0.0367 -0.0488,-3.72147 -0.0487,-3.72164 h -4.96667 z m 1.62669,1.56825 3.29843,0.0477 3.29844,0.0477 0.0487,3.72146 0.0488,3.72165 h 3.7919 3.79171 v 3.24663 3.24664 l -3.79561,-0.0507 -3.79561,-0.0504 2e-4,3.72146 2e-4,3.72164 h -3.33998 -3.34016 l -0.0487,-3.69123 -0.0487,-3.69141 -3.840669,0.0199 -3.84067,0.0197 v -3.24607 -3.24625 h 3.88591 3.885929 v -3.76927 z m -20.377899,14.16518 c -0.0561,-6.3e-4 -0.11397,-5.8e-4 -0.17378,5.8e-4 -1.62538,0.0316 -2.76172,1.55863 -2.757573,3.70559 0.0022,1.11935 0.4297,2.43412 0.879073,2.70323 0.33806,0.20245 0.2227,0.40592 -0.297444,0.52451 -1.759944,0.40125 -2.965652,0.86773 -3.296872,1.27576 -0.342451,0.42184 -0.362856,0.7033 -0.360251,4.93335 l 0.0027,4.48611 0.636632,-1.08832 c 0.350144,-0.59858 0.703619,-1.1285 0.785453,-1.1775 0.08183,-0.049 0.197208,2.60789 0.256487,5.90433 0.104213,5.79524 0.428736,10.77742 0.857229,13.1617 0.196817,1.09519 0.231177,1.15068 0.711921,1.15068 0.478196,0 0.515471,-0.0582 0.700995,-1.09456 0.21049,-1.17572 0.64707,-5.57048 0.84377,-8.49382 l 0.12073,-1.79517 h 0.9532 0.95319 l 0.11839,1.53235 c 0.24927,3.22547 0.28847,3.69043 0.47494,5.64793 0.10552,1.1077 0.28912,2.48694 0.40804,3.06488 0.19347,0.9402 0.26611,1.05628 0.69085,1.104 0.45004,0.0506 0.48552,-0.004 0.68169,-1.05072 0.45842,-2.44611 0.77761,-7.19832 0.87127,-12.96917 0.0543,-3.34718 0.16016,-6.08592 0.23504,-6.08592 0.0749,0 0.48259,0.57138 0.90618,1.26972 1.2692,2.0924 3.71671,5.61966 4.2017,6.0553 0.60976,0.54771 0.73348,0.2805 0.49093,-1.06074 -0.59047,-3.26508 -3.46836,-11.9632 -4.42736,-13.38144 -0.35563,-0.52592 -1.11362,-0.85592 -2.82584,-1.2306 l -1.26234,-0.27624 0.35108,-0.37278 c 1.28697,-1.36598 1.32954,-3.88781 0.0927,-5.49282 -0.54044,-0.70129 -0.98118,-0.93861 -1.82271,-0.9502 z m 46.654959,3.20848 c -0.99107,-0.0161 -1.94052,0.74995 -2.61986,2.14187 -0.99802,2.04487 -0.87819,3.25345 0.39126,3.94479 0.39178,0.21337 0.71231,0.41297 0.71231,0.44364 0,0.0307 -0.45655,0.27223 -1.01463,0.53679 l -1.01483,0.48105 -1.32925,2.68227 c -2.56634,5.17862 -4.41191,9.41584 -4.1935,9.62749 0.22396,0.21701 0.67365,-0.21016 1.7172,-1.63116 0.61778,-0.84126 1.50845,-2.19094 1.97933,-2.9995 0.47088,-0.80856 0.89001,-1.37153 0.93154,-1.25081 0.0877,0.25495 -0.16242,1.91068 -0.80379,5.32011 -0.25082,1.33331 -0.40616,2.47245 -0.34523,2.53149 0.0609,0.059 0.62862,0.13932 1.26156,0.17836 l 1.15078,0.0711 0.10317,2.21368 c 0.1699,3.64642 0.45367,7.477 0.57695,7.7883 h 2e-4 c 0.17734,0.44781 0.9546,0.37343 1.06613,-0.10202 0.29468,-1.25634 0.62403,-4.62456 0.87751,-8.97545 0.0362,-0.62047 0.097,-0.70689 0.53287,-0.75596 0.44816,-0.0504 0.49213,-0.003 0.49288,0.52544 0.003,2.38974 0.76643,9.18763 1.06418,9.47615 0.29978,0.29048 0.80573,0.0401 0.94597,-0.46802 0.18056,-0.65419 0.51942,-5.91885 0.51942,-8.07021 v -1.67064 h 0.54222 0.54223 l -6.1e-4,-6.69866 c -6e-4,-6.42227 -0.0158,-6.72283 -0.36747,-7.28174 -0.23592,-0.37496 -0.68556,-0.71867 -1.26019,-0.96324 -0.4914,-0.20915 -0.89534,-0.43292 -0.89761,-0.4973 -0.002,-0.0644 0.2814,-0.2882 0.63058,-0.4973 0.78626,-0.47087 0.99162,-0.82975 0.99162,-1.73187 0,-1.62737 -1.525,-4.014 -2.7562,-4.31343 -0.14262,-0.0347 -0.28499,-0.0529 -0.42657,-0.0552 z m -29.29464,10.39346 c -0.17943,-0.002 -0.358309,0.034 -0.531309,0.11469 -0.64054,0.29873 -1.46476,1.59449 -1.61713,2.54264 -0.10281,0.63983 -0.057,0.79051 0.36338,1.19791 0.29738,0.28817 0.59116,0.42516 0.76964,0.35881 0.24053,-0.0894 0.25044,-0.063 0.0601,0.15927 -0.12564,0.1467 -0.34085,0.2668 -0.47845,0.2668 -0.2275,0 -4.57671,3.65999 -5.37217,4.52088 -0.78098,0.84524 -0.0904,0.68999 1.75562,-0.39471 2.05643,-1.20831 2.28419,-1.29874 2.28419,-0.90675 0,0.456 -0.72826,5.44839 -0.89643,6.14506 -0.0924,0.38257 -0.13585,0.72676 -0.0965,0.76484 0.0393,0.0381 0.42994,0.10842 0.86795,0.15626 l 0.79638,0.0869 0.12171,2.6509 c 0.0669,1.45794 0.17029,3.02511 0.22976,3.48263 0.0842,0.64739 0.18078,0.83192 0.43535,0.83192 0.39733,0 0.48006,-0.45099 0.77414,-4.22309 0.1782,-2.28575 0.255579,-2.69872 0.514729,-2.74708 0.36331,-0.0678 0.39855,0.1163 0.6809,3.555 0.25285,3.07913 0.32999,3.44778 0.70628,3.37757 0.35609,-0.0664 0.4837,-0.96258 0.63059,-4.42829 0.0572,-1.34851 0.10639,-2.47149 0.10941,-2.49559 0.003,-0.0241 0.22947,-0.0448 0.50284,-0.0463 0.96652,-0.005 1.33129,-0.18304 1.19914,-0.58649 -0.26124,-0.79758 -0.9051,-4.86016 -0.78194,-4.93392 0.12788,-0.0766 0.7123,0.66426 0.7123,0.90297 0,0.0665 0.20342,0.37942 0.45194,0.69514 0.24851,0.31571 0.45172,0.61846 0.45172,0.67283 0,0.0543 0.30463,0.50943 0.67681,1.01141 1.42266,1.91883 0.76205,-0.0842 -1.65809,-5.02744 -1.17065,-2.39111 -1.67177,-3.05297 -2.31715,-3.0609 -0.46878,-0.006 -0.38584,-0.2385 0.24654,-0.69154 0.53107,-0.38046 0.55835,-0.45586 0.48293,-1.33716 -0.12417,-1.45099 -1.10618,-2.60134 -2.0751,-2.61519 z m 11.98309,2.18156 c -0.38726,0.007 -0.76351,0.18821 -1.11489,0.5436 -0.47302,0.47842 -0.53091,0.6576 -0.53091,1.64533 0,0.80991 0.0853,1.19968 0.31636,1.44713 0.17395,0.18626 0.31617,0.37963 0.31617,0.42966 0,0.05 -0.34022,0.23949 -0.756,0.42116 -0.70605,0.3085 -0.82326,0.46937 -1.7761,2.43474 -1.66511,3.43453 -2.12525,4.56746 -1.93135,4.75536 0.13978,0.13544 1.09902,-1.29078 1.93799,-2.88141 0.41537,-0.78753 0.81916,-1.39346 0.89741,-1.34661 0.0782,0.0468 0.19864,1.72114 0.2674,3.72071 0.15772,4.58564 0.38995,8.20484 0.54185,8.44299 0.0644,0.10108 0.18508,0.18384 0.26799,0.18384 0.31705,0 0.37357,-0.35681 1.02106,-6.43602 0.0929,-0.8724 0.12442,-0.9196 0.61421,-0.9196 0.58009,0 0.52457,-0.22675 0.91282,3.7294 0.19861,2.02383 0.42743,3.40709 0.58963,3.56425 0.25332,0.24547 0.46756,-0.20923 0.58065,-1.23248 0.0678,-0.61354 0.21645,-3.627 0.33041,-6.69677 0.1774,-4.77939 0.2461,-5.57713 0.47825,-5.55158 0.14911,0.0164 1.22691,0.35128 2.39517,0.74425 2.49592,0.83956 3.04239,0.90215 1.93272,0.22163 -1.70202,-1.04375 -5.54234,-3.0097 -5.8791,-3.0097 -0.34297,0 -0.32444,-0.0998 0.12894,-0.69399 0.31949,-0.41877 0.37027,-0.67589 0.2988,-1.511 -0.0732,-0.85543 -0.1719,-1.08068 -0.65886,-1.50229 -0.39513,-0.34208 -0.79337,-0.5095 -1.18062,-0.5026 z m -35.353183,21.37268 v 2.18911 2.18912 h 28.375583 28.37557 v -2.18912 -2.18911 H 105.3581 Z"
       inkscape:connector-curvature="0" />
    <path
       inkscape:connector-curvature="0"
       id="path12-3"
       style="fill:#000000;stroke-width:1.67265284"
       d="M 106.20326,78.139254 C 87.421,78.170614 76.95986,82.250515 65.9629,93.82515 c -11.16187,11.74818 -14.96931,20.21539 -15.88625,35.33248 -1.35485,22.33639 3.95409,32.84078 30.46579,60.29213 6.97969,7.22706 15.58013,16.39114 19.11185,20.36581 l 6.42035,7.22756 4.059,-4.73565 c 2.23137,-2.60546 10.24414,-11.08746 17.80514,-18.84635 28.0229,-28.75624 33.28743,-37.53428 34.34995,-57.25827 0.5784,-10.74434 0.0199,-15.08373 -2.91181,-22.74125 -4.75243,-12.40384 -16.23828,-24.824467 -28.38746,-30.698134 -8.38629,-4.054494 -11.55066,-4.64652 -24.7862,-4.624222 z m -0.33958,12.439312 c 8.93335,-0.01078 14.88041,0.861223 18.54593,2.719834 29.81842,15.11903 35.46832,51.13873 11.37456,72.52377 -3.95651,3.51174 -9.74319,7.43611 -12.8561,8.71663 -8.19565,3.37132 -27.02413,2.92739 -35.44058,-0.83574 -15.57342,-6.96305 -25.95406,-22.97503 -25.95406,-40.02255 0,-16.67571 7.81725,-29.89408 22.64099,-38.26503 7.41603,-4.187846 10.27381,-4.823477 21.68926,-4.836954 z m 2.61337,26.550004 c -0.004,0.0108 -0.0199,0.0402 -0.0199,0.051 0.0199,-0.003 0.0398,-0.0118 0.0597,-0.0157 -0.01,-0.0118 -0.0299,-0.0225 -0.0398,-0.0353 z m 2.15043,7.3947 c -0.005,0.0157 -0.009,0.0343 -0.01,0.0559 0.0299,-0.003 0.0498,-0.009 0.0697,-0.01 0.003,-0.003 0.007,-0.007 0.01,-0.01 -0.0199,-0.0147 -0.0498,-0.0245 -0.0697,-0.0353 z m 16.64247,6.81225 c 2.7e-4,0.009 -2.6e-4,0.0167 0,0.0255 0.0199,0.007 0.0597,0.05 0.0796,0.0608 -0.0199,-0.0343 -0.0597,-0.0539 -0.0796,-0.0863 z m -36.94269,2.74515 c -0.0129,0.0421 -0.0299,0.0892 -0.0408,0.13173 0.0169,-0.0343 0.0378,-0.0676 0.0567,-0.10125 -0.005,-0.0108 -0.0109,-0.0196 -0.0159,-0.0304 z m 38.53752,2.48686 c -0.008,0.051 -0.0199,0.10143 -0.0299,0.15191 0.0299,0.0196 -5.3e-4,-2.7e-4 0.0398,0.0304 -0.001,-0.0608 -0.009,-0.12183 -0.01,-0.1823 z m -24.87884,1.04335 c 0.0597,-0.05 -0.005,-0.01 -0.0617,0.0206 h -0.005 c -0.008,0.0108 -0.0169,0.0206 -0.0259,0.0304 -0.0139,0.0186 0.0269,-0.008 -0.0358,0.0353 -0.011,0.0108 -0.0199,0.0245 -0.0309,0.0353 0.0169,-0.007 0.0339,-0.0137 0.0518,-0.0206 0.0378,-0.0373 0.0886,-0.0853 0.10802,-0.10125 z m -0.0926,0.0353 c -0.0309,0.0137 -0.0617,0.0304 -0.0926,0.0451 0.0129,-0.003 0.0538,-0.0206 0.0617,-0.0206 0.0169,-0.0108 0.0179,-0.0196 0.0309,-0.0255 z m 15.57249,10.03349 c -7.9e-4,0.0255 -0.002,0.051 -0.005,0.0764 0.0199,-0.0118 -9e-5,0.001 0.0199,-0.01 -0.003,-0.0225 -0.01,-0.0431 -0.01,-0.0657 z m -18.27337,3.16551 c -0.0249,0.003 -0.0468,0.0127 -0.0717,0.0157 -0.005,5.2e-4 -0.01,-5.3e-4 -0.0159,0 0.005,0.007 0.007,0.01 0.01,0.0157 0.0259,-0.0108 0.0508,-0.0206 0.0777,-0.0304 z m 2.58255,6.47796 c 5.3e-4,0.0176 0.004,0.0167 0.005,0.0353 0.0219,0.003 0.0408,0.0167 0.0617,0.0206 -0.003,-0.0186 -0.002,-0.0372 -0.005,-0.0559 -0.0209,-2.7e-4 -0.0408,1.5e-4 -0.0617,0 z m -0.25207,0.005 c -0.0418,0.002 -0.0826,0.0176 -0.12345,0.0206 0.0398,-0.002 0.0787,0.005 0.11827,0.005 0.005,-0.006 -7.9e-4,-0.0186 0.005,-0.0255 z m -1.91891,0.53181 c -0.0368,0.0147 -0.0916,0.0314 -0.12862,0.0451 0.0169,0.0118 0.0348,0.0186 0.0518,0.0304 0.0249,-0.0255 0.0518,-0.05 0.0767,-0.0764 z" />
    <path
       style="fill:#0066b5;fill-opacity:1;stroke-width:1.01015258"
       d="M 197.83817,507.8647 C 175.76381,482.99836 158.51355,464.49132 115.24085,419.24966 16.752814,316.28031 -3.021415,277.83146 1.1083059,197.33127 4.1909863,137.24093 18.425563,104.6009 61.056892,59.86853 93.052003,26.296574 123.47084,9.9471631 165.6688,3.6420884 c 26.95659,-4.02776357 81.99406,-4.05598013 101.37869,-0.051974 21.96157,4.536286 49.87287,18.0534906 72.72628,35.2207146 11.07071,8.316191 31.46642,28.255006 40.95181,40.03441 24.91498,30.940611 39.94542,64.913231 43.61207,98.574361 1.25594,11.53005 0.72273,38.32939 -1.1439,57.49263 -4.95481,50.86725 -22.949,85.44958 -74.37406,142.93658 -15.40768,17.22392 -26.75139,29.25798 -62.94274,66.77324 -32.93838,34.14328 -51.07254,53.55199 -63.79512,68.27894 l -9.75197,11.28832 z m 34.50069,-135.07724 c 22.44647,-1.51835 38.2877,-4.90399 49.41026,-10.5601 15.23599,-7.74791 36.89999,-24.05946 51.605,-38.85516 13.64752,-13.73167 22.94031,-26.41416 31.18767,-42.56388 C 392.84214,225.39141 385.85074,159.55533 346.30072,109.0375 330.10347,88.348515 304.4564,67.694298 281.06386,56.500641 263.69308,48.188484 219.65606,44.240316 181.5771,47.581089 c -16.47788,1.44565 -25.42742,3.956762 -40.65704,11.407772 -42.150017,20.621678 -72.586066,52.244899 -86.67945,90.060399 -11.155544,29.93267 -13.580095,64.20426 -6.765041,95.6254 8.663277,39.94248 33.538146,77.61485 66.675451,100.97834 24.73153,17.43699 46.65514,24.60177 82.83251,27.07022 16.88469,1.15206 19.21091,1.1563 35.35533,0.0642 z"
       id="path75"
       inkscape:connector-curvature="0"
       transform="matrix(0.26458333,0,0,0.26458333,49.883237,78.138663)" />
    <path
       style="fill:#0066b5;fill-opacity:1;stroke-width:1.01015258"
       d="m 103.2533,139.72935 0.29112,-8.71158 51.0127,-32.703677 c 28.05699,-17.987023 52.69922,-33.590031 54.76053,-34.673352 4.5627,-2.39793 6.04148,-2.444198 10.15369,-0.317691 5.19043,2.684074 93.0082,58.97654 94.98813,60.88878 1.49472,1.4436 1.76105,3.11221 1.51523,9.49303 l -0.29825,7.74158 -48.9924,-31.31459 C 239.73823,92.908831 216.74879,78.5667 215.59639,78.260449 214.0428,77.84758 199.21267,86.847257 158.23166,113.07228 l -55.26947,35.36865 z"
       id="path77"
       inkscape:connector-curvature="0"
       transform="matrix(0.26458333,0,0,0.26458333,49.883237,78.138663)" />
    <path
       style="fill:#0066b5;fill-opacity:1;stroke-width:1.01015258"
       d="m 112.71298,301.32976 c -1.4152,-6.68129 -2.62059,-23.6811 -3.24108,-45.70941 -0.36777,-13.05622 -0.99451,-24.64684 -1.39276,-25.75694 -0.65527,-1.82647 -0.92888,-1.68243 -2.87818,1.51523 l -2.15407,3.53359 -0.004,-15.83775 c -0.004,-18.29498 -0.10508,-18.06661 9.17022,-20.79216 5.91104,-1.73695 7.00593,-2.84957 4.88819,-4.96731 -2.00243,-2.00243 -3.05715,-9.30864 -1.94177,-13.45088 1.20384,-4.4707 6.08463,-9.09659 9.59786,-9.09659 3.72917,0 8.19686,4.45666 9.44776,9.42443 1.19029,4.72706 0.40924,9.1939 -2.34172,13.3924 -0.85261,1.30125 -1.5502,2.53684 -1.5502,2.74577 0,0.20893 2.58717,0.95886 5.74928,1.66651 3.64723,0.81621 6.71796,2.25998 8.39873,3.94882 3.02813,3.04268 9.404,20.12733 14.72335,39.4524 3.57937,13.00375 3.97628,15.24403 2.69591,15.21613 -0.90907,-0.0198 -9.49666,-11.96938 -15.41456,-21.44924 -2.3411,-3.75019 -4.59544,-6.81852 -5.00965,-6.81852 -0.41421,0 -1.07305,11.02328 -1.46409,24.49619 -0.65885,22.70016 -1.69884,38.18668 -3.18832,47.47717 -0.63451,3.95766 -2.91814,5.1565 -3.84842,2.02031 -0.85084,-2.86836 -2.51129,-17.19586 -3.19013,-27.52666 -0.85851,-13.06521 -0.8858,-13.13198 -5.36705,-13.13198 h -3.7585 l -1.71581,19.58029 c -0.9437,10.76917 -1.99779,20.31511 -2.34242,21.2132 -0.98633,2.57034 -3.22198,1.90868 -3.8688,-1.145 z"
       id="path79"
       inkscape:connector-curvature="0"
       transform="matrix(0.26458333,0,0,0.26458333,49.883237,78.138663)" />
    <path
       style="fill:#0066b5;fill-opacity:1;stroke-width:1.01015258"
       d="m 184.49392,299.421 c -0.35331,-2.57767 -0.64934,-7.91885 -0.65785,-11.86929 -0.0176,-8.18021 -0.5009,-9.36396 -4.02514,-9.85919 -2.87309,-0.40372 -2.84482,0.50466 -0.47756,-15.34801 0.89962,-6.02444 1.33613,-11.25198 0.97001,-11.61676 -0.36612,-0.36478 -3.79314,1.0414 -7.6156,3.12484 -3.82246,2.08344 -7.25121,3.78807 -7.61945,3.78807 -0.94868,0 6.88521,-7.02374 15.47636,-13.87585 6.45652,-5.14959 7.07169,-5.92633 5.32552,-6.72419 -3.89046,-1.77764 -3.30338,-7.61615 1.25516,-12.48246 2.73331,-2.91783 4.89971,-2.87497 7.74457,0.15325 3.31075,3.52414 3.91954,9.67258 1.2013,12.13255 l -2.1222,1.92057 2.20644,1.1043 c 2.63786,1.32024 6.01881,6.90937 11.85899,19.60444 4.69994,10.21646 4.90997,13.39735 0.38117,5.77253 -4.17811,-7.03436 -5.10736,-8.1857 -5.93707,-7.35599 -0.5751,0.5751 0.57733,11.60715 1.95092,18.67598 0.0826,0.42506 -1.25896,0.9102 -2.98125,1.07808 l -3.13143,0.30523 -0.61489,12.22941 c -0.93554,18.60686 -2.79226,18.02689 -4.28454,-1.33831 -1.08811,-14.1203 -3.77524,-14.92268 -4.94949,-1.47793 -1.0914,12.4962 -1.73429,16.74541 -2.53353,16.74541 -0.42793,0 -1.06713,-2.10901 -1.42044,-4.68668 z"
       id="path81"
       inkscape:connector-curvature="0"
       transform="matrix(0.26458333,0,0,0.26458333,49.883237,78.138663)" />
    <path
       style="fill:#0066b5;fill-opacity:1;stroke-width:1.01015258"
       d="m 228.96908,298.36358 c -0.33816,-3.22996 -0.91256,-13.14576 -1.27644,-22.0351 -0.36389,-8.88934 -1.00419,-16.80467 -1.42289,-17.58961 -0.53649,-1.00575 -1.91131,0.57235 -4.65597,5.34445 -2.14208,3.72439 -4.03066,6.36374 -4.19683,5.86522 -0.16617,-0.49851 1.83272,-5.35312 4.44198,-10.78801 3.35456,-6.98731 5.58224,-10.35832 7.60563,-11.50913 2.92108,-1.66136 3.67295,-3.54006 1.86415,-4.65795 -1.95924,-1.21088 -1.14441,-8.38251 1.20063,-10.56725 2.7764,-2.58661 3.92476,-2.58123 7.24944,0.034 2.95388,2.32352 3.62929,7.49598 1.43716,11.00613 -0.67345,1.07836 -1.01438,2.10016 -0.75762,2.27065 0.25676,0.1705 5.34108,2.77944 11.29848,5.79764 5.9574,3.01821 10.65421,5.66508 10.43735,5.88194 -0.21687,0.21686 -3.64004,-0.65107 -7.60706,-1.92873 -5.59544,-1.80214 -7.38797,-2.03954 -7.99414,-1.05873 -0.42975,0.69536 -1.26516,11.73127 -1.85646,24.52423 -0.9751,21.09657 -1.45299,25.3428 -2.70784,24.06005 -0.22646,-0.23149 -0.92524,-4.96658 -1.55283,-10.52242 -1.71281,-15.1627 -1.90297,-15.82467 -4.4419,-15.46289 -2.01463,0.28706 -2.28209,1.26751 -3.52918,12.93751 -0.74215,6.9448 -1.70294,12.99676 -2.13509,13.4488 -0.43216,0.45204 -1.06242,-1.8208 -1.40057,-5.05076 z"
       id="path83"
       inkscape:connector-curvature="0"
       transform="matrix(0.26458333,0,0,0.26458333,49.883237,78.138663)" />
    <path
       style="fill:#0066b5;fill-opacity:1;stroke-width:1.01015258"
       d="m 292.47266,302.92899 c -0.41421,-1.17087 -2.5551,-30.7545 -2.5551,-35.30741 0,-1.2052 -1.26577,-1.86012 -4.54569,-2.35198 -2.50012,-0.37491 -4.54267,-0.99474 -4.53899,-1.37738 0.004,-0.38265 0.90981,-5.92326 2.01361,-12.31248 2.16395,-12.52577 2.449,-16.17097 1.26269,-16.14736 -0.41669,0.008 -3.03046,3.66786 -5.80837,8.13237 -4.98957,8.01894 -9.59645,13.44617 -9.59645,11.30528 0,-1.5437 2.93993,-8.3062 11.82417,-27.19823 7.1729,-15.25293 7.93689,-16.44753 11.5651,-18.08363 3.50416,-1.58015 5.17163,-3.46529 3.06517,-3.46529 -2.16245,0 -5.23972,-4.34137 -5.21906,-7.36296 0.0467,-6.82502 6.40069,-15.87055 11.14822,-15.87055 2.77204,0 8.09872,5.00716 10.16436,9.55466 2.76776,6.0932 2.43873,9.00428 -1.38096,12.21834 -3.06964,2.58293 -3.15803,2.83132 -1.37991,3.87787 1.0449,0.61499 3.20262,2.18136 4.79494,3.48081 l 2.89514,2.36264 v 25.6691 c 0,24.26474 -0.10184,25.66909 -1.86131,25.66909 -1.70777,0 -1.91615,1.39577 -2.52615,16.92005 -0.36567,9.30603 -0.9448,17.94284 -1.28697,19.1929 -0.96875,3.53922 -3.09745,2.67565 -3.73505,-1.51523 -0.89506,-5.88321 -2.69584,-23.4425 -2.97027,-28.96292 -0.24519,-4.93214 -1.19931,-6.28688 -3.42338,-4.86077 -0.68111,0.43675 -1.64438,6.75768 -2.34508,15.38841 -0.65404,8.05597 -1.50927,16.20422 -1.90051,18.10722 -0.73944,3.59667 -2.83264,5.27657 -3.66015,2.93745 z"
       id="path85"
       inkscape:connector-curvature="0"
       transform="matrix(0.26458333,0,0,0.26458333,49.883237,78.138663)" />
    <path
       style="fill:#0066b5;fill-opacity:1;stroke-width:1.01015258"
       d="m 103.03934,319.25996 v -8.08122 h 106.57109 106.5711 v 8.08122 8.08122 H 209.61043 103.03934 Z"
       id="path87"
       inkscape:connector-curvature="0"
       transform="matrix(0.26458333,0,0,0.26458333,49.883237,78.138663)" />
    <path
       style="fill:#0066b5;fill-opacity:1;stroke-width:1.01015258"
       d="M 195.97337,189.96044 V 175.8183 h -14.79693 -14.79693 l 0.64874,-8.33376 c 0.35681,-4.58356 0.65147,-12.7658 0.6548,-18.18274 l 0.006,-9.84899 h 14.14214 14.14213 v -14.14213 -14.14214 h 18.68783 18.68782 v 14.14214 14.14213 h 12.54429 c 6.89935,0 13.26332,0.27592 14.14213,0.61315 1.37228,0.5266 1.59785,3.09343 1.59785,18.18275 V 175.8183 H 247.4911 233.34897 v 14.14214 14.14213 H 214.6612 195.97337 Z m 32.32488,-6.21805 v -14.29926 l 14.14214,0.64332 14.14214,0.64332 v -13.1131 -13.1131 H 242.58646 228.5904 l -0.64397,-6.81853 c -0.35418,-3.75019 -0.6472,-9.83385 -0.65115,-13.51924 -0.009,-8.04682 0.24375,-7.91252 -14.90693,-7.9327 l -10.35406,-0.0138 v 14.14214 14.14213 h -14.64721 -14.64722 v 13.28189 13.28188 l 14.03371,-0.55555 14.0337,-0.55555 0.72709,14.04271 0.72709,14.04271 h 13.0184 13.0184 z"
       id="path89"
       inkscape:connector-curvature="0"
       transform="matrix(0.26458333,0,0,0.26458333,49.883237,78.138663)" />
    <path
       style="fill:#ffffff;fill-opacity:1;stroke-width:1.01015258"
       d="M 196.78663,371.83871 C 162.68997,369.51052 142.05987,363.02605 118.13234,347.11609 80.342195,321.98856 53.010945,278.66543 46.340918,233.31855 44.038248,217.66361 44.803745,188.87923 47.908661,174.3679 58.793602,123.49537 89.917037,85.315591 141.36585,59.721978 c 21.1115,-10.502081 35.66131,-12.730433 77.27666,-11.835179 44.92254,0.966399 57.89346,4.578574 86.36805,24.051986 28.05381,19.185657 50.44575,45.984575 62.76867,75.122235 25.43711,60.14628 13.38415,124.63884 -32.31879,172.93031 -10.35249,10.93883 -24.31544,22.46232 -38.64482,31.8932 -12.85797,8.46246 -20.73202,12.38714 -29.88864,14.89747 -16.37749,4.48996 -46.56634,6.66639 -70.14035,5.05671 z m 120.85083,-53.02356 v -8.59087 l -107.83378,0.25711 -107.83378,0.25711 -0.29339,8.33376 -0.2934,8.33375 H 209.51029 317.63746 Z M 117.77299,300.63697 c 0.3729,-2.22233 1.18378,-9.72272 1.80195,-16.66751 1.94505,-21.85153 1.79121,-21.21321 5.1126,-21.21321 3.27601,0 2.99045,-1.26782 5.11919,22.72843 1.3621,15.3542 2.44761,19.69798 4.92255,19.69798 1.10674,0 2.10845,-0.94264 2.45067,-2.30615 1.46807,-5.84928 2.75362,-22.18663 3.23645,-41.13041 0.2903,-11.38947 0.76893,-23.0938 1.06363,-26.00963 l 0.53582,-5.30151 8.26129,12.30429 c 4.54372,6.76737 9.53569,13.23743 11.09327,14.37794 l 2.83197,2.07363 7.3296,-3.77312 c 4.03128,-2.07522 7.57694,-3.77313 7.87926,-3.77313 0.30232,0 -0.27779,5.34119 -1.28915,11.8693 -2.34756,15.15321 -2.40333,14.34571 1.03838,15.03405 l 2.94436,0.58887 0.62966,9.73994 c 0.86291,13.34812 1.415,16.30593 3.04358,16.30593 1.59033,0 2.23279,-2.64804 3.06349,-12.62691 0.78818,-9.46806 1.53067,-13.95978 2.19738,-13.29308 0.30273,0.30273 1.11289,6.03739 1.80037,12.74369 0.68747,6.70629 1.55447,12.49779 1.92666,12.86998 1.75542,1.75541 2.99066,-2.53523 3.74404,-13.00502 0.45265,-6.29057 0.84925,-11.77833 0.88131,-12.19501 0.032,-0.41669 1.16789,-0.75762 2.52406,-0.75762 1.35617,0 2.73775,-0.44009 3.07019,-0.97798 0.33244,-0.53788 -0.0872,-4.94019 -0.93245,-9.78289 -0.84527,-4.84271 -1.38659,-8.95519 -1.20292,-9.13887 0.18368,-0.18368 1.98048,2.33363 3.9929,5.59401 2.01242,3.26038 4.4308,6.5629 5.37417,7.33893 1.56812,1.28996 1.65877,1.126 1.05705,-1.91189 -1.02308,-5.16527 -11.30961,-26.07369 -14.29791,-29.06199 -2.4925,-2.4925 -2.56437,-2.80355 -1.0376,-4.49061 3.43589,-3.79662 -1.8015,-15.1474 -6.9892,-15.1474 -3.61613,0 -8.67259,6.5407 -8.67259,11.21827 0,1.24284 0.76421,3.10416 1.69825,4.13625 1.59595,1.7635 1.58074,1.9597 -0.25254,3.25692 -4.3348,3.0673 -10.31591,8.08507 -15.3353,12.86538 l -5.3033,5.05067 v -2.92121 c 0,-5.98709 -9.23126,-36.50905 -14.78476,-48.88388 -2.71185,-6.04282 -4.94821,-7.63756 -13.21025,-9.42019 l -3.24626,-0.70042 1.98357,-3.70091 c 6.59655,-12.30772 -4.78619,-28.00346 -14.67012,-20.22875 -5.49293,4.32073 -7.17044,13.43597 -3.71868,20.20639 l 1.85098,3.63059 -5.79753,1.61185 c -3.18863,0.88652 -6.45,2.26434 -7.24748,3.06182 -1.75333,1.75334 -3.03426,20.29777 -2.09604,30.345 l 0.62454,6.68796 2.26644,-3.75534 2.26645,-3.75535 0.58562,10.54722 c 0.3221,5.80098 0.85159,18.261 1.17666,27.68893 0.5566,16.14274 1.88526,31.0839 3.12956,35.19258 0.35603,1.17562 1.32748,1.71566 2.72567,1.51523 1.66664,-0.23892 2.33035,-1.25225 2.85049,-4.35204 z m 113.40561,3.68249 c 0.3888,-0.62909 3.62636,-23.95599 3.62636,-26.12822 0,-0.6772 3.03361,-0.20669 3.06196,0.47491 0.16681,4.01067 2.99775,24.68717 3.48887,25.48183 1.31271,2.12402 2.43427,0.90556 2.99934,-3.25847 0.32042,-2.36123 1.01415,-13.55795 1.54162,-24.8816 0.52748,-11.32365 1.21582,-20.84524 1.52968,-21.15908 0.31384,-0.31386 4.45682,0.69495 9.20661,2.24178 4.74978,1.54684 8.93722,2.51117 9.30543,2.14297 0.81325,-0.81326 -0.31493,-1.51411 -13.96938,-8.67807 -10.26305,-5.38463 -10.67779,-5.72809 -9.34343,-7.73775 1.97251,-2.97076 0.6647,-8.89137 -2.51684,-11.39396 -3.26896,-2.57138 -5.12094,-2.5266 -8.01668,0.1938 -1.80966,1.70009 -2.33795,3.28442 -2.33795,7.01146 0,2.64828 0.49234,5.11934 1.09408,5.49124 0.65054,0.40205 -0.14698,1.43091 -1.96718,2.53785 -2.24025,1.36237 -4.42399,4.71515 -8.14236,12.50127 -5.35872,11.22098 -6.92651,15.71866 -5.47917,15.71866 0.98269,0 2.41273,-2.0355 7.06309,-10.05346 l 3.19447,-5.50777 0.57078,5.50777 c 0.31393,3.02928 0.84483,12.32631 1.17976,20.66006 0.33495,8.33376 0.85343,16.17507 1.15219,17.42514 0.55462,2.32056 1.80188,2.95788 2.75875,1.40964 z m 65.16716,-1.45571 c 0.4849,-1.2754 1.41032,-8.43485 2.05648,-15.9099 1.47765,-17.09414 1.93842,-20.15699 3.03237,-20.15699 0.48301,0 1.17341,3.52291 1.53422,7.82868 0.7256,8.65887 2.31695,22.19352 3.2068,27.27412 0.62742,3.58235 3.66495,4.61118 4.80933,1.62895 0.6069,-1.58155 2.56563,-26.72154 2.59691,-33.33094 0.0111,-2.34738 0.55694,-3.3069 2.11257,-3.7137 2.06482,-0.53997 2.09243,-0.94796 1.76776,-26.12925 -0.35683,-27.67684 -0.59513,-28.94515 -5.84704,-31.12056 -1.68799,-0.69919 -3.06907,-1.4916 -3.06907,-1.76093 0,-0.26933 1.13642,-1.38359 2.52538,-2.47615 6.97382,-5.48561 -2.19377,-24.38205 -10.97672,-22.62545 -5.31069,1.06213 -9.76809,6.9932 -11.26923,14.99499 -0.61209,3.2627 -0.32173,4.08648 2.3995,6.8077 l 3.09584,3.09585 -3.44065,1.64074 c -3.08701,1.47208 -4.36772,3.62285 -12.45992,20.92451 -9.9343,21.2402 -12.02153,26.46556 -10.98532,27.50177 1.1914,1.19139 4.83442,-2.83599 10.96026,-12.11662 3.24896,-4.92216 5.9072,-8.53275 5.9072,-8.02353 0,0.50923 -0.90914,5.87419 -2.02031,11.92215 -1.11116,6.04797 -2.0203,12.27233 -2.0203,13.83191 0,2.52254 0.36246,2.83732 3.283,2.85108 1.80564,0.008 3.77746,0.34943 4.3818,0.75761 0.64804,0.43769 1.54352,8.0777 2.18282,18.62315 0.59621,9.83455 1.37863,18.35772 1.73873,18.94036 1.13504,1.83653 3.58088,1.15158 4.49759,-1.25955 z M 233.7948,190.53035 v -14.64722 h 14.64721 14.64722 V 157.8182 c 0,-21.26895 1.68129,-19.2758 -16.27768,-19.29692 l -11.73198,-0.0138 -0.64239,-4.68667 c -0.3533,-2.57768 -0.64238,-8.94164 -0.64238,-14.14214 v -9.45546 h -19.1929 -19.19289 v 14.1144 14.1144 l -14.39468,0.28027 -14.39467,0.28028 -0.27533,18.43528 -0.27533,18.43528 h 14.67001 14.67 v 14.64722 14.64721 h 19.19289 19.1929 z m -76.47336,-75.66273 c 29.13976,-18.625401 54.1252,-34.385531 55.52322,-35.022511 2.3634,-1.076832 6.06658,1.089267 52.74555,30.852411 27.61204,17.6058 50.46635,31.74789 50.78737,31.42687 0.32102,-0.32101 0.78278,-4.1072 1.02614,-8.41374 0.40833,-7.22601 0.25908,-7.99705 -1.93474,-9.99463 -2.51821,-2.29296 -90.14417,-58.54187 -95.56454,-61.344853 -3.74535,-1.936797 -6.61988,-2.082801 -9.66209,-0.49076 -3.63994,1.90484 -105.14883,66.730283 -106.38002,67.936243 -0.62591,0.61308 -1.41986,5.3675 -1.76433,10.56536 -0.52509,7.92335 -0.39453,9.36173 0.80788,8.90032 0.7888,-0.30269 25.2758,-15.78931 54.41556,-34.41471 z"
       id="path17"
       inkscape:connector-curvature="0"
       transform="matrix(0.26458333,0,0,0.26458333,49.883237,78.138663)" />
    <path
       style="fill:#ffffff;fill-opacity:1;stroke-width:1.01015258"
       d="m 202.25604,183.20674 -0.28104,-13.8896 -14.39468,0.38023 -14.39467,0.38024 v -12.24953 -12.24952 h 14.64721 14.64721 v -14.1742 -14.17419 l 11.8693,0.2846 11.86929,0.28459 0.28104,13.8896 0.28105,13.8896 h 14.6187 14.61871 v 12.09212 12.09212 l -14.64721,-0.63262 -14.64721,-0.63262 v 14.29939 14.29939 h -12.09333 -12.09332 z"
       id="path19"
       inkscape:connector-curvature="0"
       transform="matrix(0.26458333,0,0,0.26458333,49.883237,78.138663)" />
  </g>
</svg>
