<?xml version="1.0" encoding="UTF-8" standalone="no"?>
<!-- Created with Inkscape (http://www.inkscape.org/) -->

<svg
   xmlns:dc="http://purl.org/dc/elements/1.1/"
   xmlns:cc="http://creativecommons.org/ns#"
   xmlns:rdf="http://www.w3.org/1999/02/22-rdf-syntax-ns#"
   xmlns:svg="http://www.w3.org/2000/svg"
   xmlns="http://www.w3.org/2000/svg"
   xmlns:sodipodi="http://sodipodi.sourceforge.net/DTD/sodipodi-0.dtd"
   xmlns:inkscape="http://www.inkscape.org/namespaces/inkscape"
   width="111.04178mm"
   height="137.52611mm"
   viewBox="0 0 111.04178 137.52611"
   version="1.1"
   id="svg18"
   inkscape:version="0.92.3 (2405546, 2018-03-11)"
   sodipodi:docname="health_post.svg">
  <defs
     id="defs12" />
  <sodipodi:namedview
     id="base"
     pagecolor="#ffffff"
     bordercolor="#666666"
     borderopacity="1.0"
     inkscape:pageopacity="0.0"
     inkscape:pageshadow="2"
     inkscape:zoom="2.8"
     inkscape:cx="331.72696"
     inkscape:cy="299.79758"
     inkscape:document-units="mm"
     inkscape:current-layer="layer1"
     showgrid="false"
     inkscape:window-width="1859"
     inkscape:window-height="1025"
     inkscape:window-x="1981"
     inkscape:window-y="27"
     inkscape:window-maximized="1"
     fit-margin-top="0"
     fit-margin-left="0"
     fit-margin-right="0"
     fit-margin-bottom="0" />
  <metadata
     id="metadata15">
    <rdf:RDF>
      <cc:Work
         rdf:about="">
        <dc:format>image/svg+xml</dc:format>
        <dc:type
           rdf:resource="http://purl.org/dc/dcmitype/StillImage" />
        <dc:title />
      </cc:Work>
    </rdf:RDF>
  </metadata>
  <g
     inkscape:label="Layer 1"
     inkscape:groupmode="layer"
     id="layer1"
     transform="translate(-52.671736,-76.947917)">
    <path
       style="fill:#000000;stroke-width:0.09897752"
       d="m 87.123448,149.67666 c -0.10019,-0.0528 -0.18217,-0.15376 -0.18217,-0.22445 0,-0.10373 -0.43688,-0.1346 -2.26422,-0.16001 l -2.26421,-0.0315 -0.69316,-0.30653 c -0.87916,-0.38879 -1.58807,-1.03009 -2.00172,-1.81083 l -0.32408,-0.61168 v -14.91572 -14.91572 l 0.33047,-0.63057 c 0.54502,-1.03999 1.44884,-1.71827 2.68849,-2.01761 0.291,-0.0703 1.05487,-0.12619 1.73242,-0.12681 l 1.21191,-7.6e-4 0.0717,-0.25826 c 0.13724,-0.49429 0.13869,-0.49458 2.41685,-0.49458 1.26793,0 2.20958,0.0394 2.32955,0.0974 0.12956,0.0627 0.20136,0.1969 0.20136,0.37643 v 0.279 h 2.78682 2.78683 l 0.4723,-2.61142 c 0.55627,-3.07563 0.72754,-3.49652 1.80249,-4.42963 0.79238,-0.68782 1.53358,-1.03601 2.556502,-1.20099 1.13933,-0.18376 11.99879,-0.18199 13.14095,0.002 1.56753,0.2527 2.87865,1.17866 3.56643,2.51877 0.30424,0.59278 0.41338,1.03015 0.79946,3.20382 l 0.44712,2.51732 h 2.78915 2.78915 v -0.27901 c 0,-0.17953 0.0718,-0.31374 0.20136,-0.37642 0.11997,-0.0581 1.06162,-0.0974 2.32955,-0.0974 2.27817,0 2.27961,2.9e-4 2.41685,0.49459 l 0.0717,0.25826 1.21191,7.7e-4 c 0.67755,6.8e-4 1.44142,0.0565 1.73242,0.12681 1.23965,0.29933 2.14347,0.97762 2.68849,2.01761 l 0.33047,0.63057 v 14.91571 14.91571 l -0.32397,0.61802 c -0.40764,0.77765 -1.10932,1.40974 -2.00441,1.8056 l -0.69058,0.30542 -2.26422,0.0315 c -1.83912,0.0255 -2.26421,0.0559 -2.26421,0.16138 0,0.30074 -0.41124,0.32473 -5.56734,0.32473 h -5.1646 l -0.26026,-0.23527 -0.26026,-0.23526 h -9.15151 -9.151502 l -0.26026,0.23526 -0.26026,0.23527 -5.1838,-0.003 c -3.32685,-0.002 -5.24905,-0.0372 -5.36598,-0.0988 z m 22.720242,-6.16932 c 2.90579,-0.53889 5.17667,-1.67777 7.22321,-3.62252 5.55748,-5.28109 4.68072,-13.74945 -1.87069,-18.06852 -5.1973,-3.42636 -12.376,-2.99286 -17.056712,1.03001 -4.79877,4.12433 -5.55251,10.64035 -1.81134,15.65882 0.94351,1.26563 2.94755,2.91208 4.493422,3.69163 1.36374,0.6877 3.40655,1.28084 5.01419,1.45589 1.04854,0.11418 2.98791,0.0438 4.00792,-0.14531 z m -4.50241,-4.84102 c -0.43814,-0.23069 -0.49448,-0.54024 -0.49448,-2.71684 v -2.07499 h -2.29541 c -3.245262,0 -3.222092,0.0161 -3.221832,-2.23034 1.1e-4,-1.13791 0.0335,-1.45275 0.18218,-1.72078 0.29616,-0.53379 0.45248,-0.56302 3.018802,-0.56456 l 2.31626,-0.002 v -2.07499 c 0,-2.93893 -0.0226,-2.91259 2.49844,-2.91259 2.52104,0 2.49845,-0.0263 2.49845,2.91259 v 2.07499 h 2.29541 c 3.21379,0 3.22243,0.006 3.22141,2.18493 -7.6e-4,1.51082 -0.10062,1.89948 -0.55235,2.14846 -0.30245,0.16672 -0.53771,0.183 -2.64821,0.18332 l -2.31626,3.5e-4 v 2.07499 c 0,2.19706 -0.0574,2.50032 -0.51474,2.7216 -0.26251,0.12699 -3.74533,0.12285 -3.98767,-0.005 z m 9.18699,-24.79711 c 0,-0.26847 -0.76135,-4.0591 -0.84295,-4.19695 -0.0587,-0.0991 -0.22394,-0.22041 -0.36732,-0.26969 -0.36563,-0.12566 -11.75467,-0.11935 -12.01512,0.007 -0.10944,0.0529 -0.24518,0.17431 -0.30166,0.26969 -0.0789,0.13326 -0.839,3.92953 -0.839,4.19028 0,0.0302 3.23236,0.0549 7.18302,0.0549 3.95067,0 7.18303,-0.0247 7.18303,-0.0549 z"
       id="path31"
       inkscape:connector-curvature="0" />
    <path
       style="fill:#000000;fill-opacity:1;stroke-width:0.1889881"
       d="m 106.18647,213.12024 c -5.83626,-6.6367 -11.003102,-12.21526 -21.920312,-23.66699 -10.84721,-11.3783 -14.09773,-14.9698 -18.25081,-20.16534 -11.29184,-14.1262 -14.82332,-24.24119 -13.9905,-40.07207 0.80604,-15.32165 3.80326,-23.13701 12.93076,-33.717435 7.63776,-8.85355 14.95464,-14.04972 23.27493,-16.52898 6.44473,-1.92038 12.799582,-2.56007 23.624852,-2.37811 10.48898,0.1763 13.24168,0.76927 20.78869,4.4782 9.32761,4.58398 17.1669,11.58624 23.37847,20.882245 4.39983,6.58466 7.44673,14.60993 8.10795,21.35567 0.43057,4.39275 -0.0324,14.68317 -0.88829,19.74521 -2.11885,12.53119 -8.19478,22.0635 -26.13867,41.00809 -1.62116,1.71157 -5.4989,5.75295 -8.6172,8.98084 -10.19318,10.5514 -14.71205,15.39106 -18.31012,19.60997 -1.13025,1.32528 -2.10778,2.4079 -2.17228,2.40582 -0.0645,-0.002 -0.88237,-0.87378 -1.81747,-1.93712 z m 8.04074,-38.13383 c 8.62526,-0.67271 12.37077,-2.16115 20.02327,-7.95711 12.08787,-9.15532 18.52084,-21.35477 18.52084,-35.12292 0,-13.84681 -6.62095,-26.54029 -18.52084,-35.507625 -2.41038,-1.81637 -5.99534,-4.02169 -8.14247,-5.00891 -4.32692,-1.98945 -10.11269,-2.69326 -20.74072,-2.52298 -8.744782,0.1401 -11.243482,0.63199 -16.413152,3.23108 -14.59937,7.33995 -22.98081,18.386165 -25.11455,33.099365 -0.41257,2.8449 -0.54633,7.75219 -0.2859,10.48884 1.44358,15.16926 10.56679,28.6655 23.97855,35.4722 3.73761,1.89689 7.57526,2.92921 13.172862,3.54344 4.55031,0.49933 9.44779,0.60239 13.52211,0.28462 z"
       id="path32"
       inkscape:connector-curvature="0" />
    <path
       style="fill:#0066b5;fill-opacity:1;stroke-width:2.85714293"
       d="m 377.05132,776.72734 c -17.07822,-18.63571 -50.1223,-54.1416 -73.43127,-78.90191 -64.6461,-68.67137 -90.10228,-105.93292 -100.74097,-147.45976 -3.67231,-14.33444 -4.40725,-27.32384 -3.38309,-59.79359 1.11772,-35.43643 2.43234,-44.76645 9.02161,-64.0278 9.38031,-27.41993 22.6276,-47.96138 48.57589,-75.32256 40.69289,-42.90862 74.12094,-57.16772 140.38142,-59.88127 48.63235,-1.99162 72.04895,1.55459 99.78023,15.11071 43.97795,21.49811 79.23297,55.6921 101.45072,98.39742 15.61645,30.01681 20.17111,49.45082 20.0516,85.5571 -0.28543,86.21603 -17.55477,116.87321 -134.4666,238.70949 -22.6314,23.58469 -49.03205,51.5694 -58.66811,62.18826 l -17.5201,19.30706 z M 471.55425,654.9998 c 29.23081,-13.02186 69.49672,-48.93743 85.35924,-76.137 26.927,-46.17188 28.51528,-101.81112 4.33371,-151.81551 -14.39543,-29.76792 -48.07883,-64.35379 -76.67577,-78.7301 -33.30029,-16.74079 -104.77595,-19.25886 -140.37075,-4.94523 -52.0176,20.91768 -92.35517,68.40359 -102.60652,120.78974 -4.81657,24.61344 -2.05425,65.86982 5.94623,88.80949 13.96417,40.03932 47.44578,77.77064 84.48341,95.20661 24.91371,11.72849 37.13895,13.53777 85.40477,12.63951 33.4065,-0.62168 45.34202,-1.90454 54.12568,-5.81751 z"
       id="path15"
       inkscape:connector-curvature="0"
       transform="scale(0.26458333)" />
    <path
       style="fill:#0066b5;fill-opacity:1;stroke-width:2.85714293"
       d="m 318.86861,562.43229 c -17.21246,-1.63864 -17.15432,-1.41914 -17.15432,-64.76975 0,-49.61552 0.65358,-58.41417 4.5813,-61.67389 2.80855,-2.33089 14.77366,-4.24792 30.9212,-4.95416 l 26.3399,-1.15202 3.31389,-12.39026 c 2.91254,-10.88968 4.61762,-12.75232 14.0788,-15.37974 13.75657,-3.82029 36.31855,-3.82757 50.04275,-0.0161 9.52612,2.64555 11.06228,4.38656 13.93434,15.79258 l 3.22792,12.81924 18.92281,-0.40499 c 19.76236,-0.42298 33.58005,1.90383 39.63709,6.67463 2.647,2.0849 3.57142,17.79241 3.57142,60.68476 0,48.90185 -0.68962,58.44409 -4.44933,61.56437 -3.40639,2.82705 -24.67037,3.74696 -90.71429,3.92446 -47.44572,0.12751 -90.75979,-0.19608 -96.25348,-0.71908 z m 115.90037,-26.32041 c 32.07758,-19.82504 28.91132,-64.46021 -5.68727,-80.17411 -41.08877,-18.66158 -87.74792,17.93094 -71.73404,56.25756 6.07952,14.55033 12.03916,20.88379 25.79519,27.41318 14.50235,6.88364 37.33242,5.33736 51.62612,-3.49663 z m -1.66987,-110.59219 c -0.024,-2.75 -0.98835,-6.45154 -2.14286,-8.22563 -2.86526,-4.40295 -28.41348,-7.23576 -40.67054,-4.50958 -8.06774,1.7944 -10.17468,3.72273 -10.90406,9.97968 l -0.90406,7.75553 h 27.33263 c 24.14299,0 27.32753,-0.58349 27.28889,-5 z"
       id="path17"
       inkscape:connector-curvature="0"
       transform="scale(0.26458333)" />
    <path
       style="fill:#0066b5;fill-opacity:1;stroke-width:2.85714293"
       d="m 398.85714,513.5493 c 0,-7.64305 -0.96428,-8.47876 -10.71428,-9.28571 -8.60633,-0.7123 -10.89392,-2.15154 -11.62729,-7.31533 -0.81849,-5.76312 0.2906,-6.42857 10.71428,-6.42857 11.38357,0 11.62729,-0.20962 11.62729,-10 0,-8.76191 0.88436,-10 7.14286,-10 6.2585,0 7.14286,1.23809 7.14286,10 0,9.49114 0.50028,10 9.83138,10 10.7661,0 13.977,2.76804 11.30078,9.74216 -1.11975,2.91801 -5.21186,4.54355 -11.43785,4.54355 -8.8667,0 -9.69431,0.73175 -9.69431,8.57143 0,7.23809 -1.11111,8.57143 -7.14286,8.57143 -5.99915,0 -7.14286,-1.34483 -7.14286,-8.39896 z"
       id="path19"
       inkscape:connector-curvature="0"
       transform="scale(0.26458333)" />
    <path
       style="fill:#ffffff;fill-opacity:1;stroke-width:2.85714293"
       d="M 356.29895,654.69489 C 331.3955,647.79563 313.11334,636.38006 290.26494,613.46251 249.52131,572.59559 233.16405,517.81936 244.8485,461.3746 c 10.59894,-51.20094 52.07229,-97.07425 106.86579,-118.20331 12.00826,-4.63054 21.11805,-5.45523 57.14285,-5.17307 50.1642,0.3929 60.6387,3.00211 89.75361,22.35766 85.60151,56.90778 102.56879,168.29495 36.98531,242.80175 -15.49059,17.59823 -41.50713,37.32531 -61.71029,46.79191 -15.30807,7.17292 -19.4497,7.75692 -59.31434,8.36369 -30.97648,0.47148 -47.13052,-0.53157 -58.27248,-3.61834 z m 151.03874,-94.09296 c 5.47181,-4.95192 5.80517,-8.57987 5.80517,-63.17813 0,-47.66859 -0.75851,-58.68303 -4.28399,-62.20851 -5.34497,-5.34497 -31.37227,-8.78889 -46.76624,-6.1881 -11.03224,1.86389 -11.66051,1.57303 -13.24652,-6.13255 -3.74258,-18.18329 -7.78417,-22.24136 -24.38157,-24.48104 -21.59891,-2.91459 -50.00793,0.1738 -55.13262,5.99357 -2.26849,2.57617 -5.01263,8.86252 -6.0981,13.96966 -1.08546,5.10714 -3.47855,9.42034 -5.31798,9.58488 -1.83943,0.16454 -13.89823,0.60572 -26.79735,0.98039 -13.88561,0.40332 -25.24957,2.1723 -27.85714,4.33639 -3.70979,3.07885 -4.39731,12.94768 -4.36046,62.59104 0.024,32.41473 1.20049,60.76348 2.61428,62.99723 4.08746,6.4581 21.79863,7.59251 113.67966,7.28126 79.56547,-0.26955 86.79304,-0.70457 92.14286,-5.54609 z"
       id="path21"
       inkscape:connector-curvature="0"
       transform="scale(0.26458333)" />
    <path
       style="fill:#ffffff;fill-opacity:1;stroke-width:2.85714293"
       d="m 382.10878,535.77492 c -30.86581,-15.27814 -33.45351,-56.04379 -4.68609,-73.82303 48.21376,-29.79774 103.17756,26.63627 63.44726,65.14439 -16.23929,15.73974 -38.00228,18.95399 -58.76117,8.67864 z M 416,516.23397 c 0,-7.89116 0.79365,-8.57143 10,-8.57143 9.52381,0 10,-0.47619 10,-10 0,-9.48869 -0.50205,-10 -9.81898,-10 -8.9894,0 -9.89461,-0.78452 -10.71428,-9.28571 -0.79195,-8.21374 -1.88483,-9.28572 -9.46674,-9.28572 -7.54988,0 -8.67669,1.08733 -9.45463,9.12332 -0.79986,8.26247 -1.87822,9.20603 -11.42857,10 -9.6175,0.79954 -10.54537,1.63087 -10.54537,9.44811 0,7.84236 0.91134,8.64686 10.71428,9.45819 9.75001,0.80695 10.71429,1.64266 10.71429,9.28571 0,7.69405 0.83928,8.39896 10,8.39896 9.20635,0 10,-0.68027 10,-8.57143 z"
       id="path23"
       inkscape:connector-curvature="0"
       transform="scale(0.26458333)" />
    <path
       style="fill:#ffffff;fill-opacity:1;stroke-width:0.50507629"
       d="m 378.92903,429.69304 c 0,-1.26415 2.03666,-11.1709 2.54913,-12.39947 0.29155,-0.69897 1.54653,-1.63705 3.13538,-2.34364 2.40679,-1.07036 3.59683,-1.20369 13.00331,-1.45691 19.3155,-0.51997 30.34705,0.65579 32.06046,3.41706 0.80196,1.29241 2.50306,10.10045 2.13563,11.05796 -0.64839,1.68967 -4.28901,1.97053 -28.76652,2.21923 -20.94678,0.21283 -24.11739,0.14786 -24.11739,-0.49423 z"
       id="path25"
       inkscape:connector-curvature="0"
       transform="scale(0.26458333)" />
    <path
       style="fill:#0066b5;fill-opacity:1;stroke-width:0.17857143"
       d="m 180.85788,214.91209 c -0.29464,-0.0351 -1.03624,-0.19227 -1.64799,-0.34919 -1.30752,-0.3354 -2.25895,-1.22638 -2.4937,-2.33527 -0.0792,-0.37416 -0.14402,-2.97047 -0.14402,-5.76958 0,-4.91546 0.0137,-5.1171 0.40133,-5.90366 0.48057,-0.97516 1.16084,-1.64067 2.00938,-1.96578 0.48306,-0.18508 2.62225,-0.25416 9.41964,-0.30418 l 8.79465,-0.0647 v -3.90611 c 0,-5.65873 0.66813,-11.08586 1.61197,-13.0938 0.85579,-1.82061 1.56929,-1.97262 8.74517,-1.8632 4.26212,0.065 5.04027,0.12027 5.89161,0.41852 0.82563,0.28925 1.04765,0.4653 1.40264,1.11224 0.93443,1.70292 0.97927,2.11314 1.0871,9.94569 l 0.10079,7.32143 8.57143,0.0985 c 9.31438,0.10706 9.7648,0.15457 10.95402,1.15522 0.98643,0.83003 1.14138,1.55778 1.23492,5.79984 0.16622,7.53875 -0.45927,9.15409 -3.7395,9.65726 -0.63947,0.0981 -4.53094,0.15178 -8.98515,0.12396 l -7.85715,-0.0491 0.98215,-0.32745 c 0.75755,-0.25257 1.92133,-0.36528 5.08928,-0.49285 4.82639,-0.19437 7.11203,-0.50537 8.945,-1.21711 2.65451,-1.03075 3.77587,-2.28909 4.548,-5.10355 0.95864,-3.49427 -0.12014,-5.91181 -3.14266,-7.04268 -1.94987,-0.72954 -3.44427,-0.91538 -8.74319,-1.08727 -6.93155,-0.22486 -8.01813,-0.51413 -8.91094,-2.37226 -0.60168,-1.25221 -0.82032,-3.09706 -0.82581,-6.96796 -0.008,-5.64867 -0.39316,-7.96483 -1.5345,-9.22815 -1.02253,-1.13182 -1.90442,-1.33929 -5.69304,-1.33929 -3.65576,0 -4.62752,0.2109 -5.57243,1.20936 -1.2708,1.34284 -1.46468,2.40678 -1.65077,9.0585 -0.16491,5.89489 -0.3017,6.79306 -1.19652,7.8565 -0.60022,0.71332 -1.50639,1.16768 -2.83594,1.42196 -0.58618,0.1121 -4.07916,0.27343 -7.7622,0.35849 -5.17215,0.11947 -6.9322,0.21906 -7.73224,0.43751 -2.2715,0.62026 -2.86075,1.28243 -2.95435,3.3199 -0.0765,1.66452 0.38546,4.4299 0.94376,5.64992 0.8449,1.84632 2.4807,2.96268 5.3152,3.62741 1.58692,0.37215 2.92464,0.55318 7.28478,0.98583 2.99469,0.29715 4.73193,0.61376 5.71459,1.04145 0.57117,0.2486 -0.0484,0.27085 -7.23245,0.2597 -4.32143,-0.007 -8.09822,-0.0409 -8.39286,-0.0761 z"
       id="path20"
       inkscape:connector-curvature="0"
       transform="matrix(0.26458333,0,0,0.26458333,52.671736,76.947917)" />
    <path
       style="fill:#0066b5;fill-opacity:1;stroke-width:0.17857143"
       d="m 201.75074,233.44535 c -2.50737,-0.15476 -3.47037,-0.65179 -4.02345,-2.07659 -0.27102,-0.69818 -0.5547,-8.07868 -0.49076,-12.76785 l 0.0499,-3.66072 0.82845,0.80495 c 1.21896,1.1844 1.39446,1.93552 1.58515,6.78434 0.22583,5.74247 0.6337,6.99888 2.58144,7.95182 1.17225,0.57353 3.46025,0.78323 6.48193,0.59408 3.59958,-0.22532 4.79015,-1.39097 5.21589,-5.10674 0.0986,-0.86029 0.17987,-2.63359 0.18068,-3.94067 0.002,-3.75411 0.41094,-5.63062 1.42602,-6.54867 l 0.39114,-0.35374 -0.0756,7.76446 c -0.0521,5.35343 -0.14211,7.97067 -0.28971,8.42855 -0.30449,0.94455 -1.00936,1.70662 -1.77434,1.9183 -0.81375,0.22518 -9.41299,0.37351 -12.08673,0.20848 z"
       id="path22"
       inkscape:connector-curvature="0"
       transform="matrix(0.26458333,0,0,0.26458333,52.671736,76.947917)" />
    <path
       style="fill:#0066b5;fill-opacity:1;stroke-width:0.25253814"
       d="m 151.09068,274.97644 c -1.87509,-0.0318 -7.43906,-0.18841 -12.36437,-0.34807 -7.77717,-0.25211 -8.9948,-0.34457 -9.25679,-0.70286 -0.26074,-0.35658 -1.22173,-0.43459 -7.08106,-0.57484 -7.22655,-0.17297 -11.46277,-0.71685 -13.43992,-1.72551 -2.53678,-1.29417 -4.99422,-3.6296 -6.44406,-6.12412 -1.30041,-2.2374 -1.29008,-1.75027 -1.29008,-60.81468 v -54.6745 l 1.01015,-1.88857 c 1.40204,-2.62122 3.96918,-5.16345 6.43973,-6.37723 2.76099,-1.35647 4.51071,-1.6825 10.06013,-1.87452 4.71314,-0.16309 4.8904,-0.18817 5.09286,-0.72069 0.1958,-0.51498 0.42559,-0.56262 3.45066,-0.7153 1.78249,-0.09 5.87648,-0.23877 9.09774,-0.33067 l 5.85685,-0.1671 0.16202,0.73374 c 0.0891,0.40355 0.1993,0.85887 0.24486,1.01181 0.0568,0.1909 -1.35509,0.3325 -4.50365,0.45168 -13.56766,0.51355 -25.25963,2.18465 -29.64603,4.23722 -3.60474,1.6868 -4.58412,5.12152 -5.42456,19.02415 -0.462,7.64249 -0.46069,80.19655 0.002,86.62058 1.10256,15.32236 3.01062,19.262 10.09833,20.85039 5.77937,1.29518 25.94894,1.59287 96.14567,1.41906 59.92643,-0.14838 74.55175,-0.41349 86.99939,-1.57703 7.76713,-0.72602 10.3078,-1.49649 11.58718,-3.51385 1.42202,-2.24232 2.27567,-6.92434 2.83278,-15.53707 0.41541,-6.42219 0.60335,-66.2814 0.24619,-78.41309 -0.54359,-18.4642 -1.38401,-25.35625 -3.31153,-27.15682 -2.65702,-2.48202 -10.58446,-4.94098 -19.07875,-5.91789 -3.70779,-0.42643 -11.65734,-0.88844 -15.31997,-0.89037 -1.35791,-7.2e-4 -2.46225,-0.10719 -2.46225,-0.2374 0,-0.12985 0.11083,-0.5276 0.24629,-0.88388 l 0.24628,-0.64779 4.61508,0.004 c 4.22069,0.004 8.5724,0.24059 12.01425,0.65413 1.20139,0.14434 1.35234,0.23114 1.47583,0.8486 l 0.13757,0.68781 4.83762,0.15601 c 4.42126,0.14257 5.06429,0.22337 7.4712,0.93879 1.44846,0.43054 3.11352,1.06406 3.70012,1.40783 2.40635,1.41022 4.41227,3.69748 6.00571,6.84806 l 0.6663,1.31743 -0.004,56.26126 -0.004,56.26126 -1.03127,1.89404 c -1.88538,3.46269 -4.41614,5.77843 -8.08576,7.39879 -2.02922,0.89602 -2.63874,0.95895 -11.23467,1.15993 -6.56575,0.15351 -7.77676,0.24016 -8.02077,0.57387 -0.45154,0.61751 -2.64982,0.71297 -22.37501,0.97159 l -18.30344,0.23999 -0.90011,-0.87894 -0.90011,-0.87893 h -34.72694 -34.72694 l -0.85669,0.88388 -0.8567,0.88388 -7.84228,-0.0551 c -4.31325,-0.0303 -9.37644,-0.0811 -11.25154,-0.11292 z"
       id="path24"
       inkscape:connector-curvature="0"
       transform="matrix(0.26458333,0,0,0.26458333,52.671736,76.947917)" />
    <path
       style="fill:#0066b5;fill-opacity:1;stroke-width:0.25253814"
       d="m 247.07232,131.53747 c -2.95137,-11.74215 -3.87828,-14.09833 -6.49522,-16.51053 -3.50835,-3.23389 -14.5932,-5.88494 -27.4284,-6.55977 -3.01451,-0.15849 -1.39173,-0.18648 6.12728,-0.10567 5.62529,0.0605 10.94212,0.22623 11.81518,0.36839 5.49462,0.89464 9.88497,3.56243 12.63903,7.68009 2.08631,3.11928 2.59681,4.95866 4.69999,16.93436 0.51225,2.91682 0.99296,5.559 1.06825,5.87151 0.0753,0.31252 0.0266,0.56821 -0.10823,0.56821 -0.13481,0 -1.17786,-3.71096 -2.31788,-8.24659 z"
       id="path26"
       inkscape:connector-curvature="0"
       transform="matrix(0.26458333,0,0,0.26458333,52.671736,76.947917)" />
    <path
       style="fill:#0066b5;fill-opacity:1;stroke-width:0.25253814"
       d="m 163.97071,138.58451 c 0.001,-0.88678 2.55884,-14.39926 3.16682,-16.73065 0.95508,-3.66245 2.0561,-5.68623 4.1873,-7.6967 2.1088,-1.98933 4.3185,-3.47799 5.98263,-4.03046 0.65099,-0.21612 2.43367,-0.67848 3.96153,-1.02746 2.67632,-0.6113 3.15661,-0.63794 13.13198,-0.72856 5.69474,-0.0517 9.44493,-0.0543 8.33376,-0.006 -11.52066,0.50387 -21.41068,2.34691 -27.05151,5.04114 -1.27178,0.60744 -2.1953,1.28866 -3.15673,2.32851 -2.34545,2.53675 -3.1987,4.7588 -6.30135,16.41016 -1.62079,6.08656 -2.25635,7.90203 -2.25443,6.43972 z"
       id="path28"
       inkscape:connector-curvature="0"
       transform="matrix(0.26458333,0,0,0.26458333,52.671736,76.947917)" />
    <path
       style="fill:#0066b5;fill-opacity:1;stroke-width:0.25253814"
       d="m 190.56934,122.19205 c 0.0368,-0.0368 1.14122,-0.25321 2.45433,-0.48096 3.28202,-0.56925 13.5343,-0.77303 18.5208,-0.36813 9.63505,0.78235 8.87112,0.88902 -6.46584,0.90283 -8.01689,0.007 -14.54607,-0.017 -14.50929,-0.0537 z"
       id="path30"
       inkscape:connector-curvature="0"
       transform="matrix(0.26458333,0,0,0.26458333,52.671736,76.947917)" />
    <path
       style="fill:#0066b5;fill-opacity:1;stroke-width:0.25253814"
       d="m 233.2921,135.86972 c -0.10065,-0.55558 -0.5727,-2.92794 -1.04899,-5.27191 -0.4763,-2.34396 -0.80615,-4.32159 -0.73301,-4.39473 0.20214,-0.20215 1.3281,2.40154 1.7777,4.1108 0.51903,1.97327 0.75108,5.13344 0.43576,5.93465 -0.23881,0.60681 -0.25557,0.59209 -0.43146,-0.37881 z"
       id="path33"
       inkscape:connector-curvature="0"
       transform="matrix(0.26458333,0,0,0.26458333,52.671736,76.947917)" />
    <path
       style="fill:#0066b5;fill-opacity:1;stroke-width:0.06313454"
       d="m 202.3077,252.97874 c -5.41123,-0.29539 -10.60086,-1.28637 -14.93083,-2.85112 -3.53153,-1.2762 -8.91582,-4.07913 -12.43799,-6.47489 -7.27888,-4.95106 -11.73955,-10.83511 -16.30787,-21.51163 -1.97901,-4.62512 -2.92931,-8.28439 -3.43491,-13.22669 -0.10607,-1.03681 -0.10611,-5.37712 -6e-5,-6.40815 0.36484,-3.54695 0.9716,-6.38198 2.01333,-9.40705 l 0.30437,-0.88388 0.52086,-0.0183 c 0.28648,-0.0101 0.52086,-0.005 0.52086,0.0114 0,0.0164 -0.16979,0.53844 -0.37732,1.16019 -1.18112,3.5386 -1.84658,6.9791 -2.09101,10.81074 -0.0927,1.45399 -0.041,4.62276 0.099,6.06092 0.41386,4.25152 1.38554,8.23388 2.95827,12.1242 1.65757,4.10018 4.23995,8.45402 6.92836,11.68102 0.79726,0.95699 3.42313,3.60064 4.64954,4.68104 3.60818,3.17858 7.62126,6.0212 10.90883,7.72714 5.43413,2.81981 13.95793,5.25092 20.23461,5.7712 2.66694,0.22106 7.67028,0.12002 11.17482,-0.22568 3.90715,-0.38541 8.74136,-1.5436 12.9239,-3.09632 6.8309,-2.5359 12.92039,-6.48354 18.29662,-11.86117 4.09926,-4.10032 7.22925,-8.62884 9.46977,-13.70101 1.93247,-4.37481 3.10102,-9.14747 3.43941,-14.04744 0.0818,-1.18429 0.0812,-4.19395 -9.4e-4,-5.36643 -0.26488,-3.77726 -1.09594,-7.86363 -2.24466,-11.03701 -0.11842,-0.32715 -0.21531,-0.61983 -0.21531,-0.65041 0,-0.0306 0.1689,-0.0556 0.37532,-0.0556 H 255.46 l 0.28242,0.8681 c 1.56458,4.80928 2.26643,9.52049 2.16559,14.53673 -0.0514,2.55916 -0.21183,4.28743 -0.61521,6.62913 -1.83992,10.68094 -7.61285,20.3086 -16.4099,27.36716 -4.74393,3.80643 -9.56988,6.41929 -15.37326,8.3234 -4.91782,1.61354 -9.69259,2.54042 -15.37326,2.98426 -1.47511,0.11525 -6.31939,0.16859 -7.82868,0.0862 z"
       id="path35"
       inkscape:connector-curvature="0"
       transform="matrix(0.26458333,0,0,0.26458333,52.671736,76.947917)" />
    <path
       style="fill:#0066b5;fill-opacity:1;stroke-width:0.04464286"
       d="m 254.46578,191.64755 c -0.64939,-1.72313 -1.86018,-4.28041 -2.82568,-5.96801 -1.58604,-2.77225 -3.46546,-5.37945 -5.62582,-7.80431 -0.7467,-0.83813 -2.44751,-2.5532 -3.35392,-3.38206 -5.07673,-4.64234 -11.2477,-8.31155 -17.83482,-10.60445 -0.10018,-0.0349 0.14831,-0.0475 0.98597,-0.0501 l 1.11991,-0.004 0.8667,0.35116 c 1.94511,0.78808 4.41338,1.96389 6.11224,2.91168 6.82274,3.8064 12.44054,8.93048 16.54954,15.09507 1.98562,2.97894 3.52301,5.9934 4.76026,9.33372 l 0.24096,0.65055 -0.39252,0.0142 -0.39251,0.0142 z"
       id="path37"
       inkscape:connector-curvature="0"
       transform="matrix(0.26458333,0,0,0.26458333,52.671736,76.947917)" />
    <path
       style="fill:#0066b5;fill-opacity:1;stroke-width:0.03156727"
       d="m 158.53086,192.20958 c -0.0368,-0.0395 -0.11984,-0.0433 -0.52875,-0.0241 -0.26682,0.0125 -0.48513,0.0164 -0.48513,0.009 0,-0.008 0.0903,-0.24738 0.20069,-0.53257 1.9929,-5.14915 5.0375,-9.9552 9.07715,-14.32873 0.58801,-0.63661 2.18653,-2.22576 2.81243,-2.79594 2.14126,-1.95066 4.05488,-3.45293 6.39237,-5.01828 3.41796,-2.28892 7.04915,-4.17407 10.88972,-5.65346 l 0.44095,-0.16985 0.90065,0.002 c 0.49537,10e-4 0.87935,0.0103 0.85331,0.0199 -0.026,0.01 -0.31015,0.10907 -0.63134,0.22108 -3.02321,1.05429 -6.04816,2.43149 -8.77388,3.99459 -7.35968,4.2205 -13.45366,10.10954 -17.58216,16.9909 -1.39215,2.32043 -2.47305,4.56395 -3.48486,7.23318 -0.0327,0.0863 -0.0431,0.093 -0.0812,0.0521 z"
       id="path39"
       inkscape:connector-curvature="0"
       transform="matrix(0.26458333,0,0,0.26458333,52.671736,76.947917)" />
    <path
       style="fill:#0066b5;fill-opacity:1;stroke-width:0.02232143"
       d="m 224.4806,163.78151 c -0.74647,-0.26279 -2.12879,-0.68715 -3.15764,-0.96937 -6.96027,-1.90922 -14.3471,-2.42734 -21.58843,-1.51423 -3.47056,0.43762 -6.81468,1.18287 -10.17894,2.26841 l -0.43527,0.14045 -0.89123,-0.0112 -0.89124,-0.0112 0.56758,-0.20584 c 4.85129,-1.75938 9.79283,-2.82875 14.87561,-3.21918 1.63326,-0.12545 2.95569,-0.16734 4.7433,-0.15023 1.28969,0.0124 1.70572,0.025 2.68973,0.082 3.1107,0.18009 6.33334,0.64979 9.36384,1.36478 2.29412,0.54125 4.50494,1.21056 6.71875,2.03406 l 0.61384,0.22833 -1.04435,0.0112 c -0.73182,0.008 -1.04911,0.0186 -1.06026,0.036 -0.0109,0.0171 -0.11272,-0.009 -0.32529,-0.084 z"
       id="path41"
       inkscape:connector-curvature="0"
       transform="matrix(0.26458333,0,0,0.26458333,52.671736,76.947917)" />
  </g>
</svg>
