<?xml version="1.0" encoding="UTF-8" standalone="no"?>
<!-- Created with Inkscape (http://www.inkscape.org/) -->

<svg
   xmlns:dc="http://purl.org/dc/elements/1.1/"
   xmlns:cc="http://creativecommons.org/ns#"
   xmlns:rdf="http://www.w3.org/1999/02/22-rdf-syntax-ns#"
   xmlns:svg="http://www.w3.org/2000/svg"
   xmlns="http://www.w3.org/2000/svg"
   xmlns:sodipodi="http://sodipodi.sourceforge.net/DTD/sodipodi-0.dtd"
   xmlns:inkscape="http://www.inkscape.org/namespaces/inkscape"
   width="111.04178mm"
   height="137.52611mm"
   viewBox="0 0 111.04178 137.52611"
   version="1.1"
   id="svg18"
   inkscape:version="0.92.3 (2405546, 2018-03-11)"
   sodipodi:docname="health_post.svg">
  <defs
     id="defs12" />
  <sodipodi:namedview
     id="base"
     pagecolor="#ffffff"
     bordercolor="#666666"
     borderopacity="1.0"
     inkscape:pageopacity="0.0"
     inkscape:pageshadow="2"
     inkscape:zoom="0.49497475"
     inkscape:cx="-15.456766"
     inkscape:cy="335.63616"
     inkscape:document-units="mm"
     inkscape:current-layer="layer1"
     showgrid="false"
     inkscape:window-width="1920"
     inkscape:window-height="1052"
     inkscape:window-x="0"
     inkscape:window-y="0"
     inkscape:window-maximized="1"
     fit-margin-top="0"
     fit-margin-left="0"
     fit-margin-right="0"
     fit-margin-bottom="0" />
  <metadata
     id="metadata15">
    <rdf:RDF>
      <cc:Work
         rdf:about="">
        <dc:format>image/svg+xml</dc:format>
        <dc:type
           rdf:resource="http://purl.org/dc/dcmitype/StillImage" />
        <dc:title />
      </cc:Work>
    </rdf:RDF>
  </metadata>
  <g
     inkscape:label="Layer 1"
     inkscape:groupmode="layer"
     id="layer1"
     transform="translate(-52.671736,-76.947917)">
    <path
       style="fill:#000000;stroke-width:0.09897752"
       d="m 87.123448,149.67666 c -0.10019,-0.0528 -0.18217,-0.15376 -0.18217,-0.22445 0,-0.10373 -0.43688,-0.1346 -2.26422,-0.16001 l -2.26421,-0.0315 -0.69316,-0.30653 c -0.87916,-0.38879 -1.58807,-1.03009 -2.00172,-1.81083 l -0.32408,-0.61168 v -14.91572 -14.91572 l 0.33047,-0.63057 c 0.54502,-1.03999 1.44884,-1.71827 2.68849,-2.01761 0.291,-0.0703 1.05487,-0.12619 1.73242,-0.12681 l 1.21191,-7.6e-4 0.0717,-0.25826 c 0.13724,-0.49429 0.13869,-0.49458 2.41685,-0.49458 1.26793,0 2.20958,0.0394 2.32955,0.0974 0.12956,0.0627 0.20136,0.1969 0.20136,0.37643 v 0.279 h 2.78682 2.78683 l 0.4723,-2.61142 c 0.55627,-3.07563 0.72754,-3.49652 1.80249,-4.42963 0.79238,-0.68782 1.53358,-1.03601 2.556502,-1.20099 1.13933,-0.18376 11.99879,-0.18199 13.14095,0.002 1.56753,0.2527 2.87865,1.17866 3.56643,2.51877 0.30424,0.59278 0.41338,1.03015 0.79946,3.20382 l 0.44712,2.51732 h 2.78915 2.78915 v -0.27901 c 0,-0.17953 0.0718,-0.31374 0.20136,-0.37642 0.11997,-0.0581 1.06162,-0.0974 2.32955,-0.0974 2.27817,0 2.27961,2.9e-4 2.41685,0.49459 l 0.0717,0.25826 1.21191,7.7e-4 c 0.67755,6.8e-4 1.44142,0.0565 1.73242,0.12681 1.23965,0.29933 2.14347,0.97762 2.68849,2.01761 l 0.33047,0.63057 v 14.91571 14.91571 l -0.32397,0.61802 c -0.40764,0.77765 -1.10932,1.40974 -2.00441,1.8056 l -0.69058,0.30542 -2.26422,0.0315 c -1.83912,0.0255 -2.26421,0.0559 -2.26421,0.16138 0,0.30074 -0.41124,0.32473 -5.56734,0.32473 h -5.1646 l -0.26026,-0.23527 -0.26026,-0.23526 h -9.15151 -9.151502 l -0.26026,0.23526 -0.26026,0.23527 -5.1838,-0.003 c -3.32685,-0.002 -5.24905,-0.0372 -5.36598,-0.0988 z m 22.720242,-6.16932 c 2.90579,-0.53889 5.17667,-1.67777 7.22321,-3.62252 5.55748,-5.28109 4.68072,-13.74945 -1.87069,-18.06852 -5.1973,-3.42636 -12.376,-2.99286 -17.056712,1.03001 -4.79877,4.12433 -5.55251,10.64035 -1.81134,15.65882 0.94351,1.26563 2.94755,2.91208 4.493422,3.69163 1.36374,0.6877 3.40655,1.28084 5.01419,1.45589 1.04854,0.11418 2.98791,0.0438 4.00792,-0.14531 z m -4.50241,-4.84102 c -0.43814,-0.23069 -0.49448,-0.54024 -0.49448,-2.71684 v -2.07499 h -2.29541 c -3.245262,0 -3.222092,0.0161 -3.221832,-2.23034 1.1e-4,-1.13791 0.0335,-1.45275 0.18218,-1.72078 0.29616,-0.53379 0.45248,-0.56302 3.018802,-0.56456 l 2.31626,-0.002 v -2.07499 c 0,-2.93893 -0.0226,-2.91259 2.49844,-2.91259 2.52104,0 2.49845,-0.0263 2.49845,2.91259 v 2.07499 h 2.29541 c 3.21379,0 3.22243,0.006 3.22141,2.18493 -7.6e-4,1.51082 -0.10062,1.89948 -0.55235,2.14846 -0.30245,0.16672 -0.53771,0.183 -2.64821,0.18332 l -2.31626,3.5e-4 v 2.07499 c 0,2.19706 -0.0574,2.50032 -0.51474,2.7216 -0.26251,0.12699 -3.74533,0.12285 -3.98767,-0.005 z m 9.18699,-24.79711 c 0,-0.26847 -0.76135,-4.0591 -0.84295,-4.19695 -0.0587,-0.0991 -0.22394,-0.22041 -0.36732,-0.26969 -0.36563,-0.12566 -11.75467,-0.11935 -12.01512,0.007 -0.10944,0.0529 -0.24518,0.17431 -0.30166,0.26969 -0.0789,0.13326 -0.839,3.92953 -0.839,4.19028 0,0.0302 3.23236,0.0549 7.18302,0.0549 3.95067,0 7.18303,-0.0247 7.18303,-0.0549 z"
       id="path31"
       inkscape:connector-curvature="0" />
    <path
       style="fill:#000000;fill-opacity:1;stroke-width:0.1889881"
       d="m 106.18647,213.12024 c -5.83626,-6.6367 -11.003102,-12.21526 -21.920312,-23.66699 -10.84721,-11.3783 -14.09773,-14.9698 -18.25081,-20.16534 -11.29184,-14.1262 -14.82332,-24.24119 -13.9905,-40.07207 0.80604,-15.32165 3.80326,-23.13701 12.93076,-33.717435 7.63776,-8.85355 14.95464,-14.04972 23.27493,-16.52898 6.44473,-1.92038 12.799582,-2.56007 23.624852,-2.37811 10.48898,0.1763 13.24168,0.76927 20.78869,4.4782 9.32761,4.58398 17.1669,11.58624 23.37847,20.882245 4.39983,6.58466 7.44673,14.60993 8.10795,21.35567 0.43057,4.39275 -0.0324,14.68317 -0.88829,19.74521 -2.11885,12.53119 -8.19478,22.0635 -26.13867,41.00809 -1.62116,1.71157 -5.4989,5.75295 -8.6172,8.98084 -10.19318,10.5514 -14.71205,15.39106 -18.31012,19.60997 -1.13025,1.32528 -2.10778,2.4079 -2.17228,2.40582 -0.0645,-0.002 -0.88237,-0.87378 -1.81747,-1.93712 z m 8.04074,-38.13383 c 8.62526,-0.67271 12.37077,-2.16115 20.02327,-7.95711 12.08787,-9.15532 18.52084,-21.35477 18.52084,-35.12292 0,-13.84681 -6.62095,-26.54029 -18.52084,-35.507625 -2.41038,-1.81637 -5.99534,-4.02169 -8.14247,-5.00891 -4.32692,-1.98945 -10.11269,-2.69326 -20.74072,-2.52298 -8.744782,0.1401 -11.243482,0.63199 -16.413152,3.23108 -14.59937,7.33995 -22.98081,18.386165 -25.11455,33.099365 -0.41257,2.8449 -0.54633,7.75219 -0.2859,10.48884 1.44358,15.16926 10.56679,28.6655 23.97855,35.4722 3.73761,1.89689 7.57526,2.92921 13.172862,3.54344 4.55031,0.49933 9.44779,0.60239 13.52211,0.28462 z"
       id="path32"
       inkscape:connector-curvature="0" />
    <path
       style="fill:#000000;fill-opacity:1;stroke-width:2.85714293"
       d="m 377.05132,776.72734 c -17.07822,-18.63571 -50.1223,-54.1416 -73.43127,-78.90191 -64.6461,-68.67137 -90.10228,-105.93292 -100.74097,-147.45976 -3.67231,-14.33444 -4.40725,-27.32384 -3.38309,-59.79359 1.11772,-35.43643 2.43234,-44.76645 9.02161,-64.0278 9.38031,-27.41993 22.6276,-47.96138 48.57589,-75.32256 40.69289,-42.90862 74.12094,-57.16772 140.38142,-59.88127 48.63235,-1.99162 72.04895,1.55459 99.78023,15.11071 43.97795,21.49811 79.23297,55.6921 101.45072,98.39742 15.61645,30.01681 20.17111,49.45082 20.0516,85.5571 -0.28543,86.21603 -17.55477,116.87321 -134.4666,238.70949 -22.6314,23.58469 -49.03205,51.5694 -58.66811,62.18826 l -17.5201,19.30706 z M 471.55425,654.9998 c 29.23081,-13.02186 69.49672,-48.93743 85.35924,-76.137 26.927,-46.17188 28.51528,-101.81112 4.33371,-151.81551 -14.39543,-29.76792 -48.07883,-64.35379 -76.67577,-78.7301 -33.30029,-16.74079 -104.77595,-19.25886 -140.37075,-4.94523 -52.0176,20.91768 -92.35517,68.40359 -102.60652,120.78974 -4.81657,24.61344 -2.05425,65.86982 5.94623,88.80949 13.96417,40.03932 47.44578,77.77064 84.48341,95.20661 24.91371,11.72849 37.13895,13.53777 85.40477,12.63951 33.4065,-0.62168 45.34202,-1.90454 54.12568,-5.81751 z"
       id="path15"
       inkscape:connector-curvature="0"
       transform="scale(0.26458333)" />
    <path
       style="fill:#000000;fill-opacity:1;stroke-width:2.85714293"
       d="m 318.86861,562.43229 c -17.21246,-1.63864 -17.15432,-1.41914 -17.15432,-64.76975 0,-49.61552 0.65358,-58.41417 4.5813,-61.67389 2.80855,-2.33089 14.77366,-4.24792 30.9212,-4.95416 l 26.3399,-1.15202 3.31389,-12.39026 c 2.91254,-10.88968 4.61762,-12.75232 14.0788,-15.37974 13.75657,-3.82029 36.31855,-3.82757 50.04275,-0.0161 9.52612,2.64555 11.06228,4.38656 13.93434,15.79258 l 3.22792,12.81924 18.92281,-0.40499 c 19.76236,-0.42298 33.58005,1.90383 39.63709,6.67463 2.647,2.0849 3.57142,17.79241 3.57142,60.68476 0,48.90185 -0.68962,58.44409 -4.44933,61.56437 -3.40639,2.82705 -24.67037,3.74696 -90.71429,3.92446 -47.44572,0.12751 -90.75979,-0.19608 -96.25348,-0.71908 z m 115.90037,-26.32041 c 32.07758,-19.82504 28.91132,-64.46021 -5.68727,-80.17411 -41.08877,-18.66158 -87.74792,17.93094 -71.73404,56.25756 6.07952,14.55033 12.03916,20.88379 25.79519,27.41318 14.50235,6.88364 37.33242,5.33736 51.62612,-3.49663 z m -1.66987,-110.59219 c -0.024,-2.75 -0.98835,-6.45154 -2.14286,-8.22563 -2.86526,-4.40295 -28.41348,-7.23576 -40.67054,-4.50958 -8.06774,1.7944 -10.17468,3.72273 -10.90406,9.97968 l -0.90406,7.75553 h 27.33263 c 24.14299,0 27.32753,-0.58349 27.28889,-5 z"
       id="path17"
       inkscape:connector-curvature="0"
       transform="scale(0.26458333)" />
    <path
       style="fill:#000000;fill-opacity:1;stroke-width:2.85714293"
       d="m 398.85714,513.5493 c 0,-7.64305 -0.96428,-8.47876 -10.71428,-9.28571 -8.60633,-0.7123 -10.89392,-2.15154 -11.62729,-7.31533 -0.81849,-5.76312 0.2906,-6.42857 10.71428,-6.42857 11.38357,0 11.62729,-0.20962 11.62729,-10 0,-8.76191 0.88436,-10 7.14286,-10 6.2585,0 7.14286,1.23809 7.14286,10 0,9.49114 0.50028,10 9.83138,10 10.7661,0 13.977,2.76804 11.30078,9.74216 -1.11975,2.91801 -5.21186,4.54355 -11.43785,4.54355 -8.8667,0 -9.69431,0.73175 -9.69431,8.57143 0,7.23809 -1.11111,8.57143 -7.14286,8.57143 -5.99915,0 -7.14286,-1.34483 -7.14286,-8.39896 z"
       id="path19"
       inkscape:connector-curvature="0"
       transform="scale(0.26458333)" />
    <path
       style="fill:#ffffff;fill-opacity:1;stroke-width:2.85714293"
       d="M 356.29895,654.69489 C 331.3955,647.79563 313.11334,636.38006 290.26494,613.46251 249.52131,572.59559 233.16405,517.81936 244.8485,461.3746 c 10.59894,-51.20094 52.07229,-97.07425 106.86579,-118.20331 12.00826,-4.63054 21.11805,-5.45523 57.14285,-5.17307 50.1642,0.3929 60.6387,3.00211 89.75361,22.35766 85.60151,56.90778 102.56879,168.29495 36.98531,242.80175 -15.49059,17.59823 -41.50713,37.32531 -61.71029,46.79191 -15.30807,7.17292 -19.4497,7.75692 -59.31434,8.36369 -30.97648,0.47148 -47.13052,-0.53157 -58.27248,-3.61834 z m 151.03874,-94.09296 c 5.47181,-4.95192 5.80517,-8.57987 5.80517,-63.17813 0,-47.66859 -0.75851,-58.68303 -4.28399,-62.20851 -5.34497,-5.34497 -31.37227,-8.78889 -46.76624,-6.1881 -11.03224,1.86389 -11.66051,1.57303 -13.24652,-6.13255 -3.74258,-18.18329 -7.78417,-22.24136 -24.38157,-24.48104 -21.59891,-2.91459 -50.00793,0.1738 -55.13262,5.99357 -2.26849,2.57617 -5.01263,8.86252 -6.0981,13.96966 -1.08546,5.10714 -3.47855,9.42034 -5.31798,9.58488 -1.83943,0.16454 -13.89823,0.60572 -26.79735,0.98039 -13.88561,0.40332 -25.24957,2.1723 -27.85714,4.33639 -3.70979,3.07885 -4.39731,12.94768 -4.36046,62.59104 0.024,32.41473 1.20049,60.76348 2.61428,62.99723 4.08746,6.4581 21.79863,7.59251 113.67966,7.28126 79.56547,-0.26955 86.79304,-0.70457 92.14286,-5.54609 z"
       id="path21"
       inkscape:connector-curvature="0"
       transform="scale(0.26458333)" />
    <path
       style="fill:#ffffff;fill-opacity:1;stroke-width:2.85714293"
       d="m 382.10878,535.77492 c -30.86581,-15.27814 -33.45351,-56.04379 -4.68609,-73.82303 48.21376,-29.79774 103.17756,26.63627 63.44726,65.14439 -16.23929,15.73974 -38.00228,18.95399 -58.76117,8.67864 z M 416,516.23397 c 0,-7.89116 0.79365,-8.57143 10,-8.57143 9.52381,0 10,-0.47619 10,-10 0,-9.48869 -0.50205,-10 -9.81898,-10 -8.9894,0 -9.89461,-0.78452 -10.71428,-9.28571 -0.79195,-8.21374 -1.88483,-9.28572 -9.46674,-9.28572 -7.54988,0 -8.67669,1.08733 -9.45463,9.12332 -0.79986,8.26247 -1.87822,9.20603 -11.42857,10 -9.6175,0.79954 -10.54537,1.63087 -10.54537,9.44811 0,7.84236 0.91134,8.64686 10.71428,9.45819 9.75001,0.80695 10.71429,1.64266 10.71429,9.28571 0,7.69405 0.83928,8.39896 10,8.39896 9.20635,0 10,-0.68027 10,-8.57143 z"
       id="path23"
       inkscape:connector-curvature="0"
       transform="scale(0.26458333)" />
    <path
       style="fill:#ffffff;fill-opacity:1;stroke-width:0.50507629"
       d="m 378.92903,429.69304 c 0,-1.26415 2.03666,-11.1709 2.54913,-12.39947 0.29155,-0.69897 1.54653,-1.63705 3.13538,-2.34364 2.40679,-1.07036 3.59683,-1.20369 13.00331,-1.45691 19.3155,-0.51997 30.34705,0.65579 32.06046,3.41706 0.80196,1.29241 2.50306,10.10045 2.13563,11.05796 -0.64839,1.68967 -4.28901,1.97053 -28.76652,2.21923 -20.94678,0.21283 -24.11739,0.14786 -24.11739,-0.49423 z"
       id="path25"
       inkscape:connector-curvature="0"
       transform="scale(0.26458333)" />
  </g>
</svg>
