<?xml version="1.0" encoding="UTF-8" standalone="no"?>
<!-- Created with Inkscape (http://www.inkscape.org/) -->

<svg
   xmlns:dc="http://purl.org/dc/elements/1.1/"
   xmlns:cc="http://creativecommons.org/ns#"
   xmlns:rdf="http://www.w3.org/1999/02/22-rdf-syntax-ns#"
   xmlns:svg="http://www.w3.org/2000/svg"
   xmlns="http://www.w3.org/2000/svg"
   xmlns:sodipodi="http://sodipodi.sourceforge.net/DTD/sodipodi-0.dtd"
   xmlns:inkscape="http://www.inkscape.org/namespaces/inkscape"
   width="112.60918mm"
   height="138.90446mm"
   viewBox="0 0 112.60918 138.90446"
   version="1.1"
   id="svg29"
   inkscape:version="0.92.3 (2405546, 2018-03-11)"
   sodipodi:docname="hospital.svg">
  <defs
     id="defs23" />
  <sodipodi:namedview
     id="base"
     pagecolor="#ffffff"
     bordercolor="#666666"
     borderopacity="1.0"
     inkscape:pageopacity="0.0"
     inkscape:pageshadow="2"
     inkscape:zoom="0.98994949"
     inkscape:cx="209.82574"
     inkscape:cy="337.84962"
     inkscape:document-units="mm"
     inkscape:current-layer="layer1"
     showgrid="false"
     inkscape:window-width="1920"
     inkscape:window-height="1052"
     inkscape:window-x="0"
     inkscape:window-y="0"
     inkscape:window-maximized="1"
     fit-margin-top="0"
     fit-margin-left="0"
     fit-margin-right="0"
     fit-margin-bottom="0" />
  <metadata
     id="metadata26">
    <rdf:RDF>
      <cc:Work
         rdf:about="">
        <dc:format>image/svg+xml</dc:format>
        <dc:type
           rdf:resource="http://purl.org/dc/dcmitype/StillImage" />
        <dc:title />
      </cc:Work>
    </rdf:RDF>
  </metadata>
  <g
     inkscape:label="Layer 1"
     inkscape:groupmode="layer"
     id="layer1"
     transform="translate(-38.676346,-72.066652)">
    <path
       id="path12"
       style="fill:#000000;stroke-width:0.18124235"
       d="m 109.90144,98.351206 -15.334307,0.04281 c -15.1887,0.0427 -15.339864,0.04601 -15.921774,0.373015 -0.323118,0.181605 -0.798198,0.56498 -1.055759,0.851952 l -0.468413,0.521897 v 21.04692 21.04705 h -1.122058 c -1.049433,0 -1.131442,-0.0281 -1.265229,-0.43229 -0.07867,-0.23771 -0.141123,-7.62422 -0.138669,-16.41438 l 0.0045,-15.98199 h -5.919607 -5.919696 v 3.06072 c 0,2.57511 0.04966,3.07527 0.312351,3.15169 0.462875,0.13469 0.462875,3.73078 0,3.73078 -0.455307,0 -0.455307,2.29212 0,2.42461 0.459416,0.13369 0.459416,3.54006 0,3.67374 -0.243198,0.0708 -0.312351,0.38358 -0.312351,1.41548 0,1.07224 0.0596,1.32467 0.312351,1.32467 0.259409,0 0.312145,0.30686 0.312145,1.81501 0,1.50815 -0.05274,1.81517 -0.312145,1.81517 -0.273258,0 -0.312351,0.96451 -0.312351,7.73367 v 7.73367 h 32.780169 32.780083 v -7.73367 c 0,-6.84034 -0.0367,-7.73367 -0.31881,-7.73367 -0.27149,0 -0.31005,-0.27492 -0.26011,-1.85458 0.0437,-1.38095 0.12501,-1.84441 0.31877,-1.81501 0.19183,0.0291 0.26015,-0.31309 0.26015,-1.30215 0,-1.08728 -0.0592,-1.34143 -0.31214,-1.34143 -0.4629,0 -0.4629,-3.59621 0,-3.7309 0.45528,-0.1325 0.45528,-2.42448 0,-2.42448 -0.25947,0 -0.31215,-0.30748 -0.31215,-1.82004 0,-1.47219 0.0596,-1.83738 0.31215,-1.91087 0.26263,-0.0763 0.31214,-0.57658 0.31214,-3.15169 v -3.06072 h -6.55612 -6.55593 l -0.0246,15.90139 c -0.0142,8.74575 -0.0842,16.11443 -0.15725,16.37485 -0.12659,0.45198 -0.18701,0.4757 -1.32821,0.52087 l -1.19559,0.0472 v -21.0412 c 0,-23.814663 0.15145,-21.786447 -1.68046,-22.499561 z m -15.04386,1.039341 c 1.193218,0.0035 2.403037,0.149329 3.596728,0.44354 5.892552,1.452323 9.324092,6.082613 7.900992,10.660793 -0.8764,2.81946 -3.89649,5.36316 -7.553033,6.36159 -1.583893,0.43247 -5.478044,0.54301 -7.088672,0.20117 -3.08723,-0.6552 -5.85722,-2.39582 -7.359381,-4.62451 -1.526854,-2.26531 -1.775703,-4.46914 -0.764917,-6.77253 0.668921,-1.52434 1.376297,-2.37888 2.989282,-3.61092 2.288415,-1.74794 5.229654,-2.668192 8.279001,-2.659133 z m -2.737179,3.386793 -0.059,1.69681 -0.059,1.69665 -2.237264,0.0446 -2.237461,0.045 v 2.12523 2.12536 h 2.289488 2.289308 v 1.7362 1.73607 h 2.809708 2.809752 v -1.73607 -1.7362 h 2.185426 2.185262 v -2.13071 -2.13068 h -2.185262 -2.185426 v -1.73609 -1.73622 h -2.802693 z m -21.4511,12.77431 v 1.89902 1.89886 h -2.399983 c -1.793686,0 -2.426574,-0.0525 -2.505216,-0.20799 -0.05789,-0.11437 -0.07844,-0.94881 -0.04557,-1.85443 l 0.0596,-1.64659 2.445562,-0.0443 z m 54.529419,0 v 1.89902 1.89886 h -2.50422 -2.50403 l 0.0587,-1.85457 0.0587,-1.85444 2.44537,-0.0443 z m -54.529419,6.15539 v 1.899 1.89888 h -2.399983 c -1.793686,0 -2.426574,-0.0525 -2.505216,-0.208 -0.05789,-0.11436 -0.07844,-0.94881 -0.04557,-1.85442 l 0.0596,-1.64658 2.445562,-0.0444 z m 49.638509,0.0889 h 2.44537 c 1.34502,0 2.44554,0.0533 2.44554,0.1183 v 1.85456 1.73609 h -2.50422 -2.50403 l 0.0587,-1.85444 z m -54.633688,6.3921 h 2.49759 2.497589 v 1.80552 1.8054 l -2.41172,0.0491 c -1.326392,0.0271 -2.45014,0.0194 -2.497396,-0.0167 -0.04727,-0.0362 -0.08598,-0.87061 -0.08598,-1.85443 z m 54.529438,0 h 2.49759 2.49757 v 1.81501 1.81517 h -2.49757 -2.49759 v -1.81517 z m -32.051509,0.47346 h 7.076151 7.076378 v 6.70779 6.7078 h -7.076378 -7.076151 v -6.7078 z"
       inkscape:connector-curvature="0" />
    <path
       inkscape:connector-curvature="0"
       id="path12-3-3"
       style="fill:#000000;stroke-width:1.67265284"
       d="m 94.996377,72.067243 c -18.782268,0.0314 -29.243408,4.11126 -40.240368,15.68589 -11.16187,11.748191 -14.96931,20.215407 -15.88625,35.332487 -1.35485,22.33639 3.95409,32.84077 30.46579,60.29212 6.97969,7.22706 15.58013,16.39114 19.11185,20.36581 l 6.420358,7.22756 4.059,-4.73565 C 101.15813,203.63 109.1709,195.148 116.7319,187.38911 c 28.0229,-28.75624 33.28743,-37.53428 34.34995,-57.25826 0.5784,-10.74433 0.0199,-15.08373 -2.91181,-22.74124 -4.75242,-12.403857 -16.23828,-24.824477 -28.38746,-30.698147 -8.38629,-4.05449 -11.55066,-4.64652 -24.786203,-4.62422 z m -0.33958,12.43931 c 8.933353,-0.0108 14.880413,0.86123 18.545933,2.71983 29.81843,15.119047 35.46832,51.138737 11.37456,72.523767 -3.95651,3.51174 -9.74319,7.43611 -12.8561,8.71663 -8.19565,3.37132 -27.024141,2.92739 -35.440591,-0.83574 -15.57342,-6.96305 -25.95406,-22.97502 -25.95406,-40.02254 0,-16.6757 7.81725,-29.894077 22.64099,-38.265037 7.41603,-4.18784 10.27381,-4.82347 21.689268,-4.83695 z m 2.61337,26.550007 c -0.004,0.0108 -0.0199,0.0402 -0.0199,0.051 0.0199,-0.003 0.0398,-0.0118 0.0597,-0.0157 -0.01,-0.0118 -0.0299,-0.0225 -0.0398,-0.0353 z m 2.15043,7.3947 c -0.005,0.0157 -0.009,0.0343 -0.01,0.0559 0.0299,-0.003 0.0498,-0.009 0.0697,-0.01 0.003,-0.003 0.007,-0.007 0.01,-0.01 -0.0199,-0.0147 -0.0498,-0.0245 -0.0697,-0.0353 z m 16.642473,6.81224 c 2.6e-4,0.009 -2.6e-4,0.0167 0,0.0255 0.0199,0.007 0.0597,0.05 0.0796,0.0608 -0.0199,-0.0343 -0.0597,-0.0539 -0.0796,-0.0863 z m -36.942701,2.74515 c -0.0129,0.0421 -0.0299,0.0892 -0.0408,0.13174 0.0169,-0.0343 0.0378,-0.0676 0.0567,-0.10126 -0.005,-0.0108 -0.0109,-0.0196 -0.0159,-0.0304 z m 38.537531,2.48687 c -0.008,0.051 -0.0199,0.10143 -0.0299,0.15191 0.0299,0.0196 -5.3e-4,-2.7e-4 0.0398,0.0304 -0.001,-0.0608 -0.009,-0.12183 -0.01,-0.1823 z m -24.878853,1.04335 c 0.0597,-0.05 -0.005,-0.01 -0.0617,0.0206 h -0.005 c -0.008,0.0108 -0.0169,0.0206 -0.0259,0.0304 -0.0139,0.0186 0.0269,-0.008 -0.0358,0.0353 -0.011,0.0108 -0.0199,0.0245 -0.0309,0.0353 0.0169,-0.007 0.0339,-0.0137 0.0518,-0.0206 0.0378,-0.0373 0.0886,-0.0853 0.10802,-0.10125 z m -0.0926,0.0353 c -0.0309,0.0137 -0.0617,0.0304 -0.0926,0.0451 0.0129,-0.003 0.0538,-0.0206 0.0617,-0.0206 0.0169,-0.0108 0.0179,-0.0196 0.0309,-0.0255 z m 15.572503,10.03348 c -8e-4,0.0255 -0.002,0.051 -0.005,0.0764 0.0199,-0.0118 -9e-5,10e-4 0.0199,-0.01 -0.003,-0.0225 -0.01,-0.0431 -0.01,-0.0657 z m -18.273381,3.16551 c -0.0249,0.003 -0.0468,0.0127 -0.0717,0.0157 -0.005,5.3e-4 -0.01,-5.2e-4 -0.0159,0 0.005,0.007 0.007,0.01 0.01,0.0157 0.0259,-0.0108 0.0508,-0.0206 0.0777,-0.0304 z m 2.582548,6.47797 c 5.3e-4,0.0176 0.004,0.0167 0.005,0.0353 0.0219,0.003 0.0408,0.0167 0.0617,0.0206 -0.003,-0.0186 -0.002,-0.0372 -0.005,-0.0559 -0.0209,-2.6e-4 -0.0408,1.5e-4 -0.0617,0 z m -0.25207,0.005 c -0.0418,0.002 -0.0826,0.0176 -0.12345,0.0206 0.0398,-0.002 0.0787,0.005 0.11827,0.005 0.005,-0.006 -7.9e-4,-0.0186 0.005,-0.0255 z m -1.918908,0.5318 c -0.0368,0.0147 -0.0916,0.0314 -0.12862,0.0451 0.0169,0.0118 0.0348,0.0186 0.0518,0.0304 0.0249,-0.0255 0.0518,-0.05 0.0767,-0.0764 z" />
    <path
       style="fill:#000000;fill-opacity:1;stroke-width:1.01015258"
       d="M 195.67395,505.39219 C 177.05977,484.56238 160.0468,466.29606 122.05309,426.34775 88.956401,391.54838 83.340089,385.50814 71.165674,371.61928 41.649283,337.9463 23.223128,310.55725 13.150271,285.38388 3.5704669,261.44272 0.94759803,246.15649 0.93897335,214.21572 0.92261969,153.65203 11.335228,120.15327 42.385839,80.875581 52.777346,67.73077 81.184623,39.965513 92.243983,32.14426 116.24784,15.168566 143.88646,5.5176996 178.61203,1.9862191 c 15.09584,-1.53519962 66.69076,-1.53622037 78.44113,-0.00155 17.28612,2.2576719 28.9727,6.1231953 49.84824,16.4880999 63.59962,31.577823 113.92549,101.126471 117.51945,162.407911 0.8385,14.29728 -0.11899,45.72618 -1.82173,59.79782 -5.53231,45.71948 -22.80995,78.97516 -67.59773,130.11086 -16.73602,19.10807 -24.08267,26.97185 -63.22955,67.68022 -44.34947,46.11847 -52.88134,55.21776 -67.01166,71.4683 -6.40104,7.36148 -11.95887,13.38452 -12.35074,13.38452 -0.39187,0 -7.92284,-8.0686 -16.73549,-17.93021 z m 35.97108,-132.57265 c 17.48463,-1.14439 29.98656,-3.21556 40.29281,-6.67525 18.56865,-6.23329 50.61286,-29.57069 68.52124,-49.90317 43.85359,-49.78966 53.59383,-116.59966 25.57693,-175.4367 -13.79618,-28.97276 -35.35304,-53.2596 -64.18537,-72.313849 -25.23902,-16.679554 -39.89085,-20.553034 -81.82236,-21.631238 -41.4277,-1.06525 -58.1898,1.559408 -80.30408,12.574247 -64.67051,32.211552 -98.22987,87.01549 -95.649821,156.20044 0.920194,24.67535 5.450267,43.20027 15.956629,65.25177 18.408337,38.63671 54.021362,71.58905 90.588172,83.82025 11.00682,3.68166 29.24972,6.86576 45.68214,7.97331 17.84658,1.20287 19.0354,1.20757 35.34371,0.14019 z"
       id="path60"
       inkscape:connector-curvature="0"
       transform="matrix(0.26458333,0,0,0.26458333,38.676346,72.066652)" />
    <path
       style="fill:#000000;fill-opacity:1;stroke-width:0.26726952"
       d="m 62.912656,140.27963 c -0.02994,-5.3513 0.04932,-7.20198 0.352022,-8.21854 0.495859,-1.66528 0.490344,-2.71424 -0.01936,-3.68117 -0.4512,-0.85595 -0.547811,-2.46048 -0.162535,-2.69941 0.518729,-0.32171 0.61445,-2.53284 0.160374,-3.70466 -0.542369,-1.39966 -0.549255,-1.78621 -0.04909,-2.75563 0.504581,-0.97798 0.498007,-2.26121 -0.01783,-3.47946 -0.268088,-0.63314 -0.411299,-1.85746 -0.421047,-3.59955 l -0.01477,-2.64006 h 5.877875 5.877874 l 0.160479,16.37026 0.160475,16.37026 1.269985,0.0815 1.269987,0.0815 -0.117953,-21.07893 -0.117953,-21.07893 0.814826,-0.784996 0.814829,-0.784995 15.611076,-0.07307 c 17.37461,-0.08132 17.26128,-0.09128 17.59797,1.546351 0.0978,0.47593 0.22998,10.17132 0.29363,21.54531 l 0.11572,20.67998 h 1.14926 c 0.63209,0 1.29277,-0.14433 1.46818,-0.32073 0.24101,-0.24236 0.2969,-4.25849 0.22875,-16.43707 l -0.0902,-16.11636 h 6.54811 6.5481 l 0.0134,2.39609 c 0.008,1.48657 -0.14515,2.87094 -0.40431,3.64707 -0.45446,1.361 -0.38186,2.9399 0.19784,4.30289 0.31766,0.74689 0.30663,0.98166 -0.0852,1.81314 -0.54402,1.15438 -0.55938,2.9649 -0.0329,3.87699 0.45228,0.7835 0.52448,1.9184 0.14626,2.29876 -0.35893,0.36094 -0.37147,3.34378 -0.0224,5.31842 0.15593,0.88199 0.30931,4.39992 0.34083,7.81763 l 0.0573,6.21402 H 95.691821 62.951303 Z m 39.527984,-4.98697 -0.0381,-6.81537 h -7.216275 -7.216277 l 0.03814,6.81537 0.03814,6.81537 h 7.216278 7.216284 z m -31.622452,-5.27857 -0.08937,-1.9377 h -2.539061 -2.539061 l -0.07245,1.57369 c -0.03985,0.86552 -0.0087,1.73749 0.06927,1.9377 0.105938,0.2721 0.787894,0.36401 2.700879,0.36401 h 2.559156 z m 54.522982,0 -0.0894,-1.9377 h -2.53906 -2.53906 l -0.0677,1.9377 -0.0677,1.9377 h 2.69611 2.69611 z m -54.504139,-6.48129 -0.01122,-2.00452 -2.204951,0.004 c -1.212725,0.002 -2.363845,0.10519 -2.558048,0.22875 -0.425225,0.27056 -0.702245,2.14031 -0.458089,3.09189 0.172949,0.67405 0.213613,0.68432 2.709551,0.68432 h 2.533971 z m 54.523729,0.13364 -0.0105,-1.87089 h -2.50409 -2.50409 l -0.16005,1.00226 c -0.088,0.55125 -0.15919,1.39314 -0.15814,1.87089 l 0.002,0.86863 h 2.67268 2.6727 z m -54.558128,-6.28084 -0.01122,-2.00452 h -2.505651 -2.505652 l -0.162371,0.83522 c -0.205778,1.05851 -0.201364,2.20668 0.01058,2.75106 0.133923,0.34399 0.632397,0.42277 2.675059,0.42277 h 2.510467 z m 54.522988,0 -0.0112,-2.00452 h -2.50273 -2.50274 l -0.16302,1.24002 c -0.0897,0.68201 -0.1611,1.58404 -0.15875,2.00452 l 0.004,0.76451 h 2.6727 2.67269 z m -26.177231,-0.55738 c 1.869601,-0.54663 3.528651,-1.51871 5.077331,-2.97494 4.21878,-3.96694 2.71543,-10.33696 -3.09851,-13.12903 -1.841811,-0.884498 -4.178153,-1.379586 -6.494228,-1.376165 -3.744296,0.0055 -6.93351,1.234855 -9.354322,3.605775 -3.372954,3.30342 -3.210894,7.77076 0.403922,11.1344 1.433777,1.33414 2.405439,1.90977 4.493536,2.66202 1.78302,0.64235 6.890134,0.68672 8.972271,0.0779 z"
       id="path62"
       inkscape:connector-curvature="0" />
    <path
       style="fill:#000000;fill-opacity:1;stroke-width:1.01015258"
       d="m 202.35061,151.08118 v -6.56599 h -8.5863 -8.58629 v -7.57614 -7.57615 h 8.58629 8.5863 v -6.56599 -6.56599 h 10.10153 10.10152 v 6.56599 6.56599 h 8.5863 8.58629 v 7.57615 7.57614 h -8.58629 -8.5863 v 6.56599 6.56599 h -10.10152 -10.10153 z"
       id="path64"
       inkscape:connector-curvature="0"
       transform="matrix(0.26458333,0,0,0.26458333,38.676346,72.066652)" />
    <path
       style="fill:#ffffff;fill-opacity:1;stroke-width:1.01015258"
       d="m 195.41621,371.76745 c -25.79002,-2.01612 -46.72287,-7.18986 -61.75597,-15.26353 -44.44071,-23.86733 -75.183821,-64.97379 -86.017872,-115.01408 -1.981665,-9.15291 -2.299906,-13.58321 -2.321989,-32.32488 -0.02194,-18.61983 0.300772,-23.33635 2.262012,-33.06003 10.304525,-51.08901 41.415071,-89.974082 92.643839,-115.795526 21.76025,-10.968082 37.15339,-13.397964 78.7919,-12.437692 40.80563,0.941064 52.90444,3.681461 75.22219,17.037913 45.11693,27.001028 75.12493,68.920735 84.46351,117.991365 2.75267,14.46424 2.56364,40.36624 -0.40346,55.28339 -9.21693,46.33821 -37.11485,84.8603 -83.06041,114.6917 -16.97489,11.0214 -29.03535,15.40466 -48.94771,17.78959 -13.35689,1.59977 -37.74859,2.128 -50.87604,1.10178 z M 339.55948,267.75381 c 0.18325,-9.16714 -0.20455,-24.77969 -0.86178,-34.69457 -0.92131,-13.89851 -0.92053,-19.0073 0.003,-22.30719 0.99717,-3.56153 0.92985,-4.92277 -0.40091,-8.10774 -2.05878,-4.92736 -2.02526,-9.68645 0.11055,-15.69999 1.60634,-4.52273 1.60634,-4.97207 0,-7.42364 -1.98469,-3.02903 -2.34443,-12.75361 -0.53859,-14.55945 0.73787,-0.73788 1.20506,-5.39105 1.26269,-12.5764 l 0.0918,-11.40517 h -25.25381 -25.25382 l -0.50507,61.61931 -0.50508,61.6193 -4.29315,0.31062 -4.29315,0.31063 -0.10071,-78.59745 c -0.0553,-43.22859 -0.40938,-79.73386 -0.78669,-81.12282 -0.4019,-1.47946 -2.13827,-3.25688 -4.19246,-4.29158 -3.21466,-1.619232 -8.25617,-1.76633 -60.58672,-1.76777 -34.10605,-9.38e-4 -58.46408,0.395297 -60.51837,0.98446 -1.89094,0.54231 -4.50171,1.98526 -5.80171,3.20654 l -2.36362,2.22051 v 79.68695 79.68694 l -3.78808,-0.31351 -3.78807,-0.31352 -0.50507,-61.6193 -0.50508,-61.61931 -22.98097,-0.2715 -22.980972,-0.27151 v 9.94055 c 0,6.47643 0.565161,11.5992 1.621775,14.70019 1.714764,5.03256 1.516581,9.16923 -0.695199,14.51088 -1.171321,2.82884 -1.107824,3.91854 0.486706,8.35279 1.892496,5.26285 1.794014,8.27159 -0.520157,15.89157 -1.123538,3.69952 -1.067774,4.74061 0.421166,7.86294 2.010872,4.21685 2.261698,11.6725 0.453476,13.47935 -0.935284,0.93457 -1.352053,8.84575 -1.607327,30.51059 l -0.344637,29.24886 124.593399,-0.25652 124.5934,-0.25653 z"
       id="path13"
       inkscape:connector-curvature="0"
       transform="matrix(0.26458333,0,0,0.26458333,38.676346,72.066652)" />
    <path
       style="fill:#ffffff;fill-opacity:1;stroke-width:1.01015258"
       d="m 102.54985,171.53678 0.30074,-6.31346 8.83883,-0.29186 8.83883,-0.29187 v 6.60532 6.60532 h -9.13957 -9.13957 z"
       id="path15"
       inkscape:connector-curvature="0"
       transform="matrix(0.26458333,0,0,0.26458333,38.676346,72.066652)" />
    <path
       style="fill:#ffffff;fill-opacity:1;stroke-width:1.01015258"
       d="m 102.34551,196.11559 c 0,-8.08994 0.0878,-8.16384 9.70452,-8.16384 h 8.47822 v 6.566 6.56599 h -9.09137 -9.09137 z"
       id="path17"
       inkscape:connector-curvature="0"
       transform="matrix(0.26458333,0,0,0.26458333,38.676346,72.066652)" />
    <path
       style="fill:#ffffff;fill-opacity:1;stroke-width:1.01015258"
       d="m 102.34551,218.76141 v -6.56599 h 9.09137 9.09137 v 6.56599 6.56599 h -9.09137 -9.09137 z"
       id="path19"
       inkscape:connector-curvature="0"
       transform="matrix(0.26458333,0,0,0.26458333,38.676346,72.066652)" />
    <path
       style="fill:#ffffff;fill-opacity:1;stroke-width:1.01015258"
       d="m 187.19832,238.96446 v -24.74874 h 26.26397 26.26397 v 24.74874 24.74874 h -26.26397 -26.26397 z"
       id="path21"
       inkscape:connector-curvature="0"
       transform="matrix(0.26458333,0,0,0.26458333,38.676346,72.066652)" />
    <path
       style="fill:#ffffff;fill-opacity:1;stroke-width:1.01015258"
       d="m 308.41663,172.88208 c 0,-8.08994 0.0878,-8.16383 9.70452,-8.16383 h 8.47822 v 6.56599 6.56599 h -9.09137 -9.09137 z"
       id="path23"
       inkscape:connector-curvature="0"
       transform="matrix(0.26458333,0,0,0.26458333,38.676346,72.066652)" />
    <path
       style="fill:#ffffff;fill-opacity:1;stroke-width:1.01015258"
       d="m 308.41663,196.11559 c 0,-8.67078 0.54824,-8.99043 12.87944,-7.50927 l 5.3033,0.637 v 5.92021 5.92021 h -9.09137 -9.09137 z"
       id="path25"
       inkscape:connector-curvature="0"
       transform="matrix(0.26458333,0,0,0.26458333,38.676346,72.066652)" />
    <path
       style="fill:#ffffff;fill-opacity:1;stroke-width:1.01015258"
       d="m 308.41663,218.76141 v -6.56599 h 9.09137 9.09137 v 6.56599 6.56599 h -9.09137 -9.09137 z"
       id="path27"
       inkscape:connector-curvature="0"
       transform="matrix(0.26458333,0,0,0.26458333,38.676346,72.066652)" />
    <path
       style="fill:#ffffff;fill-opacity:1;stroke-width:1.01015258"
       d="m 204.83552,169.68107 c -14.61913,-1.10987 -27.80018,-9.4384 -33.73547,-21.31598 -5.49075,-10.98796 -3.26601,-21.79666 6.36028,-30.9008 9.53475,-9.01757 20.89971,-13.3552 34.99181,-13.3552 24.44486,0 43.47701,14.58977 43.41437,33.28084 -0.0355,10.59487 -4.3344,17.92818 -14.44319,24.63801 -10.09176,6.69853 -20.49598,8.8748 -36.5878,7.65313 z m 18.72829,-17.58973 v -6.56599 h 8.08123 8.08122 v -8.5863 -8.5863 h -8.08122 -8.08123 v -6.56599 -6.56599 h -11.11167 -11.11168 v 6.56599 6.56599 h -8.5863 -8.58629 v 8.5863 8.5863 h 8.58629 8.5863 v 6.56599 6.56599 h 11.11168 11.11167 z"
       id="path29"
       inkscape:connector-curvature="0"
       transform="matrix(0.26458333,0,0,0.26458333,38.676346,72.066652)" />
  </g>
</svg>
