<?xml version="1.0" encoding="UTF-8" standalone="no"?>
<!-- Created with Inkscape (http://www.inkscape.org/) -->

<svg
   xmlns:dc="http://purl.org/dc/elements/1.1/"
   xmlns:cc="http://creativecommons.org/ns#"
   xmlns:rdf="http://www.w3.org/1999/02/22-rdf-syntax-ns#"
   xmlns:svg="http://www.w3.org/2000/svg"
   xmlns="http://www.w3.org/2000/svg"
   xmlns:sodipodi="http://sodipodi.sourceforge.net/DTD/sodipodi-0.dtd"
   xmlns:inkscape="http://www.inkscape.org/namespaces/inkscape"
   width="111.04178mm"
   height="137.52611mm"
   viewBox="0 0 111.04178 137.52611"
   version="1.1"
   id="svg35"
   inkscape:version="0.92.3 (2405546, 2018-03-11)"
   sodipodi:docname="nursing_home.svg">
  <defs
     id="defs29" />
  <sodipodi:namedview
     id="base"
     pagecolor="#ffffff"
     bordercolor="#666666"
     borderopacity="1.0"
     inkscape:pageopacity="0.0"
     inkscape:pageshadow="2"
     inkscape:zoom="0.35"
     inkscape:cx="888.27722"
     inkscape:cy="143.55692"
     inkscape:document-units="mm"
     inkscape:current-layer="layer1"
     showgrid="false"
     inkscape:window-width="1920"
     inkscape:window-height="1052"
     inkscape:window-x="0"
     inkscape:window-y="0"
     inkscape:window-maximized="1"
     fit-margin-top="0"
     fit-margin-left="0"
     fit-margin-right="0"
     fit-margin-bottom="0" />
  <metadata
     id="metadata32">
    <rdf:RDF>
      <cc:Work
         rdf:about="">
        <dc:format>image/svg+xml</dc:format>
        <dc:type
           rdf:resource="http://purl.org/dc/dcmitype/StillImage" />
        <dc:title />
      </cc:Work>
    </rdf:RDF>
  </metadata>
  <g
     inkscape:label="Layer 1"
     inkscape:groupmode="layer"
     id="layer1"
     transform="translate(-51.159831,-82.239583)">
    <path
       id="path54"
       style="fill:#000000;stroke-width:0.30738127"
       d="m 105.84914,102.57993 c -1.00277,0 -1.78073,0.54293 -7.128428,4.97518 -3.30158,2.7364 -11.04243,9.14096 -17.20184,14.23241 -6.15941,5.09145 -11.3392,9.51685 -11.51074,9.83398 -0.70611,1.30548 -0.0496,3.10774 1.34354,3.68833 0.89717,0.37392 2.34982,0.099 3.11952,-0.59037 2.73812,-2.45238 31.138988,-25.71868 31.394448,-25.71868 0.18016,0 4.52669,3.47994 9.65878,7.73316 24.28011,20.12214 22.47164,18.70076 23.79559,18.70076 1.49455,0 2.68578,-1.18553 2.68578,-2.67288 0,-1.25522 -0.0275,-1.2794 -19.44694,-17.31406 -14.26195,-11.77611 -15.67958,-12.86783 -16.70971,-12.86783 z m 0.0208,10.85435 c -0.74075,0 -3.14742,1.84416 -12.966938,9.93696 -6.63152,5.46538 -12.13537,10.15795 -12.23081,10.4277 -0.0954,0.26976 -0.20532,6.56443 -0.24422,13.98827 l -0.0708,13.49796 h 1.77685 1.77684 v -12.94311 -12.94288 l 10.97519,-9.0868 10.975178,-9.08657 11.04204,9.13505 11.04227,9.13504 0.0805,12.89464 0.0805,12.89463 h 1.69631 1.6963 v -13.70883 -13.7086 L 119.13918,123.6509 c -10.08283,-8.3345 -12.52735,-10.21662 -13.26934,-10.21662 z m -3.8817,12.5359 -0.0907,2.40081 c -0.0848,2.24184 -0.15221,2.45157 -1.01791,3.17233 -3.797218,3.16146 -2.891818,9.57399 1.67459,11.86042 3.37997,1.69237 7.60506,0.48892 9.62339,-2.74123 0.8142,-1.30304 0.93411,-1.77687 0.92609,-3.66108 -0.0104,-2.45953 -0.72066,-4.15873 -2.28135,-5.45811 -0.86571,-0.72076 -0.9331,-0.93049 -1.01791,-3.17233 l -0.0907,-2.40081 h -3.86281 z m 3.8626,1.07017 c 0.64223,0 0.92718,0.14984 0.92717,0.4874 0,0.268 0.27812,0.55916 0.61804,0.64711 0.82789,0.21422 0.84966,1.61471 0.0284,1.82719 -0.3242,0.0839 -0.65874,0.41478 -0.74352,0.73557 -0.0924,0.34956 -0.42505,0.58345 -0.83013,0.58345 -0.40509,0 -0.73755,-0.23389 -0.82992,-0.58345 -0.0848,-0.32079 -0.41932,-0.65168 -0.74352,-0.73557 -0.82122,-0.21248 -0.79945,-1.61297 0.0284,-1.82719 0.33992,-0.088 0.61804,-0.37911 0.61804,-0.64711 0,-0.33756 0.28472,-0.4874 0.92696,-0.4874 z m -10.862948,18.34538 -0.83795,0.84077 c -0.77376,0.77647 -0.91601,1.34403 -1.85782,7.41463 -0.56093,3.61557 -1.08637,6.81455 -1.1677,7.10884 -0.13322,0.48202 0.14011,0.5352 2.75677,0.5352 h 2.9046 l 0.72181,-4.89209 c 0.63126,-4.27921 0.79248,-4.8923 1.28775,-4.8923 0.31141,0 0.56616,0.13998 0.56616,0.31093 0,0.41234 -1.19079,7.90607 -1.39608,8.78547 l -0.16064,0.68799 h 8.046048 8.04626 l -0.16064,-0.68799 c -0.20529,-0.8794 -1.39629,-8.37313 -1.39629,-8.78547 0,-0.17095 0.25845,-0.31093 0.57419,-0.31093 0.50567,0 0.6592,0.58301 1.28949,4.8923 l 0.71551,4.89209 h 2.90308 c 2.61503,0 2.88825,-0.0532 2.75503,-0.5352 -0.0813,-0.29429 -0.60677,-3.49327 -1.1677,-7.10884 -0.94181,-6.0706 -1.08405,-6.63816 -1.85782,-7.41463 l -0.83795,-0.84077 h -10.86316 z"
       inkscape:connector-curvature="0" />
    <path
       style="fill:#000000;fill-opacity:1;stroke-width:0.1889881"
       d="m 104.67456,218.4119 c -5.836258,-6.6367 -11.003098,-12.21526 -21.920308,-23.66699 -10.84721,-11.3783 -14.09773,-14.96979 -18.25081,-20.16533 -11.29184,-14.1262 -14.82332,-24.24119 -13.9905,-40.07207 0.80604,-15.32165 3.80326,-23.13701 12.93076,-33.71744 7.63776,-8.85355 14.95464,-14.04972 23.27493,-16.52898 6.44473,-1.92038 12.79958,-2.56007 23.624848,-2.37811 10.48898,0.1763 13.24168,0.76927 20.78869,4.4782 9.32761,4.58398 17.1669,11.586241 23.37847,20.88225 4.39983,6.58466 7.44673,14.60993 8.10795,21.35567 0.43057,4.39275 -0.0324,14.68317 -0.88829,19.74521 -2.11885,12.53118 -8.19478,22.0635 -26.13867,41.00808 -1.62116,1.71157 -5.4989,5.75295 -8.6172,8.98084 -10.19318,10.5514 -14.71205,15.39106 -18.31012,19.60997 -1.13025,1.32528 -2.10778,2.4079 -2.17228,2.40582 -0.0645,-0.002 -0.88237,-0.87378 -1.81747,-1.93712 z m 8.04074,-38.13382 c 8.62526,-0.67272 12.37077,-2.16116 20.02327,-7.95712 12.08787,-9.15531 18.52084,-21.35476 18.52084,-35.12291 0,-13.84681 -6.62095,-26.54029 -18.52084,-35.50763 -2.41038,-1.816369 -5.99534,-4.021689 -8.14247,-5.008909 -4.32692,-1.98945 -10.11269,-2.69326 -20.74072,-2.52298 -8.744778,0.1401 -11.243478,0.63199 -16.413148,3.23108 -14.59937,7.339949 -22.98081,18.386169 -25.11455,33.099359 -0.41257,2.84491 -0.54633,7.7522 -0.2859,10.48884 1.44358,15.16927 10.56679,28.66551 23.97855,35.47221 3.73761,1.89689 7.57526,2.92921 13.17286,3.54344 4.550308,0.49933 9.447788,0.60239 13.522108,0.28462 z"
       id="path32"
       inkscape:connector-curvature="0" />
    <path
       style="fill:#000000;fill-opacity:1;stroke-width:2.85714293"
       d="M 371.33704,796.72734 C 354.25881,778.09163 321.21473,742.58574 297.90576,717.82543 233.25967,649.15406 207.80348,611.89251 197.1648,570.36567 c -3.67232,-14.33444 -4.40725,-27.32384 -3.3831,-59.79359 1.11773,-35.43643 2.43234,-44.76645 9.02162,-64.0278 9.38031,-27.41993 22.62759,-47.96138 48.57589,-75.32256 40.69289,-42.90862 74.12093,-57.16772 140.38142,-59.88127 48.63234,-1.99162 72.04895,1.55459 99.78023,15.11071 43.97794,21.49811 79.23297,55.6921 101.45071,98.39742 15.61646,30.01681 20.17112,49.45082 20.0516,85.5571 -0.28543,86.21603 -17.55477,116.87321 -134.4666,238.70949 -22.6314,23.58469 -49.03204,51.5694 -58.6681,62.18826 l -17.52011,19.30706 z M 465.83996,674.9998 c 29.23081,-13.02186 69.49673,-48.93743 85.35924,-76.137 26.927,-46.17188 28.51529,-101.81112 4.33371,-151.81551 -14.39542,-29.76792 -48.07882,-64.35379 -76.67577,-78.7301 -33.30028,-16.74079 -104.77594,-19.25886 -140.37075,-4.94523 -52.01759,20.91768 -92.35516,68.40359 -102.60652,120.78974 -4.81656,24.61344 -2.05424,65.86982 5.94623,88.80949 13.96417,40.03932 47.44579,77.77064 84.48341,95.20661 24.91372,11.72849 37.13896,13.53777 85.40478,12.63951 33.40649,-0.62168 45.34202,-1.90454 54.12567,-5.81751 z"
       id="path15"
       inkscape:connector-curvature="0"
       transform="scale(0.26458333)" />
    <path
       style="fill:#000000;fill-opacity:1;stroke-width:0.12626907"
       d="m 347.87298,609.40423 c -1.86619,-0.10077 -2.96751,-0.34895 -3.33103,-0.75064 -0.22561,-0.24929 -0.22281,-0.30435 0.10131,-1.99167 0.59346,-3.08947 1.8695,-10.9061 4.12973,-25.29741 3.11768,-19.85093 3.80788,-23.29397 5.23794,-26.12924 0.51473,-1.02051 0.91445,-1.49923 3.08017,-3.68889 l 1.96699,-1.98874 h 41.05602 41.05602 l 2.06635,2.12555 c 2.19956,2.26258 2.73213,3.00538 3.40633,4.75097 1.13983,2.95113 1.90201,7.00212 4.84745,25.76403 1.76254,11.22706 3.43279,21.46372 3.92228,24.03881 0.40284,2.11933 0.38331,2.38417 -0.19759,2.67936 -0.90711,0.46096 -2.08371,0.52019 -11.58519,0.58322 -5.08706,0.0337 -9.24921,0.0338 -9.24921,6e-5 0,-0.1712 -3.34813,-22.90143 -3.73317,-25.34428 -1.41018,-8.94664 -2.10448,-11.25498 -3.47584,-11.55618 -0.8749,-0.19216 -2.18141,0.23907 -2.55759,0.84416 -0.14888,0.23949 0.13699,2.46666 1.2534,9.765 1.64107,10.72819 3.51287,21.87853 4.10497,24.45334 0.20219,0.87925 0.36762,1.66054 0.36762,1.7362 0,0.0989 -8.52751,0.13756 -30.30698,0.13756 h -30.30698 l 0.079,-0.34724 c 0.0435,-0.19098 0.18391,-0.77339 0.31209,-1.29425 0.849,-3.44999 5.42206,-32.01953 5.42206,-33.87357 0,-0.74012 -0.34493,-1.12713 -1.19545,-1.3413 -1.66199,-0.41849 -2.31336,0.0848 -3.0132,2.32839 -0.81415,2.61005 -1.41072,6.2203 -4.52141,27.36221 l -1.05433,7.16576 -8.08195,-0.0192 c -4.44508,-0.0106 -8.85501,-0.061 -9.79985,-0.11199 z"
       id="path17"
       inkscape:connector-curvature="0"
       transform="scale(0.26458333)" />
    <path
       style="fill:#000000;fill-opacity:1;stroke-width:0.25253814"
       d="m 395.09953,544.31936 c -6.51069,-1.17631 -12.35367,-4.65043 -16.46984,-9.79264 -6.64251,-8.29833 -8.05829,-20.15566 -3.4957,-29.27695 1.43701,-2.8728 2.84804,-4.71409 5.94039,-7.75179 2.63842,-2.59179 3.00024,-3.05359 3.36364,-4.29315 0.37813,-1.28978 0.60077,-4.19297 1.05062,-13.70019 l 0.15235,-3.21986 h 14.46469 14.4647 l 0.17278,5.24016 c 0.22214,6.73716 0.55435,10.47791 1.0709,12.0587 0.34482,1.05523 0.86728,1.69836 3.17987,3.91434 4.31151,4.1314 6.10618,7.03638 7.41207,11.99771 0.59044,2.2432 0.67719,3.12581 0.78163,7.9528 0.13522,6.24973 -0.10776,7.96982 -1.54493,10.93708 -4.90401,10.12509 -14.87002,16.40742 -25.88037,16.31438 -1.47494,-0.0125 -3.5732,-0.18373 -4.6628,-0.38059 z m 7.0133,-48.47395 c 0.33494,-0.21946 0.85706,-0.93177 1.16027,-1.58293 0.75755,-1.62685 1.17497,-2.04759 2.71192,-2.7335 1.64908,-0.73595 2.33128,-1.74876 2.3326,-3.46301 0.002,-1.84463 -0.61167,-2.89842 -2.08285,-3.58003 -1.56556,-0.72533 -2.46189,-1.56143 -2.46189,-2.29646 0,-0.31528 -0.27311,-0.89075 -0.60691,-1.27882 -0.5525,-0.64231 -0.78575,-0.7137 -2.60124,-0.79615 -2.49093,-0.11311 -3.77342,0.33476 -3.99113,1.39379 -0.28913,1.40643 -0.76149,1.97386 -2.27377,2.73143 -1.25848,0.63043 -1.61248,0.95948 -2.1088,1.96015 -0.47691,0.96155 -0.56291,1.4261 -0.42913,2.3182 0.22067,1.47155 0.89566,2.27792 2.5697,3.06987 1.41183,0.6679 1.74807,1.03176 2.70414,2.92624 0.94811,1.8787 3.30027,2.49544 5.07709,1.33122 z"
       id="path19"
       inkscape:connector-curvature="0"
       transform="scale(0.26458333)" />
    <path
       style="fill:#000000;fill-opacity:1;stroke-width:0.50507629"
       d="m 304.22303,573.91418 c 0.0229,-19.37599 0.19744,-42.53961 0.38782,-51.47472 0.32419,-15.21491 0.40967,-16.3165 1.34729,-17.36242 4.91211,-5.47952 73.55884,-62.26513 87.11664,-72.06421 5.62664,-4.06672 6.63223,-4.43745 8.99512,-3.31618 3.80623,1.80618 14.65399,10.32042 44.32008,34.78616 9.73904,8.03181 25.01619,20.62633 33.94924,27.98782 l 16.24191,13.38452 0.0171,51.64405 0.0172,51.64405 h -6.06091 -6.06092 l -0.0727,-9.21764 c -0.04,-5.06971 -0.21045,-26.94506 -0.3788,-48.6119 l -0.3061,-39.39424 -41.6562,-34.47316 c -22.91091,-18.96023 -41.7924,-34.47315 -41.95886,-34.47315 -0.16647,0 -18.92309,15.41391 -41.68139,34.25313 l -41.37872,34.25313 -0.12878,48.83192 -0.12878,48.83191 h -6.31094 -6.31095 z"
       id="path21"
       inkscape:connector-curvature="0"
       transform="scale(0.26458333)" />
    <path
       style="fill:#000000;fill-opacity:1;stroke-width:0.50507629"
       d="m 268.47988,510.38692 c -4.60284,-2.75891 -6.1505,-9.98286 -2.88246,-13.45441 3.47405,-3.6904 24.44486,-21.35618 75.4545,-63.56278 52.74373,-43.64142 54.21681,-44.79325 57.92166,-45.29017 4.00588,-0.5373 7.51411,2.00761 43.59867,31.62697 71.98431,59.08703 91.18242,75.45447 93.29442,79.53864 0.96836,1.87261 0.55399,5.32343 -0.92699,7.71969 -2.39674,3.87801 -8.38972,5.82755 -12.09357,3.93409 -3.67893,-1.88072 -11.44309,-8.12772 -58.0505,-46.70709 -47.56247,-39.36992 -63.76183,-52.53343 -64.649,-52.53343 -0.76259,0 -80.98744,65.51564 -109.02308,89.03372 -5.93173,4.97591 -11.72748,9.47509 -12.87944,9.99816 -3.0879,1.40212 -7.12824,1.27658 -9.76421,-0.30339 z"
       id="path23"
       inkscape:connector-curvature="0"
       transform="scale(0.26458333)" />
    <path
       style="fill:#ffffff;fill-opacity:1;stroke-width:0.50507629"
       d="m 376.91234,680.32347 c -30.429,-3.4434 -47.99818,-9.62377 -69.95307,-24.60766 -7.9972,-5.45798 -14.24205,-10.58611 -21.65572,-17.78321 -22.66383,-22.00175 -38.5502,-49.52491 -46.20752,-80.05459 -3.5053,-13.97565 -4.65347,-23.48875 -4.66729,-38.67084 -0.0124,-13.62902 0.62073,-22.07319 2.38341,-31.7873 9.65079,-53.18548 40.8071,-92.51502 94.61062,-119.4298 16.41082,-8.20938 24.94432,-10.29435 46.81419,-11.438 12.61689,-0.65978 47.31396,-0.3191 56.00153,0.54987 25.0068,2.50127 36.79843,6.84623 59.22245,21.82214 17.32801,11.57254 34.64536,28.05709 46.3929,44.16183 13.78008,18.89115 23.51164,40.5291 28.16564,62.62585 3.91192,18.57338 4.3886,40.39964 1.28377,58.78173 -7.27978,43.0998 -30.61775,78.87735 -71.17261,109.10895 -24.24587,18.07408 -41.19292,25.01702 -64.11359,26.26632 -12.75704,0.69532 -52.20275,1.00942 -57.10471,0.45471 z m -59.59708,-119.54127 0.002,-48.86613 41.20005,-34.09265 c 22.66003,-18.75096 41.38202,-34.09265 41.60442,-34.09265 0.22241,0 19.06979,15.44316 41.88307,34.31813 l 41.47861,34.31813 v 22.79869 c 0,12.53928 0.15079,34.42757 0.33509,48.64065 l 0.3351,25.84196 h 6.48343 6.48344 v -51.95966 -51.95965 l -23.10724,-19.11944 c -52.61251,-43.53274 -67.02126,-55.05361 -71.67839,-57.3122 -1.92059,-0.93144 -2.25636,-0.95685 -3.84925,-0.2913 -3.65284,1.52625 -15.38434,10.66783 -45.05932,35.1117 -19.62468,16.16525 -34.92734,29.02466 -43.49537,36.55081 l -5.10957,4.48825 -0.32402,3.12708 c -0.1782,1.71989 -0.47143,25.23047 -0.65161,52.24574 l -0.32761,49.11867 h 6.89761 6.89762 l 0.002,-48.86613 z m 50.94469,33.91901 c 2.73834,-18.54646 3.55965,-21.93942 5.30496,-21.91572 1.8784,0.0255 1.89638,0.63226 0.32267,10.89166 -1.79097,11.67572 -3.94458,24.10822 -4.36667,25.20816 -0.2592,0.67547 3.21967,0.76302 30.31836,0.76302 26.25322,0 30.61115,-0.10316 30.61115,-0.7246 0,-0.39853 -0.32453,-2.27362 -0.72119,-4.16688 -0.79898,-3.81364 -4.83465,-29.37182 -4.83465,-30.61824 0,-0.43324 0.49407,-0.94452 1.09794,-1.13617 1.30243,-0.41338 2.22462,0.62454 2.92782,3.29524 0.42454,1.61234 3.11133,18.68162 4.59368,29.18377 l 0.58814,4.16688 h 10.07663 c 10.3786,0 12.31485,-0.3155 11.81305,-1.9248 -0.1463,-0.46922 -1.85255,-10.78488 -3.79165,-22.9237 -4.59606,-28.77153 -4.64376,-28.95164 -8.83529,-33.36154 l -2.2803,-2.39912 h -41.10839 -41.10839 l -2.3722,2.53607 c -3.90229,4.17187 -3.8876,4.11478 -8.63285,33.56002 -1.7922,11.12095 -3.40217,21.05052 -3.57772,22.0657 -0.26516,1.5334 -0.15973,1.88677 0.62296,2.08798 0.51818,0.13322 5.48782,0.26834 11.04366,0.30027 l 10.10153,0.0581 z m 38.39981,-50.47917 c 3.93593,-0.92778 9.08244,-3.57518 12.27624,-6.31498 2.86928,-2.46141 7.22267,-8.81961 8.04147,-11.7447 0.32707,-1.16845 0.59533,-4.63048 0.59612,-7.69338 0.003,-9.6699 -1.74608,-14.37918 -7.62308,-20.53057 -4.22747,-4.42483 -4.59195,-5.37617 -4.63038,-12.08595 -0.0121,-2.11214 -0.16837,-5.24068 -0.34727,-6.95231 l -0.32527,-3.11206 -14.70075,0.13378 -14.70074,0.13378 -0.32939,7.67135 c -0.18116,4.21925 -0.57809,8.42494 -0.88207,9.346 -0.30397,0.92105 -1.98615,3.05482 -3.73818,4.74171 -5.49298,5.28877 -8.01065,11.02126 -8.07873,18.39451 -0.0484,5.24177 0.72297,8.69375 3.03472,13.58091 3.19668,6.75792 10.42331,12.66097 17.63751,14.40715 3.9356,0.9526 9.78895,0.96312 13.7698,0.0248 z M 278.92754,511.00066 c 0.97227,-0.47668 5.85889,-4.30957 10.85914,-8.51752 17.47902,-14.70945 83.31644,-68.69038 102.3375,-83.90781 4.06074,-3.24871 7.7241,-5.90675 8.1408,-5.90675 1.00498,0 18.22914,13.85562 52.41353,42.16298 53.97182,44.69292 62.48907,51.63212 67.86742,55.29311 4.43452,3.01852 9.51744,2.569 13.25905,-1.1726 3.8476,-3.84761 4.14155,-8.408 0.79853,-12.38885 -3.65816,-4.35613 -24.43089,-21.90274 -83.19242,-70.27213 -43.72495,-35.99206 -48.18326,-39.28722 -52.39148,-38.72278 -4.04654,0.54275 -4.1118,0.59337 -54.43215,42.21618 -68.60536,56.74736 -79.9135,66.38612 -80.77154,68.84749 -1.58163,4.53709 0.64371,10.21664 4.91093,12.53374 2.29326,1.24524 7.49587,1.16105 10.20069,-0.16506 z"
       id="path25"
       inkscape:connector-curvature="0"
       transform="scale(0.26458333)" />
    <path
       style="fill:#ffffff;fill-opacity:1;stroke-width:0.08928572"
       d="m 399.13575,496.1709 c -0.91575,-0.26607 -1.63234,-0.84846 -1.95853,-1.59176 -0.64877,-1.47842 -0.81525,-1.75439 -1.3658,-2.26411 -0.52798,-0.48881 -1.08883,-0.80313 -2.05415,-1.1512 -0.58,-0.20913 -1.18039,-0.81891 -1.51923,-1.543 -0.32922,-0.70352 -0.4306,-1.76869 -0.24765,-2.60198 0.24312,-1.10735 1.00062,-2.07629 1.86257,-2.38246 0.99086,-0.35197 1.69996,-0.75968 2.10527,-1.21048 0.41211,-0.45838 0.67752,-1.09208 0.67752,-1.61769 0,-0.57916 0.51254,-1.13007 1.27656,-1.37213 0.69347,-0.21971 3.02814,-0.27366 3.89527,-0.09 0.69943,0.14813 1.24759,0.44597 1.48355,0.80609 0.078,0.11908 0.17961,0.48307 0.22575,0.80888 0.0993,0.70159 0.24307,1.00469 0.72345,1.52585 0.4353,0.47224 0.90857,0.75424 1.70552,1.01623 1.43504,0.47177 2.29704,1.78362 2.29704,3.4958 0,1.54677 -0.84626,2.83277 -2.16202,3.28546 -0.75341,0.25921 -1.21995,0.52715 -1.7009,0.97687 -0.6061,0.56673 -0.91009,1.03271 -1.2438,1.9066 -0.5132,1.34395 -1.46662,2.02419 -2.92899,2.08976 -0.38126,0.0171 -0.84267,-0.0202 -1.07143,-0.0867 z"
       id="path36"
       inkscape:connector-curvature="0"
       transform="scale(0.26458333)" />
  </g>
</svg>
