<?xml version="1.0" encoding="UTF-8" standalone="no"?>
<!-- Created with Inkscape (http://www.inkscape.org/) -->

<svg
   xmlns:dc="http://purl.org/dc/elements/1.1/"
   xmlns:cc="http://creativecommons.org/ns#"
   xmlns:rdf="http://www.w3.org/1999/02/22-rdf-syntax-ns#"
   xmlns:svg="http://www.w3.org/2000/svg"
   xmlns="http://www.w3.org/2000/svg"
   xmlns:sodipodi="http://sodipodi.sourceforge.net/DTD/sodipodi-0.dtd"
   xmlns:inkscape="http://www.inkscape.org/namespaces/inkscape"
   width="111.04185mm"
   height="137.52574mm"
   viewBox="0 0 111.04185 137.52574"
   version="1.1"
   id="svg43"
   inkscape:version="0.92.3 (2405546, 2018-03-11)"
   sodipodi:docname="social_facility.svg">
  <defs
     id="defs37" />
  <sodipodi:namedview
     id="base"
     pagecolor="#ffffff"
     bordercolor="#666666"
     borderopacity="1.0"
     inkscape:pageopacity="0.0"
     inkscape:pageshadow="2"
     inkscape:zoom="0.98994949"
     inkscape:cx="725.73989"
     inkscape:cy="459.79428"
     inkscape:document-units="mm"
     inkscape:current-layer="layer1"
     showgrid="false"
     inkscape:window-width="1859"
     inkscape:window-height="1025"
     inkscape:window-x="61"
     inkscape:window-y="27"
     inkscape:window-maximized="1"
     fit-margin-top="0"
     fit-margin-left="0"
     fit-margin-right="0"
     fit-margin-bottom="0" />
  <metadata
     id="metadata40">
    <rdf:RDF>
      <cc:Work
         rdf:about="">
        <dc:format>image/svg+xml</dc:format>
        <dc:type
           rdf:resource="http://purl.org/dc/dcmitype/StillImage" />
        <dc:title></dc:title>
      </cc:Work>
    </rdf:RDF>
  </metadata>
  <g
     inkscape:label="Layer 1"
     inkscape:groupmode="layer"
     id="layer1"
     transform="translate(-51.915724,-89.04337)">
    <path
       id="path12"
       transform="scale(0.26458333)"
       style="fill:#000000;stroke-width:0.24562509"
       d="m 372.34766,421.66797 c -0.0113,0.0227 -0.0238,0.0457 -0.0352,0.0703 0.0416,4e-5 0.0557,0 0.0977,0 0.004,-0.0189 0.006,-0.0476 0.01,-0.0703 -0.0258,0 -0.0477,-3e-5 -0.0723,0 z m -27.63477,0.0273 c -3.00537,0.008 -3.91124,0.0139 0,0.0215 1.5e-4,-0.008 0,-0.0139 0,-0.0215 z m 62.97461,0.0156 c 0.006,0.006 0.0154,0.0212 0.0215,0.0273 2.3e-4,-0.007 -0.002,-0.0142 -0.002,-0.0215 -0.006,-0.002 -0.0132,-0.003 -0.0195,-0.006 z m -1.4043,0.9414 c -2.7182,-0.0264 -5.49749,0.40119 -8.24218,1.33594 -7.69006,2.61899 -13.38382,8.6796 -15.64258,16.65039 -0.48658,1.71723 -0.55194,2.48413 -0.53516,6.18164 0.0151,3.85867 0.0758,4.4142 0.6836,6.45703 2.02086,6.79261 6.25406,11.93284 12.41601,15.07813 2.05051,1.0467 3.58042,1.57497 6.38672,2.20312 2.94875,0.66006 7.4851,0.5057 10.80859,-0.36718 8.42767,-2.2139 14.80254,-8.44877 17.34571,-16.9668 0.59319,-1.98678 0.65284,-2.54917 0.65625,-6.2793 0.004,-3.46318 -0.0793,-4.40485 -0.53125,-6.08398 -2.9613,-11.00043 -12.68188,-18.10524 -23.34571,-18.20899 z m -89.91601,24.41797 c -2.05391,0 -2.44936,0.0772 -3.5918,0.69141 -1.57897,0.84884 -2.99894,2.31128 -3.74219,3.85351 l -0.5625,1.16407 -0.0723,54.88086 c -0.0533,40.19818 0.003,55.50864 0.20703,57.23046 0.2846,2.39634 1.06768,5.01691 1.99219,6.66407 1.66582,2.96795 5.81826,7.22044 14.43554,14.7832 2.38908,2.09673 4.73173,4.78161 8.70703,9.97461 2.71522,3.54686 4.43301,6.32193 5.37891,8.69336 1.5693,3.93422 1.59248,4.33443 1.71289,28.24414 l 0.10938,21.54297 h 24.28515 24.28516 l -0.0762,-27.13086 c -0.0684,-24.18565 -0.11902,-27.27072 -0.47071,-28.43164 -1.36342,-4.50248 -3.22752,-6.12624 -9.90625,-8.63672 -5.4123,-2.03444 -6.94277,-2.84696 -15.25781,-8.10156 -11.30763,-7.1458 -20.00191,-13.75776 -26.39453,-20.07422 -6.8208,-6.7395 -10.73171,-12.82202 -12.45703,-19.37109 -0.39511,-1.49976 -0.43405,-4.74735 -0.55469,-45.81641 l -0.13086,-44.20313 -0.63476,-1.36523 c -0.76449,-1.64478 -2.09623,-3.04751 -3.73829,-3.93555 -1.06721,-0.57713 -1.49572,-0.65625 -3.52343,-0.65625 z m 179.05664,0 c -2.05387,0 -2.44737,0.0772 -3.58985,0.69141 -1.57897,0.84884 -3.00093,2.31128 -3.74414,3.85351 l -0.56054,1.16407 -0.12891,44.32617 c -0.14211,48.54512 -0.0283,44.87869 -1.5293,48.95117 -2.82844,7.68053 -10.01369,16.10344 -21.00195,24.62109 -9.47486,7.34457 -24.16561,16.76162 -29.33203,18.80079 -6.72578,2.65466 -7.63938,3.05375 -8.78711,3.84375 -1.46351,1.00739 -2.32725,2.01551 -3.15039,3.67578 -1.30564,2.63361 -1.29418,2.38407 -1.29883,31.16211 l -0.004,26.63281 h 24.29492 24.29492 l 0.008,-19.55664 c 0.004,-10.75559 0.10927,-20.98439 0.23438,-22.73242 0.48952,-6.83864 1.77812,-9.61663 8.37109,-18.05469 3.89949,-4.99079 5.66196,-6.85626 10.61719,-11.23828 7.3062,-6.46099 9.86472,-9.28062 11.49219,-12.66016 1.84798,-3.83739 1.71289,1.06404 1.71289,-61.52539 V 453.0293 l -0.63477,-1.36719 c -0.76445,-1.64478 -2.09623,-3.04556 -3.73828,-3.93359 -1.06723,-0.57721 -1.49568,-0.65821 -3.52344,-0.65821 z m -89.08594,41.42774 c -6.58447,-0.0389 -12.98935,0.73111 -17.32617,2.1914 -8.84085,2.97687 -13.10063,7.90905 -14.97656,17.34766 -0.3797,1.91055 -0.42518,4.95553 -0.50391,32.83594 l -0.0879,30.73047 h 32.45508 32.45508 l -0.0918,-30.35743 c -0.0892,-29.74817 -0.1004,-30.4131 -0.60742,-33.08984 -1.50732,-7.96199 -4.56864,-12.5212 -10.48828,-15.61523 -3.52445,-1.84211 -7.0365,-2.86639 -11.91602,-3.47852 -2.88937,-0.36246 -5.91914,-0.54688 -8.91211,-0.56445 z"
       inkscape:connector-curvature="0" />
    <path
       id="path32"
       transform="scale(0.26458333)"
       style="fill:#000000;fill-opacity:1;stroke-width:0.71428573"
       d="m 405.31836,335.08398 c -32.33973,0.10128 -53.3918,2.7468 -74.70508,9.09766 -31.44676,9.37043 -59.10162,29.00848 -87.96875,62.4707 -34.49764,39.98903 -45.8266,69.52891 -48.87305,127.4375 -3.14766,59.83325 10.20109,98.06277 52.87891,151.45313 15.69668,19.63669 27.98119,33.21024 68.97852,76.21484 41.26189,43.28213 60.78936,64.36758 82.84765,89.45117 3.53424,4.01893 6.62732,7.31276 6.8711,7.32032 0.24378,0.008 3.93717,-4.08287 8.20898,-9.0918 13.59901,-15.94549 30.67772,-34.23788 69.20313,-74.11719 11.7857,-12.1999 26.44309,-27.47443 32.57031,-33.94336 67.81946,-71.60156 90.78276,-107.63024 98.79101,-154.99218 3.23486,-19.13212 4.98478,-58.02444 3.35743,-74.62696 -2.4991,-25.49571 -14.01526,-55.82794 -30.64454,-80.71484 -23.4768,-35.13453 -53.10541,-61.59855 -88.35937,-78.92383 -28.52413,-14.018 -38.92692,-16.25945 -78.57031,-16.92578 -5.1143,-0.086 -9.96598,-0.12384 -14.58594,-0.10938 z m 4.29297,46.42188 c 31.3192,0.18081 49.85066,3.03986 64.16015,9.61914 8.11514,3.73123 21.6653,12.06662 30.7754,18.93164 44.97594,33.89231 70,81.86677 70,134.20117 0,52.0371 -24.31359,98.1453 -70,132.74805 -28.92284,21.90599 -43.08028,27.53165 -75.67969,30.07422 -15.39901,1.20102 -33.90942,0.81106 -51.10742,-1.07617 -21.15629,-2.3215 -35.66071,-6.22323 -49.78711,-13.39258 -50.69012,-25.72611 -85.17091,-76.73569 -90.62696,-134.06836 -0.9843,-10.34321 -0.47924,-28.89016 1.08008,-39.64258 8.06453,-55.60891 39.74315,-97.35807 94.92188,-125.09961 19.53891,-9.82333 28.98208,-11.68142 62.0332,-12.21094 5.02112,-0.0804 9.7563,-0.10977 14.23047,-0.084 z"
       inkscape:connector-curvature="0" />
    <path
       id="path15"
       transform="scale(0.26458333)"
       style="fill:#0066b5;fill-opacity:1;stroke-width:2.85714293"
       d="m 419.50781,336.54883 c -7.54024,-0.0454 -15.77206,0.13243 -24.89062,0.50586 -66.26049,2.71354 -99.68797,16.97225 -140.38086,59.88086 -25.9483,27.36119 -39.19586,47.90233 -48.57617,75.32226 -6.58928,19.26134 -7.90376,28.59287 -9.02149,64.0293 -1.02415,32.46976 -0.28951,45.45852 3.38281,59.79297 10.63868,41.52684 36.0961,78.78761 100.74219,147.45898 23.30898,24.76032 56.35146,60.26663 73.42969,78.90235 l 31.05273,33.88281 17.51953,-19.30664 c 9.63606,-10.61885 36.03658,-38.60282 58.66797,-62.1875 116.91183,-121.83629 134.18138,-152.49491 134.4668,-238.71094 0.11952,-36.10629 -4.43432,-55.53983 -20.05078,-85.55664 -22.21774,-42.70533 -57.47323,-76.89837 -101.45117,-98.39648 -22.53167,-11.01435 -42.21625,-15.42034 -74.89063,-15.61719 z m -17.04492,43.19726 c 29.70885,-0.048 60.52054,4.86847 79.25195,14.28516 28.59694,14.37631 62.28038,48.96255 76.67578,78.73047 24.18157,50.00439 22.59302,105.64256 -4.33398,151.81445 -15.86251,27.19957 -56.12857,63.11681 -85.35937,76.13867 -8.78366,3.91297 -20.7185,5.19472 -54.125,5.81641 -48.26582,0.89826 -60.49254,-0.91019 -85.40625,-12.63867 -37.03763,-17.43598 -70.51825,-55.1677 -84.48243,-95.20703 -8.00047,-22.93966 -10.76382,-64.19516 -5.94726,-88.8086 10.25136,-52.38615 50.58983,-99.87334 102.60742,-120.79101 15.57273,-6.26222 38.01226,-9.30254 61.11914,-9.33985 z"
       inkscape:connector-curvature="0" />
    <path
       style="fill:#ffffff;fill-opacity:1;stroke-width:1.01015258"
       d="m 372.10975,704.8851 c -26.57997,-3.8018 -43.97945,-10.75684 -65.9992,-26.38166 -11.1165,-7.88807 -28.96818,-25.90001 -37.38303,-37.71863 -14.37583,-20.1908 -25.77613,-48.04553 -29.55953,-72.22381 -2.38021,-15.21096 -1.6218,-44.93585 1.52067,-59.6011 9.58237,-44.71885 34.77029,-79.63212 75.72805,-104.96755 31.40118,-19.42398 45.1752,-22.5054 96.23867,-21.52983 44.11777,0.84288 55.21859,3.7666 82.5054,21.73021 66.34906,43.67928 94.5841,120.8408 70.09711,191.56333 -10.79276,31.17134 -32.22331,59.06609 -63.22379,82.29433 -20.61523,15.4467 -33.56465,21.95518 -50.64518,25.45461 -12.95611,2.65444 -64.14027,3.54545 -79.27917,1.3801 z m 17.93346,-78.03653 c -0.39873,-33.34172 0.13749,-31.70578 -12.27165,-37.43882 -19.78794,-9.14206 -43.84086,-28.59286 -49.72944,-40.21454 l -2.98446,-5.89012 -0.50508,-46.11043 c -0.47684,-43.5332 -0.61263,-46.22918 -2.4294,-48.23479 -2.60726,-2.87827 -8.29289,-2.84232 -11.39509,0.072 l -2.33795,2.19639 0.004,58.6653 c 0.004,55.78115 0.0976,58.81429 1.91296,61.69576 1.05006,1.66675 6.84411,8.04262 12.87567,14.1686 6.27922,6.37752 12.21551,13.45742 13.88875,16.56437 l 2.92228,5.42623 0.50381,23.58919 0.50381,23.5892 h 24.6889 24.68888 l -0.33577,-28.07838 z m 81.177,4.59233 c 0.38698,-20.20493 0.70755,-23.97998 2.29458,-27.02158 3.09429,-5.9303 10.21569,-14.58355 17.42712,-21.17577 3.76851,-3.44492 8.1019,-8.11301 9.62976,-10.37354 l 2.77792,-4.11005 v -58.62427 -58.62427 l -2.19639,-2.33795 c -2.96958,-3.16096 -8.77096,-3.19323 -11.70537,-0.0651 -2.09468,2.23295 -2.13766,3.07946 -2.44893,48.23478 l -0.31683,45.96194 -2.78958,5.68035 c -5.51804,11.23625 -30.37869,31.3942 -49.76319,40.34987 -12.59723,5.81993 -12.03576,4.1242 -12.42081,37.51284 l -0.32381,28.0788 h 24.69285 24.69285 z m -32.52039,-90.47785 c 0,-33.77553 -0.59734,-38.553 -5.55743,-44.44773 -1.36244,-1.61917 -4.87414,-4.02647 -7.80377,-5.34956 -4.79497,-2.16551 -6.73817,-2.40579 -19.46876,-2.40726 -13.4599,-0.002 -14.42116,0.13537 -19.92613,2.83864 -3.18121,1.56216 -6.75851,4.20885 -7.94957,5.88154 -4.4844,6.29777 -4.95425,10.41955 -4.95425,43.46157 v 31.15419 h 32.82995 32.82996 z m -19.6263,-73.45795 c 3.04624,-1.88335 6.09217,-4.93207 7.98284,-7.99016 2.70607,-4.37695 3.05717,-5.83312 3.05717,-12.67942 0,-6.8463 -0.3511,-8.30247 -3.05717,-12.67942 -8.34183,-13.49261 -27.46739,-15.65226 -38.74461,-4.37504 -11.84687,11.84687 -8.00145,32.19742 7.45659,39.46138 6.36415,2.9906 16.93218,2.20279 23.30518,-1.73734 z"
       id="path119"
       inkscape:connector-curvature="0"
       transform="scale(0.26458333)" />
    <path
       style="fill:#0066b5;fill-opacity:1;stroke-width:1.01015258"
       d="m 374.05006,540.45798 c 0,-35.34884 0.50513,-38.57796 6.94481,-44.39582 5.83656,-5.27298 9.87564,-6.29516 24.87499,-6.29516 14.99936,0 19.03844,1.02218 24.875,6.29516 6.43968,5.81786 6.94481,9.04698 6.94481,44.39582 v 30.6263 h -31.81981 -31.8198 z"
       id="path121"
       inkscape:connector-curvature="0"
       transform="scale(0.26458333)" />
    <path
       style="fill:#0066b5;fill-opacity:1;stroke-width:1.01015258"
       d="m 396.77849,468.66608 c -8.24201,-3.60056 -14.62747,-13.13045 -14.62747,-21.83056 0,-8.82343 6.47624,-18.36333 14.84756,-21.87136 4.36234,-1.82805 13.62355,-1.72437 18.24764,0.20428 4.96577,2.07116 10.12619,7.07711 12.44309,12.07063 2.23184,4.8102 2.48327,13.36194 0.53028,18.03612 -2.06,4.93026 -7.64751,10.82381 -12.23954,12.90992 -4.79201,2.17697 -14.74838,2.42636 -19.20156,0.48097 z"
       id="path123"
       inkscape:connector-curvature="0"
       transform="scale(0.26458333)" />
    <path
       style="fill:#0066b5;fill-opacity:1;stroke-width:1.01015258"
       d="m 341.62395,639.52212 c -0.0557,-7.91707 -0.39661,-18.73298 -0.75762,-24.03534 -0.5853,-8.59668 -1.03924,-10.2856 -4.19191,-15.59647 -1.94455,-3.2757 -7.99041,-10.30162 -13.43526,-15.61315 -15.8685,-15.47998 -14.24598,-7.00914 -14.25836,-74.43995 -0.0101,-55.04906 0.0799,-57.92163 1.87623,-59.9066 2.21125,-2.44339 7.3218,-2.76951 10.21949,-0.65212 1.87504,1.37012 1.9892,3.47032 2.60902,48.00086 l 0.64818,46.56805 2.82423,5.78976 c 1.78713,3.66367 5.63514,8.57183 10.47891,13.3659 9.00991,8.91747 30.9099,23.90269 40.83521,27.94176 10.51309,4.27828 10.17213,3.13289 10.53712,35.39806 l 0.31191,27.57391 h -23.79796 -23.79796 z"
       id="path125"
       inkscape:connector-curvature="0"
       transform="scale(0.26458333)" />
    <path
       style="fill:#0066b5;fill-opacity:1;stroke-width:1.01015258"
       d="m 422.5944,627.90536 c 0.038,-17.36254 0.4579,-27.18653 1.26269,-29.54556 1.23267,-3.61328 1.57088,-3.84887 13.83258,-9.63534 9.73654,-4.59482 28.53369,-17.86163 36.42268,-25.7067 4.91544,-4.88809 8.69191,-9.74886 10.60641,-13.65176 l 2.97308,-6.06091 0.36157,-45.81825 c 0.34198,-43.33417 0.46521,-45.92188 2.27304,-47.72971 2.94571,-2.94571 8.34595,-2.52274 11.06241,0.86646 l 2.22653,2.77792 -0.58527,57.27439 c -0.49062,48.01329 -0.82881,57.73193 -2.09145,60.10408 -0.82841,1.55633 -6.19331,7.41255 -11.92201,13.01381 -5.7287,5.60128 -12.00672,12.85656 -13.95117,16.12285 -4.13501,6.94602 -4.84068,12.35363 -4.97061,38.09025 l -0.0803,15.9099 H 446.276 422.53741 Z"
       id="path127"
       inkscape:connector-curvature="0"
       transform="scale(0.26458333)" />
  </g>
</svg>
